<svg width="35" height="22" viewBox="0 0 35 22" fill="none" xmlns="http://www.w3.org/2000/svg">
<path d="M34.4561 12.296V12.8L17.1041 21.476V20.972L34.4561 12.296ZM34.5641 12.0801L16.9961 20.8641V21.692L34.5641 12.872V12.0801Z" fill="#FDC637"/>
<path d="M0.507904 12.26L16.9239 20.972V21.476L0.507904 12.8V12.2601V12.26ZM0.364014 12.0439V12.9079L16.996 21.7279V20.9L0.364014 12.0439Z" fill="#FDC637"/>
<path d="M13.648 18.488H12.4958L16.9958 20.8641L21.5679 18.5601L21.6759 16.688C21.4599 16.796 21.244 16.9402 21.028 17.0482C19.048 18.0562 16.3842 18.596 13.648 18.488L13.648 18.488Z" fill="#FDC637"/>
<path d="M12.892 5.78003L0.364014 12.08L3.96401 13.988L14.332 8.76809C13.6477 7.76009 13.0719 6.68009 12.8919 5.78009L12.892 5.78003Z" fill="#FDC637"/>
<path d="M20.452 9.59601C19.264 11.1439 18.04 12.4399 17.9321 12.5119L17.6799 12.7641L17.4278 12.5119C17.3198 12.404 16.2398 11.288 15.1238 9.84788L5.40381 14.708L10.4078 17.3721H13.7557C15.8796 17.4441 18.0036 17.0481 19.5517 16.2561C20.8477 15.6083 21.6397 14.7441 21.8197 13.8441L21.8557 13.3042L21.9277 12.1883C22.1078 11.288 21.5679 10.3522 20.4519 9.59605L20.452 9.59601Z" fill="#FDC637"/>
<path d="M24.0521 12.26H29.1641L29.308 9.30789L23.008 5.96002L22.3601 6.28396C22.1441 6.96803 21.7481 7.72384 21.28 8.44409L21.5322 8.58798C23.3681 9.52392 24.2681 10.856 24.0521 12.26L24.0521 12.26Z" fill="#FDC637"/>
<path d="M31.3961 10.3881L31.2881 12.2601H34.204L34.5641 12.0801L31.3961 10.3881Z" fill="#FDC637"/>
<path d="M29.0921 13.34H23.9801C23.9801 13.5201 23.9801 13.736 23.9442 13.9161L23.7642 17.4802L32.0082 13.3403H31.2162L29.0921 13.34Z" fill="#FDC637"/>
<path d="M17.6799 0.66803C15.1959 0.66803 13.1799 2.7199 13.1799 5.20397C13.1799 7.68803 17.7159 12.296 17.7159 12.296C17.7159 12.296 22.2518 7.7239 22.2518 5.20397C22.2159 2.7199 20.1999 0.66803 17.68 0.66803H17.6799ZM17.6799 6.46403C16.5999 6.46403 15.6999 5.59997 15.6999 4.48397C15.6999 3.36797 16.5639 2.5039 17.6799 2.5039C18.76 2.5039 19.66 3.36797 19.66 4.48397C19.66 5.59997 18.76 6.46403 17.6799 6.46403Z" fill="#FDC637"/>
</svg>
