<svg width="28" height="23" viewBox="0 0 28 23" fill="none" xmlns="http://www.w3.org/2000/svg">
<path d="M26.9721 5.52754H24.5072V4.68028C24.5072 4.49679 24.3611 4.34805 24.1804 4.34805C24 4.34805 23.8537 4.49679 23.8537 4.68028V5.52754H20.0021V4.68028C20.0021 4.49679 19.8561 4.34805 19.6754 4.34805C19.4949 4.34805 19.3486 4.49679 19.3486 4.68028V5.52754H15.497V4.68028C15.497 4.49679 15.351 4.34805 15.1703 4.34805C14.9898 4.34805 14.8436 4.49679 14.8436 4.68028V5.52754H13.9889V2.37593C13.9889 1.44896 13.2473 0.694824 12.3356 0.694824L2.16696 0.695056C1.25509 0.695056 0.513428 1.44919 0.513428 2.37617V21.3189C0.513428 22.2459 1.25509 23 2.16673 23H12.3354C13.247 23 13.9887 22.2459 13.9887 21.3189V19.3443H25.4995C26.4918 19.3443 27.2989 18.5236 27.2989 17.5149V5.85967C27.2989 5.67618 27.1526 5.52744 26.9721 5.52744L26.9721 5.52754ZM6.77535 2.15607H7.72893C7.90939 2.15607 8.05567 2.30481 8.05567 2.4883C8.05567 2.6718 7.90962 2.82054 7.72893 2.82054H6.77535C6.59489 2.82054 6.44861 2.6718 6.44861 2.4883C6.44861 2.30481 6.59489 2.15607 6.77535 2.15607ZM7.74124 21.9096H6.76287C6.38395 21.9096 6.07545 21.5959 6.07545 21.2106C6.07545 20.814 6.38396 20.5005 6.76287 20.5005H7.74124C8.12015 20.5005 8.42865 20.8137 8.42865 21.1992C8.42865 21.5961 8.12014 21.9096 7.74124 21.9096ZM13.3361 5.85944V19.4114L1.16734 19.4116V4.28319H13.3361V5.85944ZM13.9894 10.8659H16.197V11.7854H13.9894V10.8659ZM13.9894 12.4499H16.197V13.3692H13.9894V12.4499ZM13.9894 14.0334H16.197V14.953H13.9894V14.0334ZM13.9894 15.6172H16.197V16.5365H13.9894V15.6172ZM26.6458 17.5147C26.6458 18.1572 26.132 18.6799 25.4999 18.6799H13.9897V17.2008H25.1073C25.2878 17.2008 25.4341 17.0523 25.4341 16.8685V12.1176L25.4336 10.5336C25.4336 10.3501 25.2876 10.2013 25.1069 10.2013H13.9892V8.72065L26.6456 8.72088L26.6458 17.5147ZM19.0582 12.4498V13.3692H16.8506V12.4498H19.0582ZM16.8506 11.7854V10.8658H19.0582V11.7854H16.8506ZM19.0582 14.0334V14.9529H16.8506V14.0334H19.0582ZM19.0582 15.6172V16.5365H16.8506V15.6172H19.0582ZM21.9194 12.4498V13.3692H19.7117L19.7115 12.4498H21.9194ZM19.7115 11.7854V10.8658H21.9191V11.7854H19.7115ZM21.9194 14.0334V14.9529H19.7117V14.0334H21.9194ZM21.9194 15.6172V16.5365H19.7117V15.6172H21.9194ZM24.7803 12.4498V13.3692H22.5726V12.4498H24.7803ZM22.5726 11.7854V10.8658H24.7803V11.7854H22.5726ZM24.7803 14.0334V14.9529H22.5726V14.0334H24.7803ZM24.7803 15.6172V16.5365H22.5726V15.6172H24.7803Z" fill="#FDC637"/>
</svg>
