<svg width="27" height="27" viewBox="0 0 27 27" fill="none" xmlns="http://www.w3.org/2000/svg">
<path d="M14.6644 0.963623C10.1281 0.963623 6.18736 3.34742 4.08936 6.85474C5.02495 6.88207 5.90385 7.26567 6.52758 7.89601C8.22877 5.26546 11.234 3.53937 14.6361 3.53937C19.9378 3.53937 24.2189 7.7043 24.2189 12.8007C24.2189 16.1163 22.4044 19.0481 19.6825 20.6647C20.1645 21.1032 20.5046 21.6511 20.6749 22.2539C20.7317 22.5005 20.76 22.7746 20.7883 23.0211C24.4455 20.9661 26.8838 17.1574 26.8838 12.8007C26.9406 6.27942 21.4404 0.963721 14.6644 0.963721L14.6644 0.963623Z" fill="#FDC637"/>
<path d="M19.6543 9.32088C19.1441 8.82777 18.2935 8.82777 17.7548 9.32088L13.899 13.0474L12.1128 11.3211C11.6026 10.828 10.752 10.828 10.2132 11.3211C9.70301 11.8142 9.70301 12.6362 10.2132 13.1569L12.9633 15.8148C13.2184 16.0613 13.5588 16.1984 13.8989 16.1984C14.239 16.1984 14.5794 16.0613 14.8345 15.8148L19.6542 11.1567C20.1646 10.6361 20.1646 9.84154 19.6542 9.32088H19.6543Z" fill="#FDC637"/>
<path d="M17.8681 22.0621L14.069 20.1714C13.5303 19.8973 12.8783 20.0343 12.5097 20.5001L11.1204 22.2264C9.75956 21.514 8.73891 20.8564 7.54815 19.7056C6.27239 18.4726 5.59185 17.4586 4.91157 16.1983L6.66931 14.8556C7.15126 14.4994 7.29304 13.8692 7.00946 13.3485L5.05316 9.70427C4.71301 9.07411 3.8624 8.85491 3.23867 9.26582L0.828697 10.8277C0.261718 11.184 -0.0501474 11.8142 0.00660616 12.4719C0.0633647 13.1295 0.148404 13.979 0.290202 14.5543C0.998988 17.13 2.69997 19.8426 5.05314 22.1168C7.43461 24.3911 10.2131 26.035 12.9065 26.72C13.502 26.8844 14.3808 26.9666 15.0612 26.9941C15.7416 27.0489 16.3937 26.72 16.7623 26.172L18.3217 23.8156C18.7469 23.2128 18.5201 22.3909 17.8681 22.0619L17.8681 22.0621Z" fill="#FDC637"/>
</svg>
