<svg width="29" height="31" viewBox="0 0 29 31" fill="none" xmlns="http://www.w3.org/2000/svg">
<path d="M16.377 17.7206L16.4501 17.5499V17.4914C16.4793 17.3597 16.5086 17.2281 16.533 17.0916C16.6216 16.6191 16.6658 16.1392 16.6647 15.6585C16.6658 13.1037 15.4444 10.7025 13.3788 9.19894C13.3157 9.23833 13.2554 9.2823 13.1984 9.33061C12.5318 9.86534 12.0341 10.5813 11.7653 11.3927C11.7653 11.456 11.7311 11.5146 11.7117 11.5829L11.7115 11.5827C12.4584 12.1479 13.0354 12.9074 13.3793 13.7784C13.7231 14.6494 13.8208 15.5983 13.6615 16.5212C13.6176 16.7632 13.5588 17.0026 13.4861 17.2376C13.393 17.514 13.2757 17.7817 13.1351 18.0373C13.0674 18.1763 12.989 18.31 12.9011 18.4371C12.8426 18.5248 12.784 18.6029 12.7257 18.6856H12.7255C12.6141 18.8432 12.4902 18.9914 12.3551 19.1293C12.1873 19.3052 12.0064 19.4682 11.8141 19.6168C11.7444 19.6817 11.6693 19.7405 11.5897 19.7923C11.49 19.8667 11.3857 19.935 11.2778 19.997L11.2047 20.0458L11.2826 19.997C11.2443 20.0275 11.2016 20.0523 11.1559 20.0702C10.394 20.51 9.52974 20.742 8.65007 20.7429C6.97256 20.7448 5.40142 19.9218 4.44798 18.5415C3.49477 17.1613 3.28127 15.4004 3.87713 13.8323C4.473 12.2643 5.8019 11.0895 7.43132 10.6906C7.45069 10.5746 7.48007 10.4603 7.51902 10.3493C7.78475 9.36646 8.22938 8.4411 8.83048 7.61931C8.77041 7.61453 8.71013 7.61453 8.65006 7.61931C5.96034 7.62301 3.45142 8.97406 1.96825 11.2177C0.48463 13.4613 0.223887 16.2988 1.27354 18.7753C2.3232 21.2518 4.54392 23.0375 7.18762 23.5315V25.1304H4.97927V28.0554H7.18762V30.2248H10.1126V28.0359H12.3016V25.1109H10.1126V23.5021C11.9984 23.158 13.6983 22.1498 14.9047 20.66C14.9826 20.5577 15.0706 20.4454 15.1437 20.3384L15.1728 20.2994C15.72 19.5484 16.1265 18.7044 16.3722 17.8081L16.377 17.7206Z" fill="#FDC637"/>
<path d="M25.4886 9.12602L28.4136 8.86268L27.7407 1.63319L20.5112 0.975098L20.2478 3.9001L23.1728 4.16344L20.8866 6.42053C19.3477 5.20463 17.4164 4.59567 15.4586 4.70882C13.5007 4.82198 11.6524 5.64967 10.2639 7.03467C10.0534 7.23772 9.85626 7.45427 9.67409 7.68302C8.99705 8.52938 8.49952 9.50482 8.21159 10.5497C8.1376 10.7993 8.07905 11.0533 8.03618 11.3101C7.95566 11.7754 7.91474 12.2467 7.91431 12.719C7.91431 15.2736 9.13306 17.675 11.1952 19.183C11.2609 19.1414 11.3229 19.094 11.3804 19.0415C12.0463 18.5092 12.5425 17.7943 12.8087 16.9845C12.8087 16.9211 12.8429 16.8626 12.8673 16.7942C11.5845 15.8321 10.8296 14.3221 10.8296 12.7189C10.8389 12.1841 10.926 11.6538 11.0879 11.144C11.3989 10.1997 11.9763 9.36508 12.7502 8.74069C13.6597 8.0164 14.7857 7.61816 15.9483 7.60963C17.6258 7.60767 19.1969 8.43075 20.1504 9.81102C21.1036 11.1912 21.3171 12.9521 20.7212 14.5202C20.1254 16.0884 18.7965 17.263 17.167 17.6619C17.1427 17.779 17.1085 17.8959 17.0793 18.008V18.0082C16.8103 18.989 16.3642 19.9127 15.7631 20.7332C15.8247 20.7382 15.8867 20.7382 15.9483 20.7332C17.8421 20.7293 19.6731 20.0544 21.1167 18.8284C22.56 17.6025 23.5224 15.9047 23.8328 14.0365C24.1433 12.1684 23.7816 10.2506 22.8123 8.62379L25.2498 6.18629L25.4886 9.12602Z" fill="#FDC637"/>
</svg>
