<svg width="28" height="23" viewBox="0 0 28 23" fill="none" xmlns="http://www.w3.org/2000/svg">
<path d="M26.8495 10.2016L10.6287 0.84801C10.3919 0.7297 10.0368 0.7297 9.82949 0.84801L0.179893 6.47201C-0.027407 6.59032 -0.027407 6.79762 0.179893 6.94566L16.3711 16.2993C16.6079 16.4176 16.963 16.4176 17.1703 16.2993L26.8199 10.6753C27.0568 10.5272 27.0568 10.3199 26.8495 10.2016H26.8495ZM18.3839 14.1087C18.2952 14.0199 18.1766 13.9311 18.0583 13.8719C17.2295 13.3982 15.8976 13.3982 15.0688 13.8719C15.0095 13.9014 14.9505 13.9607 14.8912 13.9902L3.99842 7.68539C4.11673 7.65586 4.20572 7.5966 4.29451 7.53735C5.1233 7.0637 5.1233 6.29415 4.29451 5.82055C4.20572 5.76129 4.11694 5.73176 3.99842 5.6725L8.49767 3.06765C8.55693 3.12691 8.64571 3.18596 8.7345 3.24522C9.5633 3.71887 10.8952 3.71887 11.724 3.24522C11.8128 3.18596 11.9016 3.12691 11.9609 3.06765L22.9129 9.40205C22.7648 9.46131 22.6168 9.52036 22.4985 9.57962C21.6697 10.0533 21.6697 10.8228 22.4985 11.2964C22.6168 11.3852 22.7648 11.4445 22.9129 11.474L18.3839 14.1087ZM19.7161 11.7407L19.0057 12.155C18.8873 12.2143 18.7096 12.2143 18.6208 12.155L17.3481 11.415C17.2298 11.3558 17.2298 11.2375 17.3481 11.1782L18.0585 10.7638C18.1769 10.7046 18.3546 10.7046 18.4434 10.7638L19.7161 11.5038C19.8344 11.5631 19.8344 11.6816 19.7161 11.7407ZM9.6521 5.93905L8.94165 6.35344C8.82334 6.4127 8.64557 6.4127 8.55679 6.35344L7.28409 5.61344C7.16578 5.55418 7.16578 5.43587 7.28409 5.37661L7.99455 4.96222C8.11286 4.90297 8.29063 4.90297 8.37941 4.96222L9.62261 5.67268C9.77065 5.76146 9.77065 5.87977 9.65214 5.93903L9.6521 5.93905ZM25.7545 13.0727L27.0272 13.8127L16.8744 19.6735L16.5488 19.4959L15.6312 18.9632L0.00244141 9.93519L1.24564 9.19519L16.8744 18.2232L25.7545 13.0727ZM15.6313 22.1303L0.00250472 13.0727L1.2457 12.3327L16.9041 21.3903L25.7545 16.2398L27.0272 16.9798L16.904 22.8406L16.5784 22.663L15.6313 22.1303ZM16.7265 6.70865C14.9503 5.67255 12.0497 5.67255 10.2737 6.70865C8.49755 7.74476 8.5273 9.4023 10.3032 10.4382C12.0793 11.4743 14.98 11.4743 16.756 10.4382C18.5025 9.4023 18.5025 7.715 16.7265 6.70865ZM12.9969 9.1062H11.7537V7.68524H12.9969V8.39569H15.8681V9.13569L12.9969 9.1062Z" fill="#FDC637"/>
</svg>
