<svg width="17" height="18" viewBox="0 0 17 18" fill="none" xmlns="http://www.w3.org/2000/svg">
<path d="M16.9131 8.23441L15.7758 6.56757L15.8983 4.5545C15.9106 4.35195 15.7992 4.16214 15.6167 4.07431L13.8037 3.20236L12.9333 1.38595C12.8445 1.20053 12.6511 1.08863 12.4465 1.10436L10.4447 1.25715L8.78614 0.0905906C8.61441 -0.0301969 8.38558 -0.0301969 8.21385 0.0905906L6.55525 1.25712L4.55346 1.10433C4.34907 1.08859 4.15546 1.2005 4.06664 1.38592L3.19629 3.20232L1.38329 4.07428C1.19822 4.1633 1.08659 4.35694 1.1022 4.56202L1.2547 6.56757L0.0903956 8.22932C-0.0301319 8.40137 -0.0301319 8.63067 0.0903956 8.80272L1.25473 10.4644L1.10223 12.47C1.08662 12.6751 1.19825 12.8687 1.38333 12.9577L3.19632 13.8297L4.06664 15.6461C4.15549 15.8315 4.3486 15.9434 4.55346 15.9277L6.55525 15.7749L8.21385 16.9414C8.29971 17.0018 8.39985 17.032 8.49999 17.032C8.60013 17.032 8.70028 17.0018 8.78614 16.9414L10.4447 15.7749L12.4465 15.9277C12.6508 15.9433 12.8445 15.8315 12.9333 15.6461L13.8037 13.8297L15.6167 12.9577C15.8017 12.8687 15.9134 12.6751 15.8978 12.47L15.7453 10.4644L16.9096 8.80272C17.0288 8.6325 17.0303 8.40606 16.9131 8.23441Z" fill="url(#paint0_linear_2_1786)"/>
<path d="M8.5 3.02716C5.47915 3.02716 3.02148 5.48946 3.02148 8.51601C3.02148 11.5426 5.47915 14.0049 8.5 14.0049C11.5209 14.0049 13.9785 11.5426 13.9785 8.51601C13.9785 5.48946 11.5209 3.02716 8.5 3.02716ZM10.8487 8.39329L10.0281 9.23588L10.2228 10.4316C10.2535 10.6202 10.174 10.8098 10.018 10.9199C9.86299 11.0293 9.65803 11.0416 9.49025 10.9486L8.5 10.4002L7.50972 10.9487C7.34284 11.0411 7.13784 11.0299 6.98192 10.9199C6.826 10.8098 6.74648 10.6202 6.77719 10.4316L6.97186 9.23591L6.15131 8.39332C6.02096 8.25946 5.97626 8.06379 6.03553 7.88645C6.09477 7.70908 6.24803 7.57984 6.43257 7.5516L7.54644 7.38108L8.04914 6.30806C8.13118 6.13292 8.30689 6.02108 8.5 6.02108C8.69311 6.02108 8.86879 6.13292 8.95087 6.30803L9.45356 7.38105L10.5674 7.55157C10.752 7.57981 10.9052 7.70908 10.9645 7.88642C11.0237 8.06379 10.979 8.25943 10.8487 8.39329Z" fill="url(#paint1_linear_2_1786)"/>
<defs>
<linearGradient id="paint0_linear_2_1786" x1="8.49999" y1="17.032" x2="8.49999" y2="8.12149e-06" gradientUnits="userSpaceOnUse">
<stop stop-color="#A77E13"/>
<stop offset="1" stop-color="#F6C034"/>
</linearGradient>
<linearGradient id="paint1_linear_2_1786" x1="8.5" y1="14.0049" x2="8.5" y2="3.02716" gradientUnits="userSpaceOnUse">
<stop stop-color="white"/>
<stop offset="0.9973" stop-color="#FFF1E0"/>
</linearGradient>
</defs>
</svg>
