<svg width="585" height="62" viewBox="0 0 585 62" fill="none" xmlns="http://www.w3.org/2000/svg">
<g opacity="0.05">
<mask id="mask0_2_1266" style="mask-type:alpha" maskUnits="userSpaceOnUse" x="0" y="0" width="585" height="62">
<rect width="585" height="62" fill="#C0C0C0"/>
</mask>
<g mask="url(#mask0_2_1266)">
<g opacity="0.9">
<g opacity="0.9">
<path opacity="0.9" d="M-34.2969 -273.757C6.97736 -263.316 43.2299 -233.759 59.2902 -193.913C74.8529 -155.364 72.5155 -112.711 81.6842 -72.6679C90.6145 -33.1198 113.203 2.00882 145.473 26.5338C164.127 40.5352 185.375 50.3875 205.703 61.6278C224.792 72.0834 242.648 84.6497 258.936 99.0906C274.85 113.313 289.092 129.303 301.386 146.753C307.418 155.338 312.802 164.285 317.974 173.398C322.845 181.967 328.696 190.914 338.604 194.022C342.695 195.394 347.138 195.277 351.151 193.691C351.362 193.6 351.271 193.238 351.045 193.328C339.569 198.051 328.726 189.33 322.619 180.308C319.603 175.781 317.145 171.074 314.431 166.427C311.716 161.78 308.926 157.374 305.971 152.848C294.569 135.679 281.314 119.817 266.446 105.548C251.38 91.0634 234.738 78.315 216.832 67.5422C197.092 55.6984 175.965 46.2685 156.617 33.7608C120.938 10.8119 95.0172 -24.5441 83.8557 -65.4862C73.2997 -105.167 75.7728 -147.412 62.4571 -186.475C55.9898 -205.666 45.1479 -223.089 30.7888 -237.365C16.377 -251.635 -0.912926 -262.664 -19.9256 -269.713C-24.5979 -271.428 -29.3542 -272.903 -34.1763 -274.134C-34.4175 -274.134 -34.508 -273.817 -34.2818 -273.757H-34.2969Z" fill="#C0C0C0"/>
<path opacity="0.9" d="M-34.5081 -263.528C4.32312 -253.992 39.1431 -227.317 55.9725 -190.669C74.2797 -150.868 71.309 -105.65 82.3325 -63.9322C93.0878 -23.6628 118.37 11.1939 153.299 33.9116C172.225 46.2534 192.93 55.4418 212.383 66.8632C229.715 77.0225 245.874 89.0651 260.564 102.772C275.03 116.287 287.994 131.326 299.23 147.628C304.915 155.881 309.786 164.526 314.913 173.186C319.437 180.987 325.152 188.772 334.155 191.624C337.989 192.921 342.152 192.862 345.948 191.458C346.204 191.367 346.099 190.945 345.827 191.035C335.09 195.154 324.866 187.203 319.015 178.844C313.375 170.802 309.077 161.825 303.724 153.572C282.605 121.059 254.854 93.3816 222.291 72.3551C203.652 60.285 183.399 51.2323 164.263 40.0674C145.955 29.3853 129.367 16.4552 115.795 0.175507C101.935 -16.4466 91.4585 -35.6211 84.9564 -56.2676C72.063 -97.6231 75.4258 -142.615 59.6219 -183.201C45.6426 -219.14 15.3919 -246.946 -20.7551 -259.861C-25.2059 -261.457 -29.7359 -262.821 -34.3272 -263.95C-34.5986 -263.95 -34.7193 -263.588 -34.4478 -263.528H-34.5081Z" fill="#C0C0C0"/>
<path opacity="0.9" d="M-34.704 -253.283C3.31291 -244.23 37.5297 -218.581 54.4948 -183.065C72.9679 -144.395 70.6757 -100.158 81.9707 -59.4813C93.0595 -20.1579 118.308 13.6653 152.847 35.4656C171.29 47.1888 191.347 56.0453 210.152 67.0593C227.007 76.9193 242.73 88.6018 257.036 101.897C271.341 115.183 284.155 129.991 295.249 146.059C300.723 153.995 305.518 162.293 310.329 170.636C314.777 178.271 320.221 185.981 328.892 189.059C332.652 190.495 336.794 190.58 340.61 189.3C340.911 189.194 340.791 188.712 340.474 188.817C330.023 192.514 320.206 184.547 314.596 176.475C308.987 168.404 304.794 159.653 299.516 151.505C278.808 119.771 251.621 92.781 219.743 72.3098C201.646 60.7527 182.148 51.9414 163.584 41.3197C145.639 31.0751 129.292 18.6881 115.78 2.92142C101.839 -13.3019 91.2448 -32.126 84.6098 -52.4656C71.5956 -92.5536 74.1894 -136.263 58.3251 -175.581C44.1951 -210.645 14.3214 -237.547 -21.2073 -249.888C-25.593 -251.405 -30.0523 -252.699 -34.5683 -253.766C-34.885 -253.841 -35.0207 -253.358 -34.704 -253.283Z" fill="#C0C0C0"/>
<path opacity="0.9" d="M-34.9152 -243.038C2.13657 -234.65 35.6898 -210.087 52.8208 -175.808C71.4749 -138.556 70.0121 -95.5862 81.277 -56.162C92.3596 -17.8367 117.189 15.0482 151.007 36.1899C169.194 47.6716 188.979 56.3018 207.573 67.0895C224.134 76.6934 239.585 88.0985 253.643 101.097C267.584 113.992 280.084 128.364 290.921 143.961C296.349 151.777 301.13 159.924 305.895 168.102C310.283 175.646 315.561 183.401 324.097 186.614C327.693 188.067 331.676 188.253 335.392 187.142C335.739 187.022 335.603 186.479 335.241 186.584C325.062 189.858 315.637 181.892 310.298 174.107C304.96 166.321 300.617 157.51 295.354 149.438C285.236 134.006 273.519 119.684 260.398 106.71C247.281 93.729 232.824 82.1776 217.269 72.2495C199.399 60.8432 179.991 52.213 161.563 41.7723C144.025 31.8295 128.01 19.7744 114.725 4.52074C101.139 -11.0517 90.7431 -29.1422 84.1271 -48.7238C71.0526 -87.6652 72.9075 -130.197 56.8321 -168.354C42.5965 -202.256 13.2506 -228.087 -21.4336 -239.84C-25.8037 -241.324 -30.2483 -242.578 -34.7494 -243.597C-35.1113 -243.597 -35.2621 -243.114 -34.9002 -243.038H-34.9152Z" fill="#C0C0C0"/>
<path opacity="0.9" d="M-35.1264 -232.794C1.48814 -224.828 34.6795 -200.944 51.8105 -167.343C70.2082 -131.269 69.4692 -89.5663 81.0206 -51.3943C86.7094 -32.5423 95.9202 -14.9408 108.165 0.477219C120.091 15.3019 134.513 27.9289 150.781 37.7892C168.651 48.7428 187.954 57.0863 206.065 67.6024C222.247 77.0113 237.339 88.184 251.064 100.916C264.601 113.499 276.736 127.511 287.256 142.709C292.549 150.343 297.179 158.325 301.854 166.336C306.076 173.594 311.158 180.926 319.256 184.155C322.692 185.64 326.526 185.927 330.144 184.97C330.216 184.939 330.274 184.884 330.308 184.813C330.341 184.742 330.347 184.662 330.324 184.587C330.302 184.512 330.253 184.448 330.186 184.407C330.119 184.366 330.04 184.352 329.963 184.366C320.04 187.203 311.098 179.221 305.925 171.662C300.753 164.103 296.651 155.745 291.614 148.035C271.806 117.782 245.815 92.071 215.354 72.5965C197.937 61.4769 179.041 53.073 161.066 43.0699C143.739 33.4741 127.784 21.8716 114.514 7.0555C101.132 -7.87013 90.799 -25.2714 84.097 -44.1673C70.736 -81.8866 71.8972 -123.287 55.9122 -160.192C41.4957 -193.385 12.4363 -218.596 -21.8559 -229.837C-26.1758 -231.251 -30.5647 -232.444 -35.0057 -233.412C-35.3978 -233.503 -35.5637 -232.884 -35.1716 -232.794H-35.1264Z" fill="#C0C0C0"/>
<path opacity="0.9" d="M-35.3374 -222.58C0.357216 -215.141 32.8548 -192.404 50.1819 -160.086C68.836 -125.219 68.7907 -84.4969 80.523 -47.3962C86.2786 -29.0641 95.4475 -11.9864 107.547 2.93645C119.379 17.246 133.592 29.4042 149.56 38.8754C167.219 49.4368 186.235 57.6294 204.059 67.9494C235.439 86.178 262.447 111.062 283.185 140.853C288.417 148.397 293.002 156.213 297.601 164.118C301.733 171.21 306.649 178.392 314.461 181.711C317.764 183.225 321.472 183.612 325.017 182.812C325.454 182.707 325.258 182.028 324.836 182.133C315.185 184.532 306.74 176.596 301.718 169.294C296.696 161.991 292.564 153.587 287.573 145.983C277.963 131.364 266.843 117.796 254.397 105.503C241.805 93.052 227.917 81.9851 212.972 72.4908C196.052 61.7333 177.699 53.6161 160.116 44.0504C142.94 34.7413 127.105 23.5613 113.88 9.18272C100.657 -5.22546 90.3807 -22.0834 83.6295 -40.4407C70.2384 -76.8926 70.6456 -117.116 54.5702 -152.739C39.9877 -185.056 11.2752 -209.272 -22.3383 -219.909C-26.5315 -221.233 -30.7897 -222.34 -35.0961 -223.228C-35.5334 -223.319 -35.7295 -222.655 -35.2922 -222.564L-35.3374 -222.58Z" fill="#C0C0C0"/>
<path opacity="0.9" d="M-35.5336 -212.32C-0.698517 -205.44 31.2411 -183.804 48.6738 -152.588C67.4485 -118.942 68.1573 -79.3519 80.0555 -43.3526C85.8611 -25.6053 94.9686 -9.11649 106.898 5.24493C118.571 19.0085 132.497 30.6867 148.082 39.7807C165.499 50.1007 184.274 57.9765 201.767 68.1004C217.095 76.9447 231.398 87.4595 244.414 99.4526C257.377 111.362 269.007 124.647 279.098 139.073C284.104 146.255 288.553 153.738 292.926 161.312C297.119 168.554 302.05 176.038 310.042 179.418C313.046 180.793 316.4 181.209 319.648 180.609C320.131 180.504 319.92 179.765 319.452 179.87C309.982 181.832 301.854 173.745 297.088 166.608C292.323 159.472 288.327 151.52 283.516 144.233C264.566 115.449 239.731 91.0127 210.649 72.5362C193.805 61.9295 175.558 53.933 158.02 44.473C141.432 35.5562 126.05 24.8589 113.111 11.0839C100.109 -2.76863 89.9399 -19.0316 83.177 -36.7894C69.7105 -72.0947 69.424 -111.232 53.1224 -145.617C38.3288 -176.803 10.0084 -199.948 -22.9417 -209.981C-27.0133 -211.203 -31.1603 -212.229 -35.3375 -212.999C-35.8201 -213.104 -36.0161 -212.365 -35.5336 -212.275V-212.32Z" fill="#C0C0C0"/>
<path opacity="0.9" d="M-35.7447 -202.075C-1.49778 -195.693 30.0046 -174.917 47.4975 -144.485C66.1666 -112.077 67.5389 -73.7392 79.6935 -38.9771C85.6077 -21.7735 94.7261 -5.84669 106.566 7.96077C118.388 21.4154 132.405 32.7664 148.021 41.5309C164.926 51.2173 182.962 58.7611 199.837 68.4776C214.722 77.0485 228.615 87.2393 241.262 98.8643C253.872 110.427 265.188 123.328 275.011 137.338C279.942 144.369 284.3 151.701 288.583 159.125C292.67 166.186 297.42 173.503 305.171 177.004C308.023 178.414 311.232 178.94 314.385 178.512C314.913 178.422 314.687 177.637 314.174 177.713C305.02 179.221 297.33 171.195 292.76 164.315C287.965 157.088 284.044 149.318 279.188 142.076C269.922 128.096 259.2 115.139 247.203 103.421C235.369 91.8397 222.349 81.5382 208.357 72.6871C192.161 62.4727 174.623 54.793 157.703 45.9215C141.311 37.3366 126.035 27.1222 112.99 13.7998C100.094 0.542679 89.915 -15.1106 83.0262 -32.2782C69.3033 -66.4367 68.3533 -104.533 51.9612 -137.787C36.9866 -168.173 8.98289 -190.594 -23.4393 -199.978C-27.4205 -201.14 -31.477 -202.075 -35.5034 -202.845C-36.0312 -202.935 -36.2574 -202.136 -35.7296 -202.045L-35.7447 -202.075Z" fill="#C0C0C0"/>
<path opacity="0.9" d="M-35.9557 -191.831C-2.4929 -185.992 28.4515 -166.182 46.065 -136.866C64.7945 -105.74 66.9661 -68.6245 79.2413 -35.0393C85.2209 -18.4029 94.2871 -3.04605 105.963 10.2239C117.45 22.972 130.962 33.7336 145.956 42.0741C162.544 51.5039 180.323 58.7913 196.941 68.2362C211.598 76.5717 225.284 86.5101 237.748 97.8684C249.963 109.032 260.94 121.481 270.487 134.999C275.283 141.759 279.535 148.805 283.727 155.986C287.92 163.168 292.233 170.214 299.471 174.227C302.346 175.91 305.666 176.674 308.987 176.415C309.545 176.415 309.545 175.465 308.987 175.525C300.225 176.506 293.017 168.932 288.613 162.308C283.908 155.277 280.093 147.688 275.418 140.627C257.414 113.399 233.849 90.2957 206.276 72.8379C190.321 62.7744 173.1 55.2758 156.286 46.6608C140.376 38.438 125.386 28.7818 112.629 16.1081C99.8207 3.35802 89.649 -11.7919 82.6946 -28.4761C68.8963 -61.4578 67.2375 -98.3775 50.7248 -130.363C35.6447 -159.694 8.07825 -181.088 -23.59 -189.96C-27.5632 -191.071 -31.5896 -191.983 -35.6541 -192.691C-36.212 -192.796 -36.4533 -191.936 -35.8953 -191.831H-35.9557Z" fill="#C0C0C0"/>
<path opacity="0.9" d="M-36.1669 -181.586C-3.5788 -176.29 26.7171 -157.582 44.4815 -129.518C63.407 -99.6297 66.3175 -63.6153 78.6681 -31.1012C84.6823 -15.041 93.66 -0.254898 105.134 12.4872C116.514 24.7568 129.818 35.0867 144.523 43.07C160.689 52.0321 177.85 59.0177 193.971 68.0552C208.252 76.0678 221.604 85.6363 233.782 96.5861C245.863 107.446 256.73 119.588 266.189 132.797C270.857 139.384 275.19 146.202 279.173 153.225C283.215 160.256 287.558 167.695 294.856 171.783C297.519 173.402 300.594 174.215 303.708 174.122C304.327 174.122 304.327 173.141 303.708 173.171C295.053 173.684 288.206 165.899 283.938 159.321C279.414 152.29 275.524 144.837 270.864 137.866C262.047 124.724 251.872 112.547 240.508 101.535C229.157 90.5366 216.671 80.7754 203.26 72.4156C187.727 62.7443 170.928 55.5475 154.627 47.3096C139.154 39.4791 124.466 30.2605 111.98 18.1601C99.5381 6.11142 89.547 -8.23474 82.5587 -24.0854C68.4287 -56.0865 66.1818 -92.1914 49.3825 -123.151C33.8802 -151.501 6.69075 -171.885 -24.3592 -180.077C-28.1594 -181.073 -32.0199 -181.888 -35.9106 -182.506C-36.5138 -182.612 -36.7701 -181.692 -36.1669 -181.586Z" fill="#C0C0C0"/>
<path opacity="0.9" d="M-36.3629 -171.281C-4.48352 -166.483 25.2997 -148.65 43.1847 -121.643C62.1404 -92.9761 65.7294 -58.1536 78.2761 -26.8014C84.3387 -11.3993 93.2166 2.7377 104.455 14.886C115.745 26.683 128.862 36.5817 143.301 44.2014C159.121 52.7713 175.875 59.5004 191.558 68.2513C205.491 75.9479 218.521 85.1785 230.404 95.7712C242.163 106.265 252.746 118.007 261.967 130.79C266.555 137.185 270.803 143.818 274.694 150.66C278.615 157.48 282.702 164.692 289.518 169.052C292.184 170.902 295.324 171.949 298.566 172.07C298.685 172.049 298.793 171.987 298.871 171.895C298.949 171.802 298.991 171.685 298.991 171.564C298.991 171.443 298.949 171.327 298.871 171.234C298.793 171.142 298.685 171.08 298.566 171.059C290.016 171.059 283.486 163.093 279.399 156.545C275.071 149.71 271.286 142.573 266.762 135.859C249.458 110.187 226.891 88.4933 200.561 72.2193C185.481 62.9102 169.164 56 153.315 48.079C138.069 40.5351 123.577 31.6484 111.09 19.9404C98.8255 8.32693 88.9398 -5.56616 81.9858 -20.9624C67.9915 -51.7263 64.9754 -86.5035 47.9651 -116.015C32.3119 -143.067 5.71064 -162.38 -24.4496 -169.999C-28.2935 -170.974 -32.1841 -171.754 -36.1065 -172.337C-36.7549 -172.428 -37.0264 -171.447 -36.3779 -171.357L-36.3629 -171.281Z" fill="#C0C0C0"/>
<path opacity="0.9" d="M-36.5137 -161.112C-5.32801 -156.842 23.9726 -139.989 41.9029 -113.918C60.8133 -86.5638 65.1413 -53.0841 77.7785 -22.9389C83.9401 -7.93076 92.8725 5.78165 104.108 17.4811C115.322 28.7238 128.232 38.1327 142.367 45.3632C158.02 53.5257 174.442 60.0587 189.884 68.6134C203.329 76.1073 215.907 85.0633 227.388 95.3187C238.788 105.499 249.057 116.881 258.016 129.266C262.475 135.484 266.607 141.93 270.397 148.578C274.257 155.277 278.238 162.308 284.828 166.684C287.291 168.444 290.171 169.531 293.183 169.837C293.876 169.837 293.876 168.796 293.183 168.751C284.889 168.177 278.811 160.301 274.8 153.844C270.623 147.16 266.898 140.265 262.465 133.717C254.056 121.336 244.366 109.876 233.556 99.5281C222.825 89.258 211.037 80.1545 198.389 72.3702C183.716 63.3176 167.882 56.6337 152.395 49.1804C137.466 41.9836 123.17 33.6099 110.819 22.445C98.5734 11.328 88.6374 -2.09419 81.5786 -17.0547C67.5391 -46.5813 63.8294 -80.1062 46.7888 -108.35C38.8294 -121.312 28.3738 -132.56 16.0301 -141.442C3.68637 -150.323 -10.2991 -156.661 -25.1131 -160.086C-28.8077 -160.961 -32.5325 -161.595 -36.2875 -162.153C-36.9661 -162.244 -37.2677 -161.203 -36.574 -161.112H-36.5137Z" fill="#C0C0C0"/>
<path opacity="0.9" d="M-36.6344 -150.852C-5.97651 -147.081 22.9321 -130.861 40.998 -105.589C59.7426 -79.4121 64.7341 -47.1395 77.5974 -18.2013C83.8312 -3.89233 92.6962 9.11763 103.731 20.1517C114.869 30.8448 127.584 39.7602 141.432 46.5854C156.512 54.2801 172.391 60.451 187.275 68.6285C200.324 75.8061 212.538 84.4083 223.694 94.2776C234.862 104.128 244.925 115.167 253.703 127.199C258.006 133.12 261.993 139.264 265.646 145.606C269.416 152.124 273.186 159.004 279.218 163.711C281.673 165.756 284.612 167.133 287.754 167.71C288.478 167.815 288.794 166.714 288.07 166.608C280.214 165.461 274.498 158.144 270.668 151.867C266.581 145.319 262.932 138.56 258.604 132.163C250.408 120.074 240.955 108.887 230.404 98.7889C219.941 88.7918 208.446 79.9358 196.112 72.3703C181.831 63.6194 166.419 57.1468 151.294 50.0405C136.787 43.2359 122.793 35.3903 110.578 24.8591C98.5119 14.3688 88.6232 1.60947 81.473 -12.6943C67.0263 -41.361 62.7285 -74.2371 45.1752 -101.501C28.8459 -126.443 3.33714 -143.929 -25.8068 -150.158C-29.3808 -150.943 -33.0001 -151.531 -36.6344 -151.984C-37.3582 -152.075 -37.3582 -150.928 -36.6344 -150.837V-150.852Z" fill="#C0C0C0"/>
<path opacity="0.9" d="M-36.8304 -140.608C-7.0472 -137.379 21.2129 -122.261 39.4297 -98.3623C48.2214 -86.79 54.5098 -73.6335 59.6672 -60.0998C65.3825 -45.0121 70.0423 -29.6227 76.7982 -15.0027C83.0774 -1.07649 91.917 11.5447 102.857 22.2036C113.861 32.4622 126.359 40.9885 139.924 47.4906C154.913 54.9138 170.581 60.8885 185.284 68.9303C197.991 75.8853 209.886 84.2296 220.753 93.81C231.561 103.323 241.304 113.982 249.812 125.6C254.055 131.426 257.991 137.469 261.605 143.705C265.33 150.147 269.024 156.907 274.996 161.584C277.193 163.416 279.768 164.74 282.536 165.462C283.305 165.627 283.622 164.466 282.868 164.285C275.418 162.58 270.201 155.564 266.415 149.423C262.63 143.283 258.875 136.614 254.774 130.473C246.787 118.737 237.576 107.884 227.298 98.0949C217.027 88.3108 205.738 79.6563 193.624 72.2798C179.72 63.8156 164.7 57.5994 149.891 50.8401C135.505 44.2619 121.586 36.7331 109.447 26.4885C97.6368 16.4947 87.9022 4.27924 80.7944 -9.46547C66.5286 -36.91 61.507 -68.4283 43.818 -94.3339C27.2205 -118.24 1.96301 -134.731 -26.591 -140.306C-29.979 -140.99 -33.3921 -141.493 -36.8304 -141.815C-37.5995 -141.905 -37.5995 -140.683 -36.8304 -140.608Z" fill="#C0C0C0"/>
<path opacity="0.9" d="M-37.0264 -130.363C-22.4967 -129.069 -8.37016 -124.892 4.52888 -118.076C17.4279 -111.261 28.8411 -101.943 38.1027 -90.6677C47.1507 -79.5178 53.605 -66.7084 59.0037 -53.5066C64.8397 -39.2487 69.6653 -24.5684 76.4363 -10.6877C82.7783 2.61958 91.5496 14.6241 102.299 24.7081C113.271 34.4865 125.636 42.5766 138.989 48.7126C153.646 55.7284 168.907 61.4467 183.219 69.2168C195.515 75.9189 207.032 83.9645 217.556 93.2063C228.099 102.446 237.605 112.807 245.907 124.106C249.96 129.664 253.72 135.43 257.171 141.381C260.791 147.613 264.319 154.161 269.854 158.928C271.985 160.878 274.488 162.377 277.213 163.334C277.982 163.591 278.329 162.368 277.545 162.112C270.442 159.803 265.571 152.939 261.861 146.858C258.152 140.778 254.623 134.411 250.536 128.451C242.774 117.148 233.837 106.7 223.874 97.28C213.991 87.9198 203.143 79.6355 191.513 72.5663C177.82 64.253 163.041 58.2028 148.444 51.7C134.51 45.4537 120.923 38.4379 109.009 28.7968C97.3333 19.3139 87.6427 7.6188 80.4928 -5.61823C66.1517 -31.8708 60.4514 -62.0915 42.7926 -86.6392C26.1084 -109.524 1.27529 -125.123 -26.5759 -130.213C-30.0142 -130.846 -33.4675 -131.314 -36.951 -131.721C-37.7653 -131.721 -37.7653 -130.514 -36.951 -130.439L-37.0264 -130.363Z" fill="#C0C0C0"/>
<path opacity="0.9" d="M-37.2225 -120.119C-8.56927 -118.016 18.0831 -104.637 36.8962 -82.9125C45.5814 -72.3447 52.6924 -60.575 58.0084 -47.9694C64.1761 -34.0585 69.2732 -19.68 76.3006 -6.16136C82.811 6.71193 91.7048 18.2317 102.51 27.786C113.318 36.8486 125.356 44.3313 138.265 50.0102C152.365 56.4828 166.917 61.8691 180.625 69.2168C192.495 75.6142 203.621 83.3054 213.801 92.1502C224.031 101 233.265 110.942 241.337 121.798C245.303 127.131 248.983 132.671 252.361 138.394C256.01 144.61 259.418 151.143 264.681 156.182C266.718 158.209 269.091 159.868 271.694 161.086C272.478 161.418 273.202 160.271 272.372 159.924C265.782 157.058 261.273 150.736 257.669 144.836C254.065 138.937 250.581 132.676 246.585 126.852C239.1 115.944 230.481 105.86 220.874 96.767C211.213 87.6077 200.596 79.5144 189.205 72.6267C176.221 64.7961 162.242 59.0477 148.338 53.0126C134.766 47.1888 121.526 40.7765 109.688 31.8898C97.8346 22.9562 87.9091 11.717 80.5079 -1.15224C72.8623 -14.3691 67.539 -28.6571 61.703 -42.6434C56.3043 -55.4227 50.1818 -67.9154 41.752 -79.0048C24.8013 -101.052 0.0943947 -115.812 -27.345 -120.285C-30.6174 -120.828 -33.92 -121.205 -37.2225 -121.462C-38.0821 -121.462 -38.0821 -120.194 -37.2225 -120.119Z" fill="#C0C0C0"/>
<path opacity="0.9" d="M-37.4186 -109.874C-9.55512 -108.302 16.6016 -95.9365 35.5088 -75.3989C44.2727 -65.3962 51.5323 -54.1685 57.0582 -42.0701C63.4069 -28.8382 68.685 -15.1084 75.7425 -2.22349C82.2802 10.0505 91.0692 20.9834 101.65 30.0039C112.195 38.5018 123.868 45.4938 136.334 50.7796C150.193 56.9505 164.489 62.0804 177.91 69.1716C201.192 81.5065 221.465 98.8322 237.281 119.912C241.156 125.069 244.74 130.438 248.018 135.995C251.576 142.03 254.834 148.307 259.675 153.391C261.654 155.563 263.952 157.42 266.491 158.898C267.275 159.336 267.999 158.129 267.199 157.691C261.017 154.221 256.809 148.095 253.25 142.151C249.691 136.206 246.344 130.337 242.438 124.679C235.126 114.121 226.72 104.366 217.36 95.5751C207.981 86.8087 197.694 79.07 186.672 72.4909C173.989 64.947 160.372 59.3797 146.77 53.7218C133.514 48.2148 120.455 42.1948 108.768 33.7758C97.1492 25.354 87.352 14.6691 79.9649 2.36319C72.4249 -10.1898 66.9357 -23.8894 60.8584 -37.1968C55.2637 -49.4329 48.93 -61.3371 40.4399 -71.7627C23.384 -92.6066 -0.829338 -106.336 -27.4658 -110.267C-30.7532 -110.749 -34.0558 -111.086 -37.3734 -111.277C-38.2782 -111.277 -38.2782 -109.935 -37.3734 -109.874H-37.4186Z" fill="#C0C0C0"/>
<path opacity="0.9" d="M-37.6298 -99.6448C-10.5241 -98.5849 15.1554 -87.2146 34.1666 -67.855C43.013 -58.4263 50.4308 -47.7515 56.1836 -36.1708C62.6378 -23.7234 68.0516 -10.7329 75.0639 1.42779C81.6162 13.184 90.3115 23.6083 100.7 32.1615C111.256 40.5653 123.139 46.7664 135.384 52.0169C148.956 57.7653 162.785 62.5783 175.814 69.4734C187.02 75.3631 197.535 82.4831 207.166 90.7018C221.555 102.937 233.837 117.453 243.524 133.672C247.083 139.707 250.31 145.908 254.954 151.158C256.779 153.268 258.844 155.157 261.107 156.786C261.891 157.344 262.615 156.062 261.846 155.519C256.146 151.49 252.195 145.516 248.681 139.586C245.167 133.657 241.97 128.15 238.125 122.688C231.039 112.539 222.901 103.167 213.846 94.7302C204.803 86.2972 194.885 78.8568 184.259 72.5362C171.878 65.1885 158.623 59.8474 145.232 54.5064C132.202 49.2709 119.294 43.6281 107.682 35.6166C96.3331 27.714 86.6912 17.6054 79.3315 5.89375C71.6859 -6.17643 66.0912 -19.3027 59.7274 -32.0368C54.2633 -43.6645 47.3356 -54.5455 39.1129 -64.415C21.8738 -84.1329 -1.96756 -96.8751 -27.9333 -100.248C-31.2057 -100.686 -34.4931 -100.957 -37.8107 -101.093C-38.7457 -101.093 -38.7457 -99.6599 -37.8107 -99.5845L-37.6298 -99.6448Z" fill="#C0C0C0"/>
<path opacity="0.9" d="M-37.8257 -89.4002C-11.4693 -88.879 13.7405 -78.5198 32.8547 -60.3564C41.7563 -51.5552 49.3122 -41.4891 55.2789 -30.4827C61.9744 -18.5483 67.6295 -6.05568 74.7775 5.62221C81.2932 16.6244 89.7671 26.3401 99.7803 34.2889C109.989 42.1647 121.586 47.8678 133.469 52.7562C146.725 58.1878 160.312 62.7745 173.085 69.3527C183.993 74.9735 194.241 81.7952 203.637 89.691C212.944 97.5131 221.378 106.32 228.791 115.959C232.508 120.795 235.956 125.831 239.12 131.046C242.589 136.78 245.68 142.785 249.842 148.065C251.653 150.387 253.672 152.539 255.874 154.493C256.613 155.141 257.699 154.055 256.945 153.406C252.064 148.796 247.946 143.438 244.745 137.534C241.458 131.952 238.216 126.369 234.491 121.058C220.694 101.353 202.848 84.8256 182.148 72.5815C170.265 65.5657 157.507 60.5113 144.659 55.5173C131.81 50.5233 119.219 45.4538 107.712 38.0155C96.4501 30.6797 86.7989 21.1261 79.3467 9.93728C71.6408 -1.46904 65.7746 -14.0069 59.3807 -26.1224C53.6352 -37.4056 46.4415 -47.8896 37.982 -57.3086C20.6269 -75.7559 -2.71099 -87.4388 -27.8728 -90.2753C-31.1603 -90.6525 -34.4779 -90.8637 -37.7956 -90.9241C-37.9697 -90.889 -38.1264 -90.7948 -38.239 -90.6572C-38.3516 -90.5197 -38.4131 -90.3474 -38.4131 -90.1697C-38.4131 -89.9919 -38.3516 -89.8196 -38.239 -89.6821C-38.1264 -89.5446 -37.9697 -89.4503 -37.7956 -89.4153L-37.8257 -89.4002Z" fill="#C0C0C0"/>
<path opacity="0.9" d="M-38.0217 -79.1556C-12.3228 -79.1438 12.4803 -69.7071 31.6936 -52.6314C40.5616 -44.4483 48.1827 -35.0087 54.3137 -24.6136C61.2204 -13.2525 67.0715 -1.28795 74.3401 9.86187C80.8597 20.1756 89.1807 29.2317 98.9056 36.5973C108.889 43.9299 120.184 49.1503 131.66 53.6464C144.493 58.6706 157.612 62.9254 169.963 69.1113C180.733 74.5037 190.852 81.1098 200.123 88.8008C209.075 96.233 217.205 104.604 224.372 113.771C228.034 118.464 231.427 123.36 234.536 128.436C238.095 134.245 241.217 140.356 245.258 145.893C246.886 148.132 248.638 150.278 250.506 152.32C251.2 153.074 252.331 151.943 251.637 151.188C242.845 141.623 237.643 129.492 230.193 118.946C223.5 109.47 215.816 100.735 207.271 92.8896C198.669 84.9848 189.234 78.0389 179.132 72.1741C167.656 65.5355 155.366 60.7527 142.94 56.1661C130.514 51.5794 118.057 46.8419 106.747 39.9468C95.8279 33.184 86.3852 24.2856 78.9848 13.7847C71.2185 2.92153 65.2468 -9.08829 58.5663 -20.6304C52.6915 -31.2278 45.4515 -41.0078 37.0319 -49.7195C19.4817 -67.1827 -3.6025 -77.981 -28.2498 -80.2571C-31.4921 -80.5588 -34.7494 -80.6946 -38.0067 -80.6946C-38.2186 -80.6946 -38.4219 -80.6104 -38.5718 -80.4604C-38.7217 -80.3104 -38.8059 -80.107 -38.8059 -79.8949C-38.8059 -79.6829 -38.7217 -79.4795 -38.5718 -79.3295C-38.4219 -79.1795 -38.2186 -79.0953 -38.0067 -79.0953L-38.0217 -79.1556Z" fill="#C0C0C0"/>
<path opacity="0.9" d="M-38.2177 -68.9113C-13.3674 -69.4377 10.8572 -61.0878 30.1102 -45.3594C39.1187 -37.7851 46.9506 -28.9119 53.3487 -19.0313C60.3458 -8.46989 66.3176 2.77045 73.5108 13.2112C80.0361 23.0929 88.2797 31.7239 97.8501 38.6943C107.622 45.5592 118.646 50.3571 129.79 54.5062C142.382 59.1683 155.23 63.1515 167.309 69.081C177.694 74.1701 187.46 80.4375 196.414 87.7596C205.124 94.8725 213.042 102.906 220.029 111.719C223.594 116.226 226.902 120.931 229.937 125.811C233.39 131.393 236.421 137.232 239.995 142.724C241.594 145.199 243.298 147.613 245.047 149.981C245.68 150.826 247.128 149.981 246.48 149.136C238.94 139.028 233.556 127.606 226.287 117.331C219.802 108.183 212.36 99.7515 204.089 92.1803C195.82 84.6211 186.754 77.9838 177.051 72.3852C165.771 65.8824 153.707 61.2504 141.477 56.9203C129.247 52.5901 117.349 48.441 106.34 42.1041C95.3723 35.7748 85.8285 27.2484 78.3063 17.0585C70.6305 6.84412 64.5381 -4.44145 57.7521 -15.2443C51.6556 -25.3327 44.2412 -34.5623 35.705 -42.6888C17.9672 -58.9426 -4.75264 -68.702 -28.7474 -70.3748C-31.8991 -70.586 -35.066 -70.6464 -38.2177 -70.5709C-38.4377 -70.5709 -38.6486 -70.4835 -38.8042 -70.3279C-38.9597 -70.1722 -39.0471 -69.9612 -39.0471 -69.7411C-39.0471 -69.521 -38.9597 -69.31 -38.8042 -69.1543C-38.6486 -68.9987 -38.4377 -68.9113 -38.2177 -68.9113Z" fill="#C0C0C0"/>
<path opacity="0.9" d="M-38.4138 -58.6665C-14.2119 -59.7115 9.60227 -52.3205 28.9641 -37.755C38.1409 -30.6675 46.1898 -22.2279 52.836 -12.7245C59.8934 -2.84205 66.0009 7.68917 73.2092 17.4509C79.8802 26.9204 88.2138 35.0998 97.8048 41.5913C107.471 47.8677 118.269 52.1526 129.111 55.8642C141.175 60.0586 153.526 63.74 165.092 69.3376C175.133 74.196 184.585 80.1897 193.262 87.2014C201.711 94.0481 209.392 101.793 216.169 110.301C223.513 119.519 229.062 129.688 234.989 139.842C236.497 142.528 238.155 145.184 239.754 147.839C240.327 148.789 241.82 147.929 241.262 146.979C235.019 136.583 229.499 125.72 222.472 115.823C216.137 106.865 208.845 98.6235 200.727 91.2449C192.696 83.9626 183.892 77.5827 174.472 72.2193C163.721 66.3642 152.429 61.564 140.753 57.886C128.945 53.9179 117.002 50.1158 105.948 44.3071C95.3295 38.639 85.9757 30.8668 78.4571 21.4643C70.6456 11.8383 64.3722 1.09584 57.3449 -9.14872C51.0462 -18.7993 43.4728 -27.554 34.8303 -35.175C16.8545 -50.4846 -5.70693 -59.3661 -29.2903 -60.4167C-32.3063 -60.5575 -35.3676 -60.5575 -38.4741 -60.4167C-39.59 -60.4167 -39.59 -58.6515 -38.4741 -58.6967L-38.4138 -58.6665Z" fill="#C0C0C0"/>
<path opacity="0.9" d="M-38.6248 -48.422C-15.0012 -50.0183 8.46505 -43.5503 27.9388 -30.0753C37.0713 -23.6396 45.1716 -15.8506 51.9614 -6.97602C59.0792 2.15204 65.2922 11.944 72.4251 21.057C79.1546 30.076 87.4623 37.8 96.9453 43.8545C106.536 49.7085 117.198 53.5257 127.844 56.9355C139.728 60.7527 151.731 64.1776 163.026 69.564C172.739 74.2066 181.878 79.9635 190.261 86.7187C198.433 93.2856 205.857 100.734 212.399 108.928C219.339 117.878 225.4 127.478 230.495 137.594C231.882 140.25 233.224 142.905 234.521 145.591C235.019 146.632 236.572 145.727 236.029 144.686C231.091 134.027 225.26 123.806 218.597 114.133C206.389 96.9475 190.553 82.6587 172.21 72.2797C161.652 66.5756 150.535 61.9747 139.034 58.5499C127.633 54.9288 116.067 51.6096 105.3 46.3289C94.9103 41.2077 85.6741 34.0203 78.1555 25.2061C70.2837 16.1535 63.8144 5.90891 56.6664 -3.74723C50.1927 -12.8165 42.5113 -20.9587 33.8351 -27.9479C15.6998 -42.0873 -6.51497 -49.9881 -29.5013 -50.4739C-32.5174 -50.4739 -35.5334 -50.3884 -38.5494 -50.2174C-39.6804 -50.142 -39.6955 -48.3465 -38.5494 -48.422H-38.6248Z" fill="#C0C0C0"/>
<path opacity="0.9" d="M-38.8211 -38.1774C-16.4553 -40.2845 5.99561 -35.1489 25.2242 -23.5273C34.7267 -17.717 43.2516 -10.4404 50.4833 -1.96693C57.8123 6.51236 64.1912 15.7611 71.3542 24.3762C78.5173 32.9913 86.2684 40.5653 95.8594 46.0723C105.933 51.8509 117.122 55.306 128.221 58.5499C139.32 61.7937 150.268 64.8415 160.689 69.7148C170.306 74.2191 179.349 79.862 187.622 86.5225C204.009 99.678 217.108 116.472 225.88 135.573C227.026 138.087 228.087 140.637 229.062 143.222C229.484 144.324 231.264 143.841 230.841 142.724C219.413 112.97 197.962 88.1405 170.189 72.5211C160.435 67.2093 150.129 62.9797 139.456 59.9078C127.98 56.4376 116.248 53.5257 105.239 48.6976C94.6482 44.0027 85.1672 37.1236 77.4164 28.5103C69.7105 20.1064 63.1959 10.7067 56.063 1.83516C49.2303 -6.93133 41.1935 -14.6877 32.1912 -21.2038C13.841 -34.0586 -8.08252 -40.8195 -30.4818 -40.5311C-33.2716 -40.5311 -36.0614 -40.3048 -38.8512 -40.0332C-40.0275 -39.9276 -40.0275 -38.0718 -38.8512 -38.1774H-38.8211Z" fill="#C0C0C0"/>
<path opacity="0.9" d="M-68.4684 65.1583C-50.2667 62.6688 -30.9039 61.3713 -13.5316 68.538C3.8407 75.7046 15.5127 90.2643 27.3506 103.949C33.2381 110.974 39.6614 117.532 46.5626 123.563C53.3017 129.222 60.4827 134.333 68.0367 138.847C84.0289 148.261 100.686 156.496 117.876 163.485C136.996 171.659 156.764 178.219 176.975 183.099C177.413 183.189 177.609 182.51 177.156 182.42C159.021 178.044 141.25 172.279 123.999 165.175C106.039 158.089 88.6028 149.74 71.8218 140.189C63.8535 135.634 56.2594 130.453 49.1112 124.694C42.075 118.829 35.5471 112.379 29.5975 105.412C17.9255 92.0446 6.6456 77.4397 -9.61075 69.4583C-27.918 60.4057 -48.9698 61.7334 -68.6041 64.419C-69.0565 64.419 -68.8605 65.1734 -68.4232 65.098L-68.4684 65.1583Z" fill="#C0C0C0"/>
<path opacity="0.9" d="M-66.8851 59.7418C-48.3366 57.2373 -28.5364 56.2717 -10.9831 63.9211C5.89151 71.2689 17.5484 85.6927 29.2506 99.2867C35.131 106.328 41.5656 112.887 48.4928 118.901C55.3241 124.571 62.6182 129.658 70.2987 134.109C86.6756 143.75 104.154 151.686 121.571 159.275C140.513 167.719 159.958 174.985 179.795 181.032C180.278 181.183 180.489 180.428 180.006 180.278C161.951 174.794 144.227 168.27 126.924 160.739C109.024 153.311 91.536 144.926 74.5362 135.618C66.3333 131.088 58.5202 125.885 51.1771 120.062C44.0122 114.121 37.3864 107.557 31.3769 100.448C19.72 87.0204 8.45513 72.4759 -7.83138 64.4341C-26.1839 55.3815 -47.3111 56.2566 -67.051 58.912C-67.5486 58.9875 -67.3375 59.7418 -66.8398 59.6815L-66.8851 59.7418Z" fill="#C0C0C0"/>
<path opacity="0.9" d="M-65.4224 54.3254C-47.2508 51.9113 -27.9935 51.3078 -10.7118 58.3236C6.88673 65.5506 18.9207 80.3215 30.9395 94.3832C36.864 101.575 43.3759 108.262 50.4079 114.374C57.3261 120.072 64.7341 125.146 72.5455 129.538C89.1336 139.058 106.853 146.888 124.285 154.81C143.422 163.515 162.755 171.844 182.525 179.04C183.053 179.237 183.279 178.392 182.751 178.195C164.76 171.662 147.132 164.149 129.684 156.303C112.236 148.458 94.3363 140.461 77.3711 131.227C69.0304 126.795 61.0843 121.657 53.62 115.868C46.3045 109.909 39.5688 103.271 33.5031 96.0429C21.8613 82.5695 10.6869 68.025 -5.5242 59.7569C-23.9822 50.3422 -45.396 50.7949 -65.4224 53.4503C-65.9653 53.5257 -65.9803 54.3857 -65.4224 54.3254Z" fill="#C0C0C0"/>
<path opacity="0.9" d="M-63.8539 48.8937C-45.5014 46.5098 -26.0783 46.1326 -8.72107 53.42C8.89249 60.8432 20.8812 75.6141 32.9453 89.7965C38.8756 97.0785 45.4357 103.824 52.5494 109.954C59.4801 115.607 66.9216 120.602 74.7775 124.875C91.5466 134.23 109.326 141.879 126.683 150.072C146.076 159.215 165.499 168.358 185.164 176.898C185.722 177.139 186.204 176.325 185.646 176.083C168.214 168.539 150.962 160.467 133.801 152.365C116.037 144.052 97.9707 136.055 80.5532 126.942C72.2335 122.693 64.2881 117.746 56.802 112.156C49.1978 106.157 42.2294 99.3927 36.0065 91.9691C24.1083 78.1639 12.8133 63.227 -3.74464 54.7326C-22.2479 45.2425 -43.722 45.3179 -63.8539 47.9432C-64.4571 48.0186 -64.4722 48.9691 -63.8539 48.8937Z" fill="#C0C0C0"/>
<path opacity="0.9" d="M-62.3008 43.4621C-43.5562 41.0632 -23.7108 41.0482 -6.14246 48.8334C11.4259 56.6187 23.2336 71.465 35.2826 85.6927C41.0877 92.81 47.5063 99.4035 54.4645 105.397C61.563 111.169 69.2158 116.223 77.3108 120.485C85.5596 124.936 94.0799 128.828 102.585 132.766C111.895 137.081 121.159 141.492 130.378 145.998C149.68 155.413 168.817 165.16 187.938 174.906C188.542 175.208 189.054 174.318 188.466 174.016C171.275 165.265 154.099 156.499 136.787 147.99C127.568 143.464 118.304 139.008 108.994 134.622C100.368 130.579 91.652 126.686 83.1468 122.371C74.7912 118.224 66.8092 113.363 59.2901 107.841C51.6197 101.904 44.6166 95.1502 38.4042 87.6993C26.3401 73.7734 15.1506 58.6555 -1.45256 49.9046C-20.0916 40.0825 -41.8522 39.7657 -62.3008 42.3608C-62.9492 42.4513 -62.9492 43.4773 -62.3008 43.4018V43.4621Z" fill="#C0C0C0"/>
<path opacity="0.9" d="M-60.7324 38.0307C-41.7918 35.6619 -21.7805 35.9637 -4.12165 43.9903C13.5372 52.017 25.4354 67.1047 37.6352 81.5436C43.5674 88.8692 50.1876 95.609 57.4052 101.671C64.7581 107.435 72.6694 112.449 81.0206 116.638C89.3298 120.907 97.8953 124.679 106.4 128.557C115.75 132.832 125.009 137.283 134.178 141.91C153.36 151.586 172.205 161.886 190.713 172.809C190.841 172.875 190.989 172.89 191.127 172.85C191.265 172.81 191.382 172.718 191.454 172.593C191.526 172.469 191.547 172.321 191.513 172.182C191.479 172.042 191.392 171.921 191.271 171.844C174.733 162.117 157.919 152.853 140.828 144.052C131.589 139.304 122.265 134.728 112.855 130.322C104.138 126.233 95.2864 122.416 86.6455 118.252C78.135 114.249 69.9908 109.508 62.3062 104.085C54.4499 98.1875 47.3044 91.3979 41.0131 83.8521C28.7681 69.6545 17.4882 54.1896 0.61351 45.137C-18.116 35.1037 -40.1028 34.3795 -60.7324 36.9745C-61.4261 37.0651 -61.4411 38.1815 -60.7324 38.091V38.0307Z" fill="#C0C0C0"/>
<path opacity="0.9" d="M-59.134 32.599C-40.0124 30.2453 -19.805 30.879 -2.05576 39.132C15.6935 47.385 27.6671 62.7292 40.0026 77.3944C46.0643 84.9224 52.8921 91.7992 60.3759 97.9137C67.7749 103.566 75.7336 108.445 84.127 112.473C92.6925 116.728 101.499 120.44 110.201 124.362C119.58 128.597 128.83 133.098 137.948 137.866C157.057 147.773 175.589 158.755 193.458 170.757C194.091 171.18 194.694 170.139 194.061 169.716C178.154 159.041 161.721 149.171 144.824 140.144C135.686 135.246 126.417 130.594 117.017 126.188C108.104 122.009 99.0262 118.207 90.1138 114.027C81.4632 110.129 73.168 105.484 65.3222 100.147C57.1973 94.2237 49.8375 87.3162 43.4108 79.5821C31.1657 65.3544 20.0064 49.8443 3.2826 40.5201C-15.658 29.9587 -38.052 28.812 -59.149 31.4674C-59.903 31.558 -59.9181 32.7499 -59.149 32.6594L-59.134 32.599Z" fill="#C0C0C0"/>
<path opacity="0.9" d="M-57.6258 27.1675C-38.3082 24.8289 -17.935 25.8096 -0.0952225 34.2889C8.88348 38.6866 17.0078 44.6488 23.8972 51.8963C30.5626 58.7461 36.4439 66.305 42.5966 73.6226C48.7503 81.2554 55.7353 88.1781 63.4222 94.2625C71.0565 99.8681 79.2481 104.671 87.867 108.596C96.7191 112.79 105.797 116.457 114.725 120.47C123.994 124.634 133.102 129.16 142.05 134.049C160.995 144.172 179.112 155.775 196.233 168.751C196.881 169.248 197.53 168.132 196.881 167.649C181.63 156.076 165.574 145.603 148.836 136.312C139.788 131.283 130.574 126.545 121.194 122.099C112.146 117.875 102.992 114.118 93.9292 110.029C84.9985 106.206 76.4202 101.607 68.2931 96.2843C60.1234 90.5098 52.7421 83.6929 46.3364 76.0064C33.7144 61.4317 22.4646 45.3633 5.33361 35.6468C-13.6975 24.8591 -36.2875 23.3503 -57.6258 25.9001C-58.4402 25.9907 -58.4402 27.2731 -57.6258 27.1675Z" fill="#C0C0C0"/>
<path opacity="0.9" d="M-56.0276 21.7509C-36.2878 19.3972 -15.5074 20.7702 2.55857 29.7323C11.3088 34.1948 19.2299 40.1246 25.978 47.2642C32.764 54.2649 38.7056 62.0049 44.9638 69.4734C51.0997 77.1241 58.1037 84.0354 65.8347 90.0681C73.5854 95.675 81.9115 100.439 90.6716 104.281C99.5689 108.339 108.677 111.825 117.605 115.853C127.105 120.067 136.405 124.709 145.503 129.779C164.483 140.189 182.359 152.498 198.856 166.518C199.52 167.091 200.485 166.125 199.821 165.552C185.184 153.087 169.446 141.977 152.802 132.359C143.754 127.078 134.479 122.175 125.009 117.724C116.112 113.529 106.913 109.893 97.9553 106.001C88.8963 102.286 80.1688 97.8094 71.8667 92.6179C63.2968 86.8647 55.5803 79.9316 48.945 72.0232C36.1872 57.3428 25.0128 41.0632 7.88184 31.045C-11.3302 19.8046 -34.3424 17.7828 -56.0276 20.3628C-56.8872 20.4684 -56.9023 21.8716 -56.0276 21.7358V21.7509Z" fill="#C0C0C0"/>
<path opacity="0.9" d="M-54.474 16.3194C-34.5079 13.9808 -13.5767 15.7008 4.57971 24.8892C13.5398 29.544 21.6307 35.7096 28.4968 43.1152C35.3431 50.312 41.345 58.2029 47.7239 65.8373C53.9016 73.4923 60.9916 80.3629 68.8361 86.2962C76.8478 91.8975 85.4436 96.6124 94.4722 100.358C103.52 104.311 112.779 107.781 121.812 111.779C131.251 115.964 140.462 120.643 149.409 125.796C168.342 136.5 185.895 149.481 201.677 164.451C202.34 165.099 203.366 164.073 202.702 163.44C188.828 150.25 173.557 138.614 157.16 128.738C148.194 123.222 138.942 118.186 129.443 113.65C120.395 109.38 111.166 105.729 101.952 101.927C92.6003 98.2721 83.5752 93.8305 74.9736 88.6499C66.3709 83.1308 58.6229 76.3802 51.9765 68.6134C38.887 53.6011 27.6674 36.7934 10.2347 26.3678C-9.12811 14.7653 -32.4118 12.291 -54.4891 14.871C-55.3939 14.9766 -55.409 16.3797 -54.4891 16.3797L-54.474 16.3194Z" fill="#C0C0C0"/>
<path opacity="0.9" d="M-52.9058 10.8878C-32.7437 8.56427 -11.6466 10.6313 6.60031 20.046C15.7947 24.9217 24.0795 31.3478 31.0904 39.0415C37.9971 46.4495 44.0744 54.5818 50.6041 62.3218C56.8946 70.1033 64.1862 77.0181 72.2892 82.8863C80.3773 88.2624 89.0047 92.7781 98.031 96.3597C107.366 100.267 116.911 103.722 126.17 107.826C135.552 112.002 144.676 116.733 153.496 121.994C172.277 132.993 189.411 146.59 204.391 162.384C205.055 163.108 206.125 162.021 205.462 161.312C192.189 147.271 177.184 134.976 160.809 124.725C152.072 119.155 143.008 114.116 133.665 109.637C124.617 105.292 115.283 101.655 105.963 97.9439C96.4698 94.3973 87.2766 90.0935 78.4721 85.0741C69.6309 79.6314 61.6766 72.8637 54.8868 65.0074C41.4203 49.7839 30.2308 32.4934 12.5569 21.6604C-6.89639 9.77131 -30.4817 6.75378 -52.9058 9.36395C-53.8709 9.46957 -53.8709 10.9934 -52.9058 10.8727V10.8878Z" fill="#C0C0C0"/>
<path opacity="0.9" d="M-51.3374 5.45627C-30.753 3.13276 -9.24881 5.6222 9.19416 15.5046C18.3612 20.5455 26.6106 27.1004 33.5938 34.8924C40.4854 42.4362 46.5627 50.6288 53.1979 58.4141C59.5748 66.2962 67.0209 73.2484 75.3204 79.0692C83.767 84.479 92.759 88.9849 102.148 92.5123C111.618 96.2993 121.27 99.679 130.589 103.858C140.02 108.084 149.154 112.943 157.929 118.403C176.438 129.673 193.041 143.81 207.121 160.286C207.784 161.086 208.915 159.939 208.267 159.155C195.823 144.554 181.367 131.798 165.334 121.269C156.762 115.526 147.814 110.364 138.551 105.82C129.398 101.293 119.927 97.6572 110.427 94.0211C100.69 90.5415 91.2329 86.3249 82.1366 81.4078C72.9646 76.0636 64.7277 69.2546 57.7521 61.2506C44.0292 45.9818 32.8548 28.284 15.1206 17.0889C-4.4835 4.68679 -28.5212 1.27697 -51.3374 3.84188C-52.3478 3.96258 -52.3628 5.57697 -51.3374 5.45627Z" fill="#C0C0C0"/>
<path opacity="0.9" d="M-49.7691 0.024704C-28.7626 -2.2988 -6.86625 0.628181 11.7878 10.9784C20.9275 16.1827 29.1419 22.8666 36.097 30.7584C43.0489 38.4682 49.1865 46.857 55.8971 54.7629C62.4336 62.7932 70.1283 69.8053 78.7284 75.5688C87.1926 80.7376 96.1614 85.0296 105.496 88.3783C115.102 92.0748 124.874 95.3941 134.268 99.6036C143.573 103.779 152.56 108.63 161.156 114.118C179.827 125.778 196.279 140.665 209.744 158.084C210.393 158.928 211.856 158.084 211.252 157.224C199.499 141.942 185.424 128.599 169.541 117.679C161.032 111.728 152.089 106.422 142.789 101.806C133.555 97.3467 124.086 93.3929 114.423 89.9625C104.545 86.5594 94.9241 82.45 85.6351 77.6661C76.1878 72.4335 67.7058 65.621 60.5569 57.524C46.6229 42.0741 35.539 24.1348 17.7747 12.5927C-2.10093 -0.307246 -26.4855 -4.24511 -49.7541 -1.66511C-50.8248 -1.54441 -50.8398 0.145406 -49.7541 0.024704H-49.7691Z" fill="#C0C0C0"/>
<path opacity="0.9" d="M-48.2008 -5.40698C-26.9831 -7.7154 -4.93595 -4.42628 13.8086 6.15021C23.1496 11.5466 31.5238 18.4665 38.5852 26.6243C45.5975 34.5151 51.7954 43.0849 58.6569 51.1116C65.3641 59.3 73.3304 66.3689 82.2572 72.0533C91.0226 77.1244 100.266 81.3189 109.854 84.5761C119.475 88.1067 129.217 91.3656 138.506 95.5902C147.793 99.8038 156.729 104.753 165.228 110.391C183.751 122.421 199.787 137.906 212.459 156.001C213.092 156.937 214.63 156.001 213.967 155.111C202.886 139.159 189.168 125.214 173.401 113.876C165.188 107.891 156.515 102.564 147.464 97.9439C138.175 93.3453 128.605 89.3391 118.811 85.9491C108.813 82.3431 98.7096 78.8579 89.2544 73.9544C79.6681 68.9737 71.0396 62.333 63.769 54.3404C56.4853 46.4042 50.1969 37.6684 43.245 29.4154C36.5317 21.1056 28.6361 13.8263 19.8105 7.80987C-0.125393 -5.31644 -24.6909 -9.73718 -48.2008 -7.17227C-49.3318 -7.05156 -49.3469 -5.28628 -48.2008 -5.40698Z" fill="#C0C0C0"/>
<path opacity="0.9" d="M-46.6476 -10.8385C-24.9775 -13.1469 -2.53832 -9.32977 16.4023 1.639C25.7394 7.21988 34.099 14.2943 41.1487 22.5808C48.3118 30.7734 54.7208 39.6299 61.7482 47.8527C68.5825 56.0367 76.7379 63.0182 85.8763 68.5078C94.7524 73.394 104.068 77.4351 113.699 80.578C123.712 84.1085 133.801 87.4127 143.437 91.8787C152.689 96.1662 161.554 101.244 169.933 107.057C188.108 119.432 203.556 135.401 215.324 153.98C215.942 154.991 217.556 154.055 216.922 153.044C206.57 136.637 193.332 122.242 177.85 110.557C169.627 104.241 160.867 98.6578 151.671 93.8703C142.525 89.216 133.055 85.2276 123.335 81.9359C113.096 78.3601 102.721 74.9955 92.9791 70.2127C83.2291 65.4292 74.434 58.9049 67.0262 50.9608C59.5917 43.0397 53.2279 34.2134 46.3212 25.8397C39.5089 17.1828 31.4781 9.55967 22.4796 3.20814C2.33256 -10.3708 -22.6703 -15.3045 -46.6476 -12.7396C-47.8088 -12.6189 -47.8239 -10.7631 -46.6476 -10.8989V-10.8385Z" fill="#C0C0C0"/>
<path opacity="0.9" d="M-45.0792 -16.255C-22.9416 -18.5785 -0.155563 -14.369 18.9811 -2.85709C28.2869 2.88362 36.6114 10.0815 43.6371 18.4618C50.8454 26.8355 57.2092 35.858 64.5079 44.2015C71.3716 52.3539 79.5903 59.2599 88.802 64.6151C98.0159 69.7902 108.044 73.3207 118.027 76.6853C128.074 79.8184 137.932 83.526 147.554 87.7898C156.788 92.1371 165.598 97.3346 173.869 103.315C191.926 116.108 206.983 132.681 217.993 151.882C218.058 151.992 218.143 152.089 218.245 152.165C218.346 152.242 218.462 152.299 218.585 152.331C218.708 152.363 218.837 152.371 218.963 152.353C219.089 152.336 219.21 152.294 219.32 152.229C219.43 152.165 219.526 152.08 219.603 151.978C219.68 151.876 219.736 151.761 219.769 151.637C219.801 151.514 219.808 151.386 219.791 151.259C219.774 151.133 219.732 151.012 219.667 150.902C209.929 133.87 196.995 118.88 181.575 106.755C173.645 100.407 165.149 94.8011 156.195 90.0077C146.953 85.1686 137.33 81.0964 127.422 77.8319C117.168 74.3316 106.732 71.1481 96.8849 66.5916C86.722 61.921 77.5446 55.3507 69.8463 47.2341C62.1705 39.147 55.6559 30.0643 48.6135 21.4341C41.9002 12.8702 34.0224 5.28802 25.2092 -1.09185C7.21861 -13.6599 -15.0095 -19.4838 -36.8455 -18.7746C-39.6051 -18.6841 -42.3346 -18.488 -45.0792 -18.2013C-46.3007 -18.0655 -46.3158 -16.1343 -45.0792 -16.255Z" fill="#C0C0C0"/>
<path opacity="0.9" d="M-43.5107 -21.6866C-21.0575 -24.1489 1.58672 -19.2343 21.002 -7.6852C30.583 -1.67147 39.1325 5.84815 46.3215 14.5843C53.4996 23.0636 59.8936 32.1766 67.2527 40.5201C74.2947 48.7911 82.776 55.7175 92.2857 60.9639C101.605 65.9429 111.679 69.3074 121.707 72.5513C131.936 75.613 141.955 79.3375 151.701 83.7011C160.828 88.0815 169.51 93.3365 177.624 99.3923C193.729 111.265 207.253 126.29 217.375 143.554C218.551 145.591 219.667 147.673 220.738 149.77C221.326 150.932 223.075 149.906 222.487 148.759C213.358 131.138 200.742 115.558 185.405 102.968C169.477 89.9521 151.26 80.0254 131.69 73.698C121.3 70.2127 110.729 67.1801 100.67 62.7896C90.2385 58.3034 80.794 51.8022 72.8776 43.6583C65.0812 35.6015 58.5364 26.4734 51.5242 17.7376C44.6708 8.8281 36.611 0.916626 27.5769 -5.76903C9.23499 -18.4825 -12.7029 -24.9667 -35.0055 -24.2666C-37.8707 -24.2666 -40.7209 -23.995 -43.5559 -23.7083C-44.8377 -23.5726 -44.8528 -21.5508 -43.5559 -21.6866H-43.5107Z" fill="#C0C0C0"/>
<path opacity="0.9" d="M-41.9424 -27.1182C-19.1634 -29.5006 3.76524 -24.3037 23.2941 -12.3322C32.9529 -6.14545 41.5616 1.54567 48.7946 10.4503C56.033 19.1257 62.5024 28.4047 69.9972 36.8387C77.2365 45.2463 86.0082 52.1996 95.8445 57.3278C105.481 62.2162 115.841 65.4299 126.11 68.6285C136.371 71.5937 146.392 75.331 156.09 79.8085C165.287 84.2999 173.99 89.7409 182.057 96.0429C197.781 108.209 210.782 123.535 220.225 141.034C221.371 143.207 222.462 145.41 223.498 147.643C224.056 148.865 225.865 147.794 225.307 146.587C216.821 128.488 204.599 112.393 189.447 99.3622C173.835 85.9725 155.705 75.8412 136.123 69.564C125.567 66.0938 115.011 63.1969 104.697 59.0026C93.9137 54.7163 84.1218 48.2672 75.9237 40.0524C67.9161 31.9503 61.2809 22.6562 54.2234 13.7696C47.3478 4.70538 39.2712 -3.38039 30.2159 -10.2652C11.6936 -23.5297 -10.6352 -30.4134 -33.4071 -29.8792C-36.2572 -29.8792 -39.1073 -29.6227 -41.9424 -29.336C-43.2695 -29.2003 -43.2845 -27.103 -41.9424 -27.2388V-27.1182Z" fill="#C0C0C0"/>
<path opacity="0.9" d="M-40.3741 -32.4744C-17.5079 -34.7825 5.48077 -29.4792 25.0283 -17.3866C34.8736 -11.0598 43.6282 -3.17722 50.951 5.95406C58.2799 14.7955 64.8398 24.2705 72.4854 32.8554C79.9441 41.4401 89.0255 48.4648 99.2073 53.5256C109.04 58.2783 119.55 61.3561 129.971 64.4944C140.351 67.3862 150.471 71.1462 160.221 75.7348C187.385 89.2564 209.422 111.241 223.015 138.379C224.151 140.672 225.212 143.001 226.197 145.365C226.725 146.632 228.836 146.074 228.293 144.776C220.445 126.219 208.644 109.598 193.714 96.073C178.472 82.3021 160.482 71.9244 140.934 65.626C130.227 62.1105 119.264 59.3344 108.738 55.2758C97.6444 51.1799 87.5302 44.8072 79.0452 36.5671C70.8115 28.4046 63.9651 18.9295 56.9076 9.83161C49.8501 0.733719 41.8275 -8.04735 32.3572 -15.033C13.6784 -28.5978 -8.91328 -35.696 -31.9896 -35.2505C-34.8096 -35.2505 -37.6145 -35.0091 -40.4194 -34.7375C-41.8068 -34.5866 -41.8218 -32.414 -40.4194 -32.5498L-40.3741 -32.4744Z" fill="#C0C0C0"/>
<path opacity="0.9" d="M-38.821 -37.9814C-16.4909 -40.0861 5.92426 -34.9555 25.1186 -23.3463C34.6125 -17.5545 43.1238 -10.2867 50.3326 -1.81614C57.6615 6.66316 64.0404 15.9119 71.2185 24.527C78.3966 33.1421 86.1478 40.7312 95.7538 46.2533C105.842 52.047 117.062 55.5021 128.176 58.7459C139.29 61.9898 150.193 65.0375 160.583 69.8958C170.193 74.4039 179.225 80.0521 187.486 86.7186C203.863 99.8583 216.952 116.637 225.714 135.723C226.86 138.228 227.901 140.763 228.881 143.267C229.394 144.61 231.58 144.022 231.053 142.664C219.595 112.864 198.116 87.9917 170.31 72.3249C160.537 67.0131 150.218 62.7789 139.531 59.6965C128.055 56.2263 116.323 53.3446 105.33 48.5014C94.7545 43.8078 85.2851 36.9398 77.5371 28.3442C69.8462 19.9403 63.3316 10.5558 56.1836 1.68422C49.3451 -7.10053 41.2979 -14.8724 32.2817 -21.4C13.9004 -34.261 -8.05362 -41.0215 -30.4817 -40.7274C-33.2716 -40.7274 -36.0614 -40.5161 -38.8512 -40.2445C-40.2838 -40.1088 -40.3592 -37.8305 -38.8512 -37.9814H-38.821Z" fill="#C0C0C0"/>
<path opacity="0.9" d="M12.5607 -648.611C48.5117 -633.282 87.0414 -616.565 110.295 -583.523C134.725 -548.821 138.721 -504.373 134.061 -463.304C131.392 -439.797 126.069 -416.698 120.61 -393.704C115.07 -370.459 109.541 -347.214 104.022 -323.969C94.1441 -282.583 81.8538 -240.685 79.8934 -197.956C78.2044 -160.433 86.8755 -122.518 113.748 -94.9225C138.208 -69.8165 172.696 -56.2074 206.913 -51.2888C225.597 -48.6031 244.387 -49.3274 263.177 -48.4221C283.022 -47.4565 303.531 -44.1221 319.426 -31.2674C345.529 -10.1446 352.451 25.7039 368.27 53.7821C375.733 67.4744 386.249 79.2613 399.004 88.2273C411.882 97.114 426.54 103.059 441.333 107.947C472.127 118.146 505.499 123.714 533.247 141.412C539.976 145.683 546.169 150.749 551.69 156.499C552.7 157.555 554.298 155.941 553.288 154.9C530.668 131.393 498.502 122.371 468.131 113.68C437.397 104.869 404.086 95.575 382.4 70.454C360.429 44.9557 354.879 9.98242 335.486 -17.0547C326.086 -30.549 312.468 -40.5328 296.775 -45.4348C278.227 -51.1832 258.412 -50.7456 239.215 -51.1077C202.148 -51.8018 164.719 -59.4362 133.744 -80.8607C118.611 -91.1588 106.102 -104.863 97.2204 -120.873C87.4787 -138.767 83.03 -158.94 82.1403 -179.172C80.2252 -221.418 91.8368 -263.075 101.548 -303.797L118.227 -373.698C123.656 -396.435 129.386 -419.157 133.307 -442.211C140.274 -482.782 141.194 -525.888 123.852 -564.12C115.897 -581.613 104.03 -597.043 89.1677 -609.217C74.3439 -621.574 57.3335 -630.838 40.0517 -639C31.3505 -643.074 22.5287 -646.861 13.7068 -650.618C12.3798 -651.191 11.2337 -649.245 12.5607 -648.672V-648.611Z" fill="#C0C0C0"/>
<path opacity="0.9" d="M20.2516 -649.154C51.4674 -634.263 84.1761 -618.315 106.208 -590.614C131.558 -558.643 137.032 -515.749 133.232 -476.234C129.16 -433.989 116.387 -392.829 106.736 -351.655C97.4466 -311.974 87.4033 -271.871 82.6078 -231.33C78.2949 -194.139 79.4108 -154.111 99.03 -121.069C116.478 -91.6785 146.487 -72.7887 178.397 -62.363C196.682 -56.573 215.569 -52.8978 234.691 -51.4094C255.064 -49.6441 275.814 -49.5385 295.78 -44.7104C314.208 -40.2595 330.464 -31.1315 342.619 -16.4059C354.774 -1.6803 362.555 16.5004 371 33.6552C379.445 50.8099 388.342 66.9688 403.226 79.1748C417.1 90.5057 433.718 98.291 450.351 104.658C481.778 116.728 515.859 123.352 544.798 141.246C552.085 145.721 558.843 151.005 564.945 156.997C565.155 157.122 565.401 157.173 565.643 157.142C565.886 157.112 566.111 157.001 566.284 156.828C566.457 156.655 566.567 156.43 566.598 156.187C566.628 155.945 566.577 155.699 566.453 155.488C542.702 132.087 510.068 122.295 479.139 112.323C443.761 100.931 405.247 87.7748 384.602 54.6422C365.646 24.346 356.749 -14.9877 324.779 -35.175C309.397 -44.8764 291.286 -48.5729 273.507 -50.4739C252.968 -52.6768 232.278 -52.9182 211.874 -56.3884C176.135 -62.4234 139.822 -76.2891 114.774 -103.492C87.6295 -133.064 80.9641 -173.65 83.1959 -212.501C85.5635 -253.992 95.9688 -295.016 105.198 -335.39C109.943 -356.151 114.899 -376.856 120.067 -397.506C125.088 -417.799 130.065 -438.168 133.217 -458.868C138.947 -496.588 138.253 -536.781 120.806 -571.543C104.881 -603.227 75.5654 -623.49 44.9226 -639.438C37.1262 -643.527 29.2393 -647.269 21.3524 -651.071C20.0857 -651.674 18.9848 -649.803 20.2516 -649.2V-649.154Z" fill="#C0C0C0"/>
<path opacity="0.9" d="M27.9425 -649.683C59.2035 -633.086 92.0329 -614.981 111.909 -584.504C134.378 -550.119 136.037 -506.847 130.005 -467.393C126.793 -446.783 121.635 -426.535 116.433 -406.378C111.23 -386.221 106.103 -366.034 101.503 -345.725C92.6663 -306.709 83.8897 -266.907 81.4467 -226.895C79.245 -190.82 82.8793 -152.497 103.162 -121.567C121.922 -92.9006 152.7 -75.0971 184.806 -65.1392C203.263 -59.6287 222.172 -55.7662 241.311 -53.5972C261.714 -51.0473 282.389 -49.4631 302.34 -44.2427C321.251 -39.3091 338.774 -30.5733 352.104 -16.0287C364.998 -1.98206 373.88 15.3386 382.792 32.0407C391.705 48.7429 400.3 64.3435 415.169 76.1421C429.39 87.4277 446.37 95.6052 463.019 102.636C494.536 115.943 528.617 123.97 557.918 142.136C565.158 146.599 571.941 151.764 578.17 157.555C579.151 158.491 580.643 156.997 579.678 156.047C555.007 132.978 522.374 122.311 491.203 111.146C473.42 105.037 456.107 97.6342 439.403 88.9969C422.332 79.9442 407.102 68.7793 396.546 52.2432C377.168 21.8867 365.631 -15.2592 332.772 -34.3904C298.253 -54.4873 255.501 -52.3448 217.349 -59.3757C181.79 -65.9238 145.492 -78.5522 119.433 -104.639C91.8369 -132.31 82.8491 -171.176 82.8944 -209.167C82.8944 -249.737 91.5353 -290.142 100.04 -329.642C104.424 -349.99 109.214 -370.253 114.412 -390.43C119.63 -410.708 125.179 -430.926 129.266 -451.475C136.806 -489.632 139.038 -530.369 123.686 -566.821C109.843 -599.471 82.2459 -621.333 52.3572 -638.669C44.6814 -643.195 36.8397 -647.329 28.9981 -651.508C27.8067 -652.127 26.7511 -650.316 27.9425 -649.683Z" fill="#C0C0C0"/>
<path opacity="0.9" d="M35.6332 -650.226C65.5521 -632.573 96.6171 -613.14 114.653 -582.331C135.765 -546.392 134.77 -502.547 126.943 -462.927C122.902 -442.468 117.171 -422.386 111.652 -402.289C106.208 -382.419 101.096 -362.428 96.783 -342.286C88.3532 -303.57 80.8132 -263.829 80.3608 -224.073C79.9536 -187.968 86.0158 -150.008 108.108 -120.421C128.662 -92.8857 160.466 -76.5457 192.904 -67.2667C230.981 -56.3734 271.003 -54.9551 309.02 -43.9713C327.675 -38.585 345.786 -30.4678 360.097 -17.085C373.518 -4.54712 383.501 11.3251 392.73 27.0616C402.457 43.6581 410.826 60.2546 426.253 72.4304C440.911 83.9875 458.525 92.5272 475.384 100.358C506.766 114.917 540.666 124.287 570.313 142.498C577.792 147.06 584.857 152.27 591.426 158.068C592.391 158.928 593.823 157.51 592.858 156.65C567.147 133.822 534.287 122.265 502.845 109.803C485.269 102.884 468.122 94.9186 451.497 85.949C433.552 76.157 417.748 64.9921 406.83 47.3546C396.787 31.1353 388.251 14.1617 376.806 -1.19763C366.642 -14.7766 354.427 -26.3036 339.316 -34.2548C304.632 -52.5261 264.142 -54.7137 226.216 -61.7145C190.023 -68.4134 152.911 -79.6387 125.058 -104.76C96.1496 -130.846 84.6435 -168.717 82.6529 -206.617C80.5417 -246.78 87.5087 -287.095 95.4258 -326.308C99.5477 -346.767 104.278 -367.09 109.616 -387.277C114.909 -407.283 120.806 -427.139 125.541 -447.311C134.438 -485.211 139.113 -525.948 125.541 -563.411C113.627 -596.604 87.4786 -619.839 58.5549 -638.488C51.3165 -643.165 43.9272 -647.54 36.5078 -651.976C36.2763 -652.102 36.0047 -652.133 35.7509 -652.062C35.4971 -651.99 35.2812 -651.822 35.1494 -651.594C35.0175 -651.366 34.9801 -651.095 35.0451 -650.839C35.1102 -650.583 35.2725 -650.363 35.4974 -650.226H35.6332Z" fill="#C0C0C0"/>
<path opacity="0.9" d="M43.3091 -650.769C72.6851 -631.562 102.785 -610.138 118.71 -577.759C137.047 -540.327 132.99 -496.784 123.52 -457.525C118.71 -437.519 112.542 -417.89 106.932 -398.11C101.322 -378.33 96.3759 -358.746 92.2591 -338.8C84.342 -300.568 78.0989 -261.113 79.5164 -221.946C80.7982 -186.867 88.5645 -150.521 110.823 -122.442C132.493 -95.0129 165.247 -79.3669 198.287 -70.2539C216.972 -65.0939 236.108 -61.8802 255.169 -58.4402C275.195 -54.9995 294.98 -50.2826 314.404 -44.3181C333.118 -38.3887 351.908 -30.6487 367.411 -18.3522C381.872 -6.87042 393.303 8.14185 403.316 23.5313C413.722 39.4941 421.729 56.4376 437.005 68.5078C444.292 74.0099 452.025 78.8951 460.123 83.1127C468.945 87.9559 477.752 92.8594 486.724 97.431C518.257 113.53 552.413 124.347 582.739 142.845C590.467 147.51 597.823 152.766 604.741 158.566C605.676 159.366 607.064 158.008 606.099 157.193C578.864 134.245 545.145 121.722 512.919 107.585C495.591 100.041 478.973 91.2148 462.355 82.132C453.669 77.3945 444.968 72.5211 437.262 66.2446C429.594 59.8804 423.058 52.2643 417.929 43.7187C408.021 27.7106 398.581 11.6573 386.261 -2.67603C374.699 -16.1509 360.444 -27.0522 344.413 -34.6771C308.764 -51.8167 269.284 -57.4445 230.86 -64.8525C194.668 -71.8079 157.3 -82.2939 128.708 -106.63C99.6634 -131.359 86.408 -167.69 82.5927 -204.791C78.5211 -244.23 83.8595 -284.198 91.0678 -322.973C94.888 -343.492 99.5176 -363.846 104.957 -384.033C110.204 -403.526 116.312 -422.763 121.545 -442.257C131.739 -479.885 138.857 -520.109 128.044 -558.432C118.408 -592.576 93.933 -617.546 65.8538 -637.778C58.7963 -642.863 51.5579 -647.676 44.2893 -652.444C43.2487 -653.123 42.2685 -651.448 43.3091 -650.769Z" fill="#C0C0C0"/>
<path opacity="0.9" d="M50.9996 -651.312C79.9534 -630.37 109.254 -606.607 122.585 -572.283C137.755 -533.175 130.517 -490.175 119.403 -451.068C113.823 -431.454 107.339 -412.172 101.563 -392.633C95.682 -372.516 90.791 -352.158 86.8903 -331.558C79.7121 -293.522 75.0675 -254.218 78.928 -215.534C82.3813 -180.832 93.0128 -145.768 117.096 -119.742C141.179 -93.7153 175.018 -80.1364 208.557 -71.8683C227.573 -67.176 246.935 -64.1132 266.102 -60.1301C285.491 -55.996 304.56 -50.4851 323.165 -43.6392C341.925 -36.8497 360.941 -28.9136 377.228 -17.2056C391.976 -6.64417 404.372 7.23651 414.928 22.0225C425.801 37.246 433.552 53.9481 448.707 65.5807C456.13 71.0016 463.971 75.8248 472.157 80.0046C480.602 84.5309 488.926 89.3892 497.325 94.0663C529.28 111.9 563.964 124.378 595.271 143.403C603.143 148.16 610.698 153.422 617.891 159.155C618.811 159.894 620.138 158.581 619.203 157.842C590.762 135.09 556.741 121.496 524.198 105.865C507.143 97.6723 490.916 88.1067 474.298 79.0994C465.537 74.3467 456.685 69.5941 448.828 63.393C441.377 57.3773 435.003 50.1376 429.978 41.9836C419.98 26.2924 410.042 11.099 397.028 -2.31403C384.831 -14.741 370.537 -24.9154 354.803 -32.3687C319.079 -49.7045 280.76 -59.2852 241.974 -66.6631C205.405 -73.6336 167.735 -82.3242 137.017 -104.533C106.298 -126.742 89.7555 -160.991 83.2409 -197.594C76.2437 -236.822 79.697 -277.303 86.1061 -316.395C89.4438 -336.773 93.7819 -356.956 99.1202 -376.942C104.459 -397.039 111.018 -416.743 117.066 -436.614C128.542 -474.333 138.178 -514.165 130.019 -553.544C122.645 -588.939 99.4218 -615.856 71.8554 -637.839C65.3559 -643.029 58.6754 -647.993 51.9346 -652.926C50.9694 -653.62 50.0345 -652.021 50.9996 -651.327V-651.312Z" fill="#C0C0C0"/>
<path opacity="0.9" d="M58.5098 -651.976C86.3175 -629.737 113.914 -604.299 125.194 -569.461C138.027 -529.69 128.617 -487.444 116.342 -448.759C110.31 -429.598 103.403 -410.693 97.5673 -391.426C91.5411 -371.654 86.6671 -351.548 82.9697 -331.211C76.1535 -293.401 72.6549 -254.264 77.8576 -216.047C82.5626 -181.345 94.7021 -146.537 119.69 -121.235C144.979 -95.5862 180.146 -82.6108 214.559 -74.6143C233.861 -70.088 253.48 -67.1459 272.798 -62.7403C292.116 -58.3347 310.272 -51.6961 328.459 -44.4088C347.324 -36.8649 366.566 -28.8533 383.893 -18.1561C399.216 -8.57135 412.851 3.47998 424.248 17.5113C436.312 32.1765 443.942 49.8745 459.218 61.7032C466.681 67.1837 474.597 72.0192 482.879 76.1572C491.927 80.9249 500.613 86.0397 509.345 91.2449C541.435 110.452 576.21 124.664 608.18 144.052C616.17 148.879 623.901 154.121 631.343 159.758C632.247 160.437 633.137 158.898 632.232 158.249C602.072 135.392 567.177 120.53 533.955 103.044C516.719 93.9909 500.342 83.4294 483.135 74.2562C474.525 69.7298 465.869 64.9923 458.314 58.746C450.758 52.4996 445.134 44.82 439.886 36.5972C430.337 21.2191 418.614 7.30475 405.081 -4.71295C391.237 -16.7831 375.433 -25.4284 358.89 -33.1533C341.232 -41.3761 323.135 -48.7992 304.768 -55.2719C286.008 -61.8802 266.751 -65.9841 247.252 -69.7108C210.698 -76.7115 172.998 -84.6175 141.496 -105.544C109.586 -126.757 91.1733 -160.448 82.9999 -197.232C74.5098 -235.54 76.3345 -275.356 81.9744 -313.936C84.9729 -334.393 89.1724 -354.655 94.5512 -374.618C99.8594 -394.459 106.615 -413.846 113.1 -433.325C125.435 -470.29 137.092 -509.065 131.709 -548.459C126.808 -584.292 106.072 -612.853 79.7124 -636.481C73.243 -642.274 66.5475 -647.812 59.7614 -653.228C58.8717 -653.937 57.6201 -652.7 58.5098 -651.976Z" fill="#C0C0C0"/>
<path opacity="0.9" d="M66.2007 -652.579C93.1639 -628.741 118.981 -601.447 128.029 -565.493C138.148 -524.756 126.069 -483.009 112.466 -444.61C105.756 -425.63 98.5626 -406.816 92.6361 -387.564C86.5354 -367.717 81.7943 -347.478 78.4457 -326.987C72.293 -289.267 70.2572 -250.266 77.3449 -212.516C83.7991 -178.131 98.0951 -144.184 124.44 -120.345C151.328 -96.0239 187.219 -84.3912 222.023 -76.9078C241.386 -72.7435 261.021 -69.892 280.263 -65.1544C299.867 -60.3565 318.114 -52.4656 336.406 -44.2428C371.347 -28.5516 408.338 -13.6902 434.834 15.067C447.456 28.7817 455.056 46.555 469.955 58.1725C477.601 64.1322 486.272 68.568 494.868 73.0038C503.69 77.5301 512.195 82.494 520.504 87.8199C552.941 108.46 587.822 124.664 620.666 144.58C628.809 149.529 636.787 154.734 644.508 160.316C645.382 160.95 646.227 159.487 645.352 158.808C614.182 136.312 579.135 120.258 545.823 101.233C528.904 91.5767 512.934 80.442 495.607 71.495C486.694 66.8932 477.646 62.3066 469.805 55.9547C461.963 49.6027 456.519 41.8477 451.09 33.5947C441.373 18.8013 429.198 5.77899 415.094 -4.90918C399.893 -16.4664 382.762 -24.5232 365.571 -32.6555C347.701 -41.0593 329.771 -49.5386 311.433 -56.8713C293.096 -64.2039 274.502 -68.5341 255.35 -72.1853C218.193 -79.2765 179.859 -86.0961 146.894 -105.801C114.397 -125.249 93.9028 -156.903 83.5579 -192.842C72.8057 -230.365 72.7002 -269.97 77.3449 -308.459C79.9134 -329.46 83.9446 -350.256 89.4089 -370.696C94.6417 -390.385 101.473 -409.577 108.395 -428.723C121.876 -465.597 135.75 -503.86 133.036 -543.797C130.517 -580.008 112.014 -610.183 86.981 -635.395C80.6926 -641.746 74.1026 -647.782 67.3769 -653.711C66.5626 -654.435 65.3713 -653.243 66.1856 -652.519L66.2007 -652.579Z" fill="#C0C0C0"/>
<path opacity="0.9" d="M73.9217 -653.047C100.086 -627.504 124.199 -598.113 130.638 -561.012C137.831 -519.551 123.249 -478.603 108.485 -440.507C101.171 -421.662 93.6465 -402.878 87.6748 -383.55C81.6189 -363.932 77.0815 -343.877 74.1027 -323.562C68.5834 -285.842 67.9651 -246.961 76.8021 -209.71C84.9302 -175.446 101.217 -142.238 128.949 -119.696C157.405 -96.567 194.11 -86.2169 229.473 -79.2162C248.896 -75.3688 268.546 -72.6379 287.712 -67.6288C306.879 -62.6196 324.674 -54.0499 342.438 -45.1179C361.168 -35.7786 380.138 -27.0126 398.943 -17.8544C415.381 -9.87299 431.381 -0.443176 444.696 12.1701C451.775 19.128 458.08 26.8325 463.501 35.1487C468.643 42.6926 474.057 49.6631 481.401 55.2758C488.745 60.8884 497.16 65.128 505.529 69.2772C514.498 73.6594 523.181 78.6029 531.527 84.0782C547.904 94.9715 564.402 105.442 581.458 115.234C598.513 125.026 616.067 134.667 633.047 144.942C641.446 150.042 649.74 155.322 657.854 160.875C658.698 161.463 659.512 160.075 658.653 159.487C626.034 137.127 590.461 119.625 556.877 98.7887C548.357 93.4929 540.078 87.835 531.724 82.2827C523.353 76.8436 514.655 71.9258 505.68 67.5571C496.632 63.0308 487.584 58.5045 479.938 52.0017C472.293 45.4989 467 37.1252 461.269 28.9477C451.331 14.735 438.363 3.29858 423.84 -5.98041C407.328 -16.5418 389.156 -24.0856 371.543 -32.5498C353.447 -41.2856 335.758 -50.9568 317.375 -59.0137C299.686 -66.7688 281.183 -71.265 262.257 -74.8256C224.557 -81.9169 185.53 -87.8765 151.403 -106.585C134.631 -115.637 119.975 -128.155 108.41 -143.309C97.739 -157.801 89.4511 -173.907 83.8595 -191.016C71.524 -227.694 69.7295 -266.892 73.5146 -305.17C77.6013 -346.676 89.0019 -386.055 104.082 -424.755C118.333 -461.584 134.242 -499.152 134.106 -539.346C133.971 -575.964 117.518 -607.739 93.7822 -634.685C87.7502 -641.43 81.5221 -647.872 75.0829 -654.149C74.344 -654.873 73.1979 -653.741 73.9368 -653.017L73.9217 -653.047Z" fill="#C0C0C0"/>
<path opacity="0.9" d="M81.5975 -653.575C107.234 -625.935 129.613 -593.949 133.066 -555.339C136.776 -513.923 120.233 -474.499 104.549 -437.142C96.7228 -418.463 88.8962 -399.74 82.8943 -380.382C76.8899 -360.876 72.5613 -340.893 69.9556 -320.65C64.9641 -282.342 65.8237 -242.858 76.7567 -205.606C86.5588 -172.172 104.459 -140.563 132.794 -119.606C163.06 -97.1404 201.228 -87.9218 237.692 -81.4341C257.386 -77.8885 277.322 -75.218 296.625 -69.8015C315.927 -64.3849 333.179 -54.8043 350.657 -45.1632C368.889 -35.0847 387.347 -25.8962 406.453 -17.5074C423.041 -10.1899 439.886 -2.41974 454.091 9.12238C461.925 15.5947 468.804 23.1428 474.525 31.5427C479.727 38.981 484.93 46.1325 492.138 51.7753C507.354 63.6946 526.521 69.2922 542.476 80.1704C559.411 91.7125 575.999 103.526 593.477 114.238C610.954 124.951 628.221 134.999 645.548 145.41C654.129 150.615 662.649 155.971 671.049 161.388C671.878 161.916 672.647 160.603 671.818 160.06C637.631 137.805 601.484 118.674 567.599 95.922C559.35 90.3848 551.403 84.4402 543.2 78.8427C534.979 73.406 526.353 68.6091 517.397 64.4943C508.349 60.1641 499.166 55.7585 491.399 49.2557C483.392 42.5568 478.174 33.6701 471.976 25.4322C449.085 -4.95447 411.384 -15.5159 378.841 -31.9011C360.881 -40.9537 343.735 -51.5151 325.669 -60.3414C308.372 -68.7755 290.035 -73.6187 271.185 -77.1642C232.519 -84.4365 192.602 -89.2344 156.847 -106.797C140.152 -114.842 125.221 -126.124 112.919 -139.99C100.896 -154.096 91.3414 -170.134 84.6587 -187.425C70.3175 -223.425 66.6682 -262.592 69.4731 -301.006C72.4891 -343.01 83.8142 -382.947 99.769 -421.707C114.849 -458.235 132.402 -494.898 134.83 -534.956C136.054 -553.98 133.073 -573.04 126.099 -590.78C119.672 -606.336 111.038 -620.885 100.463 -633.976C94.8529 -641.128 88.8661 -647.963 82.6832 -654.631C82.0197 -655.356 80.9339 -654.269 81.6125 -653.545L81.5975 -653.575Z" fill="#C0C0C0"/>
<path opacity="0.9" d="M89.2883 -654.088C114.412 -624.109 134.845 -589.332 135.056 -549.078C135.283 -506.425 115.528 -467.378 98.5475 -429.372C90.4193 -411.161 82.6983 -392.709 77.0432 -373.547C71.2844 -353.976 67.3766 -333.907 65.3712 -313.604C61.556 -275.296 64.4664 -236.113 77.571 -199.722C89.6351 -166.453 109.978 -136.217 140.169 -117.056C173.224 -96.0992 213.367 -88.8119 251.414 -82.7466C271.019 -79.6385 290.819 -76.8473 309.714 -70.6765C328.61 -64.5056 345.424 -53.3708 362.495 -43.0961C379.589 -32.7117 397.479 -23.7011 415.999 -16.1494C433.16 -9.23926 450.939 -2.72131 465.974 8.32288C474.007 14.3694 481.031 21.6516 486.785 29.8983C492.093 37.2611 497.341 44.3221 504.7 49.8141C512.376 55.5323 521.137 59.4401 529.808 63.393C539.169 67.5088 548.103 72.5318 556.485 78.3902C572.922 90.1586 588.877 102.395 605.827 113.454C623.184 124.77 640.888 135.497 658.607 146.24C667.173 151.45 675.718 156.675 684.244 161.916C685.043 162.414 685.752 161.161 684.983 160.664C649.936 138.998 614.106 118.508 580.553 94.4738C572.289 88.5593 564.357 82.1622 556.048 76.3685C547.997 70.8648 539.444 66.1364 530.502 62.2463C521.454 58.1123 512.27 54.0386 504.383 47.8677C496.21 41.4857 490.917 32.9008 484.689 24.7836C461.254 -5.76904 421.352 -13.0414 388.734 -29.834C371.211 -38.8866 354.909 -49.9006 337.733 -59.5266C320.557 -69.1525 302.687 -74.9161 283.595 -78.7031C244.779 -86.3978 204.998 -89.7775 167.916 -104.548C149.473 -111.636 132.628 -122.331 118.363 -136.006C105.511 -148.939 94.9595 -163.971 87.162 -180.455C51.3015 -254.309 62.8378 -342.678 94.1441 -415.823C109.948 -452.652 129.718 -488.697 135.132 -528.86C137.873 -548.246 136.329 -567.998 130.608 -586.722C125.077 -603.71 116.937 -619.734 106.48 -634.218C101.413 -641.43 95.9235 -648.355 90.2986 -655.099C89.7105 -655.823 88.7002 -654.797 89.2883 -654.088Z" fill="#C0C0C0"/>
<path opacity="0.9" d="M96.8735 -654.782C120.926 -622.947 139.038 -586.193 136.655 -545.291C134.182 -502.411 112.331 -464.179 94.4306 -426.218C85.85 -408.113 77.948 -389.646 72.3382 -370.394C66.5489 -350.521 62.8542 -330.097 61.3147 -309.455C58.4494 -271.358 62.9282 -232.613 77.4956 -197.142C91.0677 -164.19 113.009 -134.844 144.195 -116.905C178.879 -96.9743 219.972 -90.8788 258.939 -85.221C278.544 -82.3694 298.419 -79.6536 317.254 -73.1508C336.481 -66.5726 352.738 -54.8344 369.537 -43.7901C386.336 -32.7459 403.693 -22.9088 422.574 -15.8326C440.248 -9.20911 458.917 -4.23016 475.113 5.71265C484.083 11.2881 491.909 18.5237 498.17 27.0316C503.509 34.153 508.545 41.2744 515.693 46.6456C523.58 52.6807 532.704 56.513 541.722 60.4207C551.302 64.3131 560.409 69.2838 568.866 75.2369C585.288 87.3071 600.805 100.388 617.575 112.036C635.158 124.257 653.239 135.739 671.531 146.858C680.187 152.109 688.878 157.289 697.605 162.399C697.758 162.474 697.933 162.488 698.096 162.44C698.26 162.392 698.399 162.283 698.486 162.137C698.573 161.991 698.603 161.817 698.568 161.65C698.533 161.484 698.437 161.336 698.298 161.237C662 139.918 626.019 117.814 592.587 92.1502C584.851 86.2056 577.416 79.8386 569.544 74.0449C561.084 68.0967 551.978 63.1263 542.4 59.2288C533.186 55.2456 523.852 51.2927 515.889 45.0765C507.927 38.8604 502.83 30.532 496.662 22.792C485.533 8.82074 470.167 0.311218 453.774 -6.08594C434.668 -13.5392 415.049 -19.1971 396.892 -28.9287C379.399 -38.2831 363.55 -50.127 346.706 -60.5073C330.035 -70.5305 311.705 -77.485 292.583 -81.0417C253.134 -89.008 212.659 -91.3919 174.355 -104.729C155.354 -111.338 137.258 -120.888 122.178 -134.211C108.817 -146.273 97.5988 -160.517 89.0017 -176.336C49.0093 -248.093 56.5493 -337.774 88.8358 -410.784C105.092 -447.522 126.536 -482.616 134.921 -522.327C139.248 -541.925 139.31 -562.225 135.102 -581.848C130.877 -599.729 123.745 -616.795 113.989 -632.362C109.043 -640.358 103.69 -648.053 98.0498 -655.476C97.522 -656.155 96.3457 -655.476 96.8735 -654.782Z" fill="#C0C0C0"/>
<path opacity="0.9" d="M104.58 -655.31C128.074 -620.744 143.788 -580.867 137.756 -538.456C131.724 -496.044 108.169 -459.426 89.4994 -421.843C80.4514 -403.572 72.4288 -384.803 66.9547 -365.128C61.4274 -345.165 58.1696 -324.642 57.2431 -303.947C55.524 -265.987 61.8576 -227.724 78.0235 -193.204C93.4203 -160.328 117.518 -132.038 150.242 -115.577C186.434 -97.3816 228.086 -92.6893 267.686 -87.4086C287.848 -84.723 308.402 -81.9469 327.494 -74.7198C346.585 -67.4929 362.389 -54.7589 378.887 -43.0356C395.384 -31.3125 412.576 -21.1132 431.667 -14.4746C449.612 -8.25848 468.824 -4.71289 485.699 4.29449C494.525 8.96881 502.312 15.3846 508.591 23.1541C514.623 30.698 519.795 38.6039 527.622 44.4278C535.448 50.2517 544.21 53.752 552.926 57.358C562.834 61.4166 572.349 65.7468 580.99 72.1591C589.631 78.5714 597.578 85.919 605.887 92.6934C613.759 99.0806 621.777 105.277 629.94 111.281C647.147 123.955 664.956 135.844 683.203 146.979C692.251 152.501 701.425 157.847 710.724 163.017C711.448 163.41 712.082 162.308 711.373 161.916C673.671 141.13 637.896 117.025 604.47 89.8871C596.839 83.6408 589.556 76.9268 581.624 71.0576C573.666 65.3829 565.028 60.7297 555.912 57.2071C546.381 53.2692 536.594 49.5425 528.27 43.3264C519.946 37.1103 514.698 28.4197 508.153 20.6194C496.662 7.04047 480.753 -0.503357 464.089 -5.81427C444.364 -12.1209 424.519 -17.0697 406.197 -27.103C388.643 -36.7139 373.186 -49.282 356.689 -60.4771C340.566 -71.3747 322.458 -78.9928 303.396 -82.8974C283.867 -87.0767 263.946 -88.9325 244.221 -91.9501C223.592 -95.0581 202.887 -98.4076 182.815 -104.277C163.392 -109.965 144.572 -118.293 128.346 -130.544C113.479 -142.054 100.801 -156.143 90.917 -172.141C47.0188 -241.545 50.2007 -332.267 83.015 -405.322C99.8444 -442.739 123.249 -477.456 134.408 -517.288C140.134 -537.026 141.619 -557.753 138.766 -578.106C135.8 -596.596 129.727 -614.451 120.806 -630.913C116.216 -639.53 111.147 -647.882 105.62 -655.929C105.153 -656.608 104.112 -655.929 104.519 -655.28L104.58 -655.31Z" fill="#C0C0C0"/>
<path opacity="0.9" d="M112.27 -655.838C134.574 -619.311 147.573 -577.382 138.706 -534.563C130.02 -492.635 104.926 -456.907 85.4882 -419.519C76.033 -401.309 67.8898 -382.509 62.4006 -362.669C56.779 -342.161 53.7395 -321.03 53.3525 -299.768C52.6438 -261.174 60.8926 -222.519 79.1848 -188.391C96.4967 -155.997 122.404 -129.277 156.259 -114.461C194.321 -97.7438 237.149 -94.5452 277.941 -89.5209C298.51 -86.9862 319.516 -83.9988 338.713 -75.7911C357.473 -67.7645 372.613 -54.095 388.704 -41.9041C405.156 -29.4417 422.634 -18.8199 442.464 -12.6793C461.043 -6.93085 481.07 -4.80347 498.638 3.91724C507.513 8.3454 515.327 14.6398 521.544 22.3695C528.014 30.351 533.759 38.4229 542.536 44.0506C550.664 49.2559 559.803 52.4544 568.73 55.9548C579.008 59.763 588.617 65.1761 597.201 71.993C613.035 84.9534 627.829 99.0302 644.025 111.568C660.93 124.701 678.551 136.885 696.805 148.065C705.673 153.467 714.721 158.591 723.95 163.44C724.628 163.802 725.231 162.776 724.553 162.414C686.743 142.164 651.333 117.719 618.992 89.54C611.256 82.8561 603.912 75.6895 595.844 69.3829C588.485 63.7354 580.361 59.1634 571.716 55.8039C562.035 51.8962 551.976 48.6372 543.064 42.9642C533.503 36.8235 527.758 27.7106 520.444 19.2766C508.726 5.69757 492.455 -1.10699 475.445 -5.51257C454.785 -10.8687 434.276 -14.9877 415.411 -25.5339C397.782 -35.4013 382.657 -48.6332 366.506 -60.628C350.815 -72.3594 332.815 -80.6283 313.695 -84.889C293.971 -89.4153 273.748 -91.0297 253.722 -93.6399C232.248 -96.4462 210.668 -99.2526 189.616 -104.488C169.53 -109.497 149.85 -117.026 132.629 -128.628C117.215 -139.308 103.834 -152.659 93.1188 -168.052C44.6513 -236.475 44.2894 -329.702 79.1094 -403.964C96.557 -441.17 121.123 -474.997 134.348 -514.104C141.194 -533.724 143.905 -554.55 142.31 -575.27C140.512 -594.141 135.519 -612.57 127.547 -629.767C123.353 -638.923 118.599 -647.811 113.311 -656.381C112.904 -657.03 111.803 -656.381 112.27 -655.778V-655.838Z" fill="#C0C0C0"/>
<path opacity="0.9" d="M119.976 -656.351C141.375 -617.123 151.433 -572.509 138.977 -528.694C127.019 -486.645 99.6332 -451.581 79.4259 -413.439C59.505 -375.856 48.7529 -334.862 49.7935 -292.179C50.5779 -253.522 61.4984 -215.749 81.4617 -182.642C90.6844 -167.366 102.119 -153.542 115.392 -141.619C130.031 -128.803 146.962 -118.877 165.292 -112.364C205.269 -97.7891 248.987 -96.2955 290.849 -91.2411C311.961 -88.7214 333.661 -85.2059 352.677 -75.2179C371 -65.6674 385.627 -50.7155 401.808 -38.087C418.276 -25.2323 435.995 -15.1688 456.353 -10.0842C475.113 -5.39197 495.245 -4.50177 512.843 4.11328C521.983 8.77081 529.949 15.4407 536.142 23.6217C542.174 31.241 548.206 38.2417 556.817 43.1452C565.427 48.0487 574.777 50.8852 583.961 54.3705C594.35 58.2333 603.947 63.9598 612.281 71.2687C627.995 85.074 642.819 99.7393 659.12 112.896C675.433 126.162 692.612 138.325 710.543 149.302C719.229 154.573 728.117 159.487 737.205 164.043C737.853 164.375 738.411 163.409 737.778 163.092C699.595 143.916 665.062 118.101 633.484 89.4042C625.748 82.3733 618.404 74.8294 610.396 68.1456C603.126 62.1824 594.943 57.4293 586.163 54.0687C576.511 50.2515 566.438 47.3547 557.375 42.1796C547.98 36.8235 541.948 28.8723 535.207 20.6796C523.46 6.39154 507.671 -0.68457 489.967 -4.51685C468.854 -9.04321 447.637 -11.5477 428.214 -21.913C409.56 -31.8558 394.163 -46.1589 377.891 -59.421C362.66 -71.8533 346.314 -80.9965 327.237 -86.0207C307.528 -91.1958 287.109 -92.8253 266.917 -95.0733C244.885 -97.4723 222.732 -99.7053 200.956 -103.945C180.176 -107.988 159.637 -114.189 141.088 -124.6C124.192 -134.323 109.279 -147.145 97.1299 -162.395C44.0932 -227.649 37.9254 -322.324 72.7152 -397.431C90.3891 -435.558 116.779 -469.007 132.885 -507.903C141.073 -527.683 145.944 -548.55 145.793 -570.019C145.455 -590.648 141.33 -611.038 133.624 -630.174C129.98 -639.364 125.759 -648.313 120.987 -656.97C120.64 -657.604 119.675 -656.97 120.022 -656.397L119.976 -656.351Z" fill="#C0C0C0"/>
<path opacity="0.9" d="M127.682 -656.879C148.056 -614.951 154.947 -567.666 138.872 -523.067C124.033 -481.877 95.2752 -447.945 74.525 -409.909C53.9406 -371.948 43.8671 -330.049 46.4458 -286.929C48.6833 -248.04 61.3637 -210.475 83.1508 -178.192C93.3212 -163.099 105.711 -149.63 119.901 -138.239C135.317 -126.253 152.812 -117.215 171.505 -111.579C213.262 -98.5134 258.005 -98.453 301.194 -93.4741C322.306 -91.0298 343.946 -87.1372 362.661 -76.5155C380.621 -66.3162 394.6 -50.8664 410.359 -37.725C426.118 -24.5836 443.037 -14.2786 462.883 -9.51093C482.728 -4.74323 504.036 -5.55798 523.203 2.31781C533.091 6.59845 541.735 13.3152 548.327 21.8413C554.6 29.5059 560.662 36.4915 569.439 41.2441C578.216 45.9968 587.776 48.6069 597.066 52.0016C607.876 55.8297 617.795 61.8206 626.216 69.6091C641.703 83.9273 656.195 99.1206 672.3 112.79C688.111 126.328 704.945 138.622 722.653 149.559C731.643 155.069 740.915 160.105 750.43 164.647C751.034 164.933 751.561 164.043 750.958 163.756C712.217 145.334 678.212 118.493 647.373 88.8911C639.833 81.649 632.655 73.9091 624.753 66.9687C617.449 60.5371 609.046 55.4771 599.946 52.0319C589.933 48.1694 579.392 45.514 569.891 40.3842C560.391 35.2543 554.117 27.1974 547.181 19.0048C534.649 4.17358 517.609 -2.01239 498.924 -4.81866C477.073 -8.07764 455.705 -9.96356 435.98 -20.9172C417.763 -31.026 403.045 -45.6008 387.528 -59.2551C372.644 -72.3513 356.583 -82.3846 337.386 -87.8011C317.782 -93.3383 297.288 -94.9527 277.066 -96.8538C254.446 -98.9359 231.826 -100.671 209.326 -104.156C187.807 -107.491 166.393 -112.771 146.759 -122.412C129.29 -131.179 113.621 -143.15 100.568 -157.702C43.6107 -220.256 31.8935 -316.38 66.9397 -392.467C84.9302 -431.544 113.145 -464.722 131.784 -503.452C141.104 -522.916 147.422 -543.556 148.825 -565.161C150.019 -586.385 147.221 -607.645 140.576 -627.836C137.262 -637.967 133.23 -647.85 128.512 -657.408C128.225 -657.996 127.335 -657.483 127.622 -656.879H127.682Z" fill="#C0C0C0"/>
<path opacity="0.9" d="M135.388 -657.407C154.299 -613.457 158.099 -564.392 139.294 -519.702C122.072 -478.784 91.5504 -445.561 70.016 -407.087C49.6253 -371.084 40.1505 -329.921 42.748 -288.621C45.3455 -247.322 59.9029 -207.672 84.6437 -174.51C95.398 -159.977 108.251 -147.122 122.781 -136.368C139.731 -123.996 158.974 -115.774 179.256 -110.538C222.325 -99.4335 267.535 -100.656 311.479 -95.6616C333.088 -93.2023 355.12 -88.7364 373.744 -76.9077C391.554 -65.5768 405.141 -49.0707 421.036 -35.4315C436.93 -21.7922 454.77 -11.2911 475.671 -7.48901C495.727 -3.85291 516.975 -5.87463 536.217 1.71448C546.577 5.80322 554.314 12.638 561.416 21.1022C568.172 29.2043 574.898 35.9787 584.609 40.4748C593.462 44.5787 603.007 46.8871 612.161 50.2214C623.066 54.1907 632.948 60.5464 641.085 68.8246C656.165 83.7162 670.355 99.1962 686.219 113.228C701.76 127.184 718.521 139.717 736.3 150.675C745.132 156.069 754.288 160.911 763.716 165.175C764.274 165.431 764.756 164.601 764.198 164.36C724.885 146.647 691.346 118.629 661.171 88.2425C646.905 73.879 634.404 57.886 615.026 50.3422C604.938 46.4043 594.276 44.0657 584.474 39.4186C574.174 34.5302 567.509 26.8355 560.346 18.2958C554.29 10.9151 546.554 5.09454 537.786 1.3222C529.47 -1.92664 520.729 -3.95923 511.833 -4.71289C501.096 -5.87463 490.299 -6.22168 479.622 -7.73047C468.056 -9.36298 456.865 -13.0035 446.551 -18.488C428.018 -28.5515 413.375 -43.6543 398.295 -58.048C383.803 -71.8533 368.225 -83.1238 348.953 -89.2041C329.047 -95.4806 308.025 -97.1252 287.32 -98.7396C264.625 -100.49 241.839 -101.757 219.219 -104.367C196.252 -107.038 173.269 -111.489 151.946 -120.692C133.503 -128.847 116.786 -140.451 102.695 -154.881C42.7059 -215.503 26.2384 -312.864 62.2648 -389.978C80.7681 -429.568 110.521 -462.293 131.166 -500.646C141.435 -519.732 148.87 -540.055 151.599 -561.631C154.24 -583.623 152.638 -605.919 146.879 -627.307C144.089 -637.754 140.52 -647.977 136.203 -657.89C135.961 -658.448 135.147 -657.966 135.388 -657.407Z" fill="#C0C0C0"/>
<path opacity="0.9" d="M143.034 -658.041C160.482 -611.933 161.13 -561.087 139.535 -516.217C119.931 -475.706 87.7803 -443.207 65.4618 -404.371C43.4823 -366.281 34.5835 -322.035 40.1272 -278.404C45.1322 -239.563 60.7207 -202.847 85.1866 -172.277C96.9198 -157.466 110.867 -144.555 126.536 -134C144.482 -122.065 164.674 -114.567 185.665 -110.055C230.167 -100.52 276.236 -103.085 321.281 -97.9851C342.875 -95.5409 364.772 -90.7128 383.109 -78.3711C400.813 -66.3915 414.008 -49.1915 429.737 -34.9335C445.465 -20.6757 463.26 -9.72198 484.462 -6.38757C505.152 -3.15881 526.822 -6.6441 546.954 0.085022C557.963 3.75134 566.242 10.5408 573.676 19.2615C580.598 27.3787 587.475 34.1229 597.397 38.4531C606.883 42.5872 617.077 44.7145 626.788 48.2299C637.779 52.3326 647.629 59.0061 655.516 67.6931C670.264 83.1882 684.319 99.166 700.078 113.665C715.202 127.856 731.712 140.493 749.36 151.385C758.233 156.768 767.475 161.517 777.016 165.597C777.514 165.809 777.967 165.054 777.454 164.843C737.763 147.914 704.783 119.006 675.407 87.9861C661.443 73.2303 649.152 56.0453 629.654 48.3657C619.233 44.2618 608.119 42.1647 597.835 37.6836C586.992 32.9763 580.04 25.1759 572.44 16.4854C566.61 9.51276 559.187 4.04773 550.8 0.552795C542.066 -2.71161 532.867 -4.56049 523.55 -4.92407C512.572 -5.6181 501.548 -5.31635 490.6 -6.43286C478.467 -7.57587 466.679 -11.1088 455.916 -16.8283C437.186 -27.0125 422.815 -42.749 408.052 -57.7763C393.575 -72.502 378.027 -84.7985 358.197 -91.3465C338.366 -97.8946 317.48 -99.5543 296.791 -100.882C273.839 -102.391 250.811 -103.19 227.89 -105.091C204.606 -107.023 181.262 -110.448 159.215 -118.474C139.749 -125.706 121.878 -136.662 106.6 -150.732C43.2639 -208.306 20.7191 -306.512 56.4439 -384.908C74.8718 -425.373 106.103 -457.752 129.115 -495.396C140.968 -514.783 150.137 -535.544 154.314 -557.979C158.363 -580.257 158.107 -603.105 153.56 -625.286C151.254 -636.528 148.036 -647.563 143.939 -658.283C143.743 -658.796 142.898 -658.569 143.094 -658.056L143.034 -658.041Z" fill="#C0C0C0"/>
<path opacity="0.9" d="M150.74 -658.614C166.468 -610.922 164.312 -558.9 140.395 -514.285C118.815 -473.986 84.9149 -442.166 61.6011 -403.013C38.9287 -364.95 30.186 -320.185 36.8697 -276.382C43.0625 -236.257 60.5726 -198.732 87.3428 -168.218C100.004 -153.607 114.878 -141.073 131.422 -131.073C150.498 -119.681 171.806 -113.088 193.627 -109.422C239.199 -101.772 285.782 -105.499 331.595 -100.233C353.989 -97.6683 376.338 -91.9953 394.57 -78.1448C412.078 -64.8374 424.941 -46.6115 441.077 -31.8406C456.579 -17.6431 474.359 -7.30798 495.516 -4.93921C517.322 -2.495 540.048 -7.63989 561.22 -0.322388C572.093 3.43445 579.814 10.5559 587.218 19.0804C594.2 27.1071 601.439 33.1271 611.452 37.0197C621.465 40.9124 631.795 42.7228 641.702 46.3892C652.681 50.4628 661.307 57.2976 669.133 65.9278C683.685 81.966 697.469 98.5173 713.122 113.56C728.28 128.466 745.081 141.601 763.203 152.712C771.889 157.891 780.964 162.385 790.347 166.156C790.815 166.352 791.01 165.597 790.558 165.401C749.661 148.986 716.726 118.403 687.682 86.0095C673.898 70.6502 661.94 53.1183 641.883 45.6951C631.961 42.0288 621.48 40.158 611.633 36.3257C606.006 34.2523 600.777 31.2258 596.176 27.3787C592.236 23.671 588.548 19.7041 585.137 15.5046C579.128 8.32367 571.398 2.78479 562.668 -0.593933C553.514 -3.97357 543.652 -4.99957 534.015 -5.12024C522.751 -5.28625 511.395 -4.44135 500.206 -5.22589C488.09 -5.9328 476.265 -9.21973 465.522 -14.8669C446.43 -25.1718 432.164 -41.6174 417.657 -57.3238C403.482 -72.683 388.266 -85.9904 368.315 -93.0364C348.364 -100.082 327.177 -101.817 306.321 -102.934C282.54 -104.216 258.713 -104.578 234.947 -105.951C211.422 -107.249 187.791 -109.844 165.232 -116.905C144.449 -123.474 125.194 -134.145 108.606 -148.288C42.5097 -204.203 14.9885 -304.053 52.2816 -383.792C71.3428 -424.529 103.976 -456.318 128.708 -493.359C141.556 -512.596 151.765 -533.296 157.103 -555.882C162.272 -578.099 163.214 -601.091 159.878 -623.656C158.106 -635.58 155.301 -647.328 151.494 -658.765C151.328 -659.233 150.574 -659.037 150.724 -658.554L150.74 -658.614Z" fill="#C0C0C0"/>
<path opacity="0.9" d="M158.446 -659.067C172.455 -609.791 167.418 -556.606 141.285 -512.264C117.835 -472.417 82.4722 -441.351 58.1027 -402.123C46.0962 -383.133 37.8059 -362.034 33.6729 -339.947C29.7386 -317.527 29.8561 -294.582 34.0198 -272.203C41.677 -232.069 60.6382 -194.96 88.6701 -165.246C101.911 -151.001 117.285 -138.902 134.242 -129.383C154.178 -118.354 176.255 -112.349 198.725 -109.286C246.423 -102.753 294.921 -108.154 342.679 -102.3C365.3 -99.5393 387.301 -93.0667 405.081 -78.326C421.805 -64.4604 434.035 -46.1741 449.643 -31.1769C465.25 -16.1797 483.211 -5.43726 504.971 -3.64178C527.592 -1.78601 550.921 -8.51508 573.103 -1.52948C584.127 1.9256 591.908 8.86591 599.418 17.3452C606.536 25.3568 614.016 31.3768 624.18 35.0733C634.66 38.9056 645.805 40.52 656.255 44.488C667.822 48.8635 676.417 56.7091 684.289 66.0182C711.901 98.7887 739.573 131.982 776.971 153.995C785.451 158.975 794.328 163.244 803.512 166.759C803.935 166.91 804.116 166.231 803.693 166.065C762.615 150.419 730.283 119.082 702.129 86.281C688.557 70.4841 676.749 51.4736 656.466 43.8091C646.453 40.007 635.791 38.3624 625.688 34.8621C619.459 32.8712 613.651 29.7458 608.557 25.6434C604.519 21.9351 600.73 17.9634 597.217 13.7544C590.867 6.34338 582.604 0.821289 573.33 -2.20844C564.328 -4.78796 554.966 -5.87854 545.612 -5.43719C533.639 -5.18073 521.71 -3.62665 509.707 -4.07928C497.047 -4.36157 484.642 -7.69464 473.545 -13.7958C454.513 -24.4478 440.655 -41.4365 426.525 -57.5502C412.953 -73.1509 398.219 -86.9562 378.6 -94.5453C358.378 -102.376 336.376 -104.126 314.872 -105.107C291.09 -106.148 267.309 -106.072 243.528 -106.721C219.068 -107.385 194.427 -109.15 170.706 -115.532C148.937 -121.433 128.595 -131.7 110.913 -145.708C41.9971 -199.873 9.16776 -301.443 48.1348 -382.585C67.9199 -423.835 102.257 -455.157 128.738 -491.835C142.385 -510.74 153.454 -531.154 159.893 -553.695C166.534 -577.022 168.578 -601.419 165.91 -625.527C164.613 -636.934 162.368 -648.214 159.2 -659.248C159.176 -659.338 159.117 -659.415 159.036 -659.462C158.956 -659.508 158.86 -659.521 158.77 -659.497C158.68 -659.473 158.603 -659.414 158.557 -659.334C158.51 -659.253 158.497 -659.157 158.521 -659.067H158.446Z" fill="#C0C0C0"/>
<path opacity="0.9" d="M166.152 -659.58C178.216 -609.791 170.962 -556.38 143.758 -512.656C118.74 -472.462 81.2355 -442.03 55.358 -402.516C42.8652 -383.836 34.2027 -362.861 29.8726 -340.807C25.7514 -318.125 25.956 -294.869 30.4758 -272.263C38.4683 -231.527 59.6709 -193.143 88.8208 -163.632C102.782 -149.364 118.886 -137.365 136.549 -128.07C156.998 -117.509 179.452 -111.956 202.238 -109.376C251.369 -103.809 301.088 -110.538 350.219 -104.85C373.835 -102.104 396.696 -95.1487 414.807 -79.201C431.154 -64.747 442.962 -46.0835 458.283 -30.6638C473.605 -15.2442 491.897 -3.77753 514.08 -2.49512C537.333 -1.15228 560.828 -9.26947 583.855 -3.23438C595.542 -0.216858 603.776 6.72351 611.708 15.4895C619.354 23.9235 627.301 29.9133 638.249 33.4438C648.67 36.8084 659.633 38.2418 669.918 42.0891C681.982 46.6154 690.653 55.14 698.57 65.0526C725.096 98.321 752.164 132.389 789.367 154.342C798.075 159.479 807.243 163.793 816.753 167.227C817.13 167.362 817.295 166.759 816.918 166.623C775.207 151.535 743.222 119.202 715.701 85.6171C702.34 69.3224 690.728 49.2105 670.083 41.4856C659.799 37.6382 648.836 36.2049 638.415 32.8403C632.966 31.1989 627.803 28.7255 623.109 25.5077C617.831 21.7509 613.714 16.6814 609.356 11.9288C602.925 4.60767 594.563 -0.752136 585.228 -3.53613C575.788 -6.23682 565.805 -6.47827 556.063 -5.84454C543.591 -5.04492 531.241 -2.82703 518.724 -2.99298C506.201 -2.96375 493.874 -6.10931 482.894 -12.1361C463.441 -23.0294 449.718 -40.8782 435.708 -57.7463C421.699 -74.6144 406.875 -89.355 386.231 -97.2912C365.963 -105.076 343.901 -106.736 322.396 -107.43C297.967 -108.23 273.567 -107.672 249.137 -107.792C223.501 -107.913 197.578 -109.075 172.591 -115.336C151.13 -120.743 130.932 -130.291 113.13 -143.445C40.8962 -196.478 2.89432 -301.141 45.3599 -384.018C66.472 -425.283 102.438 -455.851 130.291 -492.197C144.798 -511.162 156.515 -531.742 163.709 -554.509C170.843 -577.253 173.701 -601.123 172.138 -624.909C171.342 -636.654 169.541 -648.309 166.755 -659.746C166.664 -660.138 166.061 -659.972 166.152 -659.58Z" fill="#C0C0C0"/>
<path opacity="0.9" d="M173.858 -660.123C184.112 -609.202 174.446 -555.188 145.567 -511.811C119.087 -472.04 80.2705 -442.528 53.0509 -403.345C39.7201 -384.124 29.9783 -362.835 25.7408 -339.751C21.6187 -316.475 22.2032 -292.609 27.4599 -269.563C36.5985 -228.63 59.2337 -190.518 89.409 -161.595C104.275 -147.199 121.332 -135.257 139.942 -126.214C161.522 -115.894 185.062 -111.127 208.798 -109.15C258.563 -105.152 308.794 -112.937 358.544 -107.34C382.446 -104.654 405.458 -97.4119 423.479 -80.8758C439.901 -65.7881 451.437 -46.4154 466.683 -30.2867C481.582 -14.52 499.739 -2.38947 521.952 -1.28809C546.487 -0.0810547 570.826 -10.1597 595.271 -4.63757C600.767 -3.44006 606.012 -1.29584 610.773 1.69928C616.232 5.19958 620.485 10.0276 624.873 14.7501C632.189 22.9661 641.719 28.8962 652.319 31.8294C662.966 34.847 674.125 36.1143 684.485 40.1428C696.7 44.8954 705.099 54.114 712.82 64.2831C738.547 98.3511 765.33 133.521 802.864 155.368C811.477 160.383 820.57 164.522 830.008 167.724C830.34 167.83 830.476 167.302 830.159 167.196C787.814 152.833 756.161 119.323 729.258 84.9835C716.711 68.9754 705.582 48.1996 685.948 40.0673C675.241 35.6315 663.599 34.4094 652.515 31.2561C646.486 29.6849 640.756 27.1365 635.55 23.7122C630.151 19.9705 625.974 14.8859 621.495 10.1333C614.895 2.78076 606.278 -2.46631 596.719 -4.95441C586.494 -7.51935 575.742 -7.26282 565.352 -6.07092C552.489 -4.56213 539.716 -1.8916 526.747 -1.83124C514.373 -1.64154 502.174 -4.76715 491.414 -10.8839C471.509 -22.3354 457.967 -41.2555 444.018 -58.893C430.581 -75.8969 415.848 -91.1505 395.369 -99.3582C374.89 -107.566 352.738 -109.15 331.068 -109.663C305.597 -110.267 280.187 -109.18 254.717 -108.743C228.855 -108.305 202.736 -108.743 177.341 -114.265C155.103 -119.058 134.024 -128.178 115.302 -141.106C40.4137 -192.661 -3.31857 -299.633 41.9217 -384.199C64.3157 -426.037 102.378 -456.047 131.89 -492.423C147.196 -511.298 159.652 -532.059 167.63 -555.083C175.464 -577.804 179.112 -601.759 178.397 -625.784C178.027 -637.363 176.685 -648.89 174.385 -660.244C174.31 -660.576 173.797 -660.44 173.858 -660.093V-660.123Z" fill="#C0C0C0"/>
<path opacity="0.9" d="M181.563 -660.606C189.993 -609.097 178.276 -554.917 148.387 -512.052C120.052 -471.497 78.5814 -442.468 49.6728 -402.41C35.8142 -383.219 25.7708 -361.673 21.6087 -338.348C17.599 -314.77 18.5699 -290.614 24.4589 -267.435C34.7133 -225.959 58.8415 -187.757 90.374 -159.211C105.902 -144.936 123.601 -133.222 142.808 -124.509C165.171 -114.552 189.375 -110.297 213.684 -108.969C264.881 -106.178 316.319 -115.366 367.426 -109.648C391.946 -106.902 415.169 -99.0112 433.145 -81.5396C449.733 -65.4561 461.013 -45.0123 476.666 -28.1593C491.746 -11.8193 510.476 0.145203 533.367 0.130127C558.34 0.130127 582.785 -11.0347 607.833 -5.7088C613.531 -4.58813 618.968 -2.40796 623.863 0.718567C629.096 4.18878 633.243 8.89612 637.541 13.4073C644.745 21.2783 654.065 26.9044 664.383 29.6116C675.542 32.6291 687.23 33.6249 698.072 37.8041C710.574 42.6323 718.928 52.3789 726.558 63.0007C751.486 97.7024 777.665 133.913 815.245 155.866C824.076 161.028 833.447 165.207 843.188 168.328C843.474 168.419 843.595 167.966 843.309 167.875C799.923 154.025 768.391 118.901 741.955 83.4596C729.665 66.9989 718.883 45.6046 698.811 37.6081C688.029 33.308 676.327 32.2821 665.167 29.34C659.266 27.9332 653.629 25.5846 648.474 22.3845C643.377 19.0652 639.32 14.5389 635.173 10.1484C627.829 2.37823 619.867 -3.43054 609.296 -5.93512C599.192 -8.33405 588.606 -7.94177 578.396 -6.56879C565.201 -4.80353 552.263 -1.3786 538.947 -0.533691C526.089 0.477783 513.212 -2.22986 501.85 -8.33405C481.145 -19.7554 467.482 -39.7165 453.593 -58.1235C440.428 -75.6856 425.982 -91.92 405.428 -100.731C384.647 -109.663 361.56 -111.293 339.211 -111.655C313.65 -112.017 288.18 -110.523 262.664 -109.512C236.048 -108.441 209.115 -108.139 182.74 -112.862C159.573 -117.042 137.469 -125.792 117.714 -138.601C81.1299 -162.229 51.9951 -197.73 34.9094 -237.667C15.3052 -283.519 13.194 -337.126 37.1865 -381.785C60.4551 -425.132 101.217 -454.93 132.825 -491.548C148.972 -509.856 161.852 -530.807 170.902 -553.483C179.858 -576.587 184.554 -601.124 184.76 -625.904C184.828 -637.573 183.91 -649.227 182.016 -660.742C182.016 -661.044 181.518 -660.908 181.563 -660.621V-660.606Z" fill="#C0C0C0"/>
<path opacity="0.9" d="M189.269 -661.179C195.662 -610.374 183.256 -558.984 154.389 -516.699C128.496 -479.071 90.6907 -452.215 60.3495 -418.599C46.1742 -402.938 33.6577 -385.527 25.6652 -365.913C15.8632 -341.969 13.3146 -315.475 16.5116 -289.916C22.2571 -243.989 46.4305 -200.899 78.8678 -168.415C94.8788 -152.233 113.387 -138.733 133.684 -128.432C155.46 -117.539 178.924 -111.76 203.128 -109.754C255.003 -105.454 306.849 -115.23 358.785 -113.329C383.546 -112.409 409.318 -108.35 429.903 -93.5494C450.487 -78.7484 462.581 -56.2979 477.707 -36.7894C491.46 -19.0765 509.209 -2.08771 532.417 0.85437C559.003 4.24915 584.232 -9.31476 610.834 -8.10773C624.014 -7.77124 636.529 -2.24023 645.654 7.2818C653.646 15.4141 660.809 22.5355 671.908 26.1414C683.007 29.7474 694.528 30.4414 705.552 33.5042C718.732 37.1404 728.172 44.9256 736.21 55.8189C749.872 74.407 762.132 93.84 777.047 111.523C791.478 128.647 807.855 144.55 827.203 156.032C836.407 161.512 846.247 165.844 856.504 168.932C856.546 168.932 856.588 168.918 856.622 168.893C856.656 168.867 856.681 168.831 856.693 168.79C856.705 168.749 856.703 168.706 856.688 168.666C856.673 168.626 856.645 168.592 856.609 168.569C810.826 154.825 779.007 116.366 752.557 78.707C746.042 69.428 740.1 59.5758 732.862 50.84C726.197 42.5271 717.136 36.469 706.909 33.4891C695.87 30.2452 684.289 29.506 673.25 26.1414C666.954 24.3504 661.099 21.2675 656.059 17.0888C651.535 13.2565 647.81 8.70001 643.542 4.64142C626.577 -11.5024 602.675 -9.84277 581.352 -5.37683C567.071 -2.35931 552.7 1.57861 537.936 0.944946C525.074 0.244141 512.722 -4.32562 502.498 -12.1663C482.487 -26.9372 470.182 -48.9803 455.282 -68.368C448.453 -77.6663 440.375 -85.9775 431.275 -93.0667C421.895 -99.8698 411.352 -104.901 400.165 -107.913C377.258 -114.401 353.024 -114.205 329.424 -113.752C303.411 -113.269 277.503 -110.734 251.52 -109.588C225.115 -108.486 198.332 -108.788 172.47 -114.748C149.196 -120.329 127.233 -130.394 107.807 -144.38C69.8047 -171.251 39.7802 -210.766 24.866 -254.973C15.9609 -280.633 13.3744 -308.064 17.3259 -334.938C21.111 -358.731 31.1996 -380.608 45.4503 -399.905C72.0516 -435.95 109.209 -462.233 138.54 -495.818C170.195 -531.796 188.731 -577.444 191.124 -625.316C191.663 -637.292 191.158 -649.291 189.616 -661.179C189.616 -661.406 189.209 -661.421 189.239 -661.179H189.269Z" fill="#C0C0C0"/>
<path opacity="0.9" d="M473.194 40.3692C473.749 40.305 474.261 40.0389 474.632 39.6216C475.004 39.2044 475.209 38.665 475.209 38.1061C475.209 37.5472 475.004 37.0078 474.632 36.5905C474.261 36.1732 473.749 35.9072 473.194 35.843C472.639 35.9072 472.127 36.1732 471.755 36.5905C471.384 37.0078 471.178 37.5472 471.178 38.1061C471.178 38.665 471.384 39.2044 471.755 39.6216C472.127 40.0389 472.639 40.305 473.194 40.3692Z" fill="#C0C0C0"/>
<path opacity="0.9" d="M60.4664 54.0386C61.0213 53.9744 61.5333 53.7084 61.9049 53.2911C62.2765 52.8738 62.4819 52.3344 62.4819 51.7755C62.4819 51.2166 62.2765 50.6772 61.9049 50.2599C61.5333 49.8426 61.0213 49.5765 60.4664 49.5123C59.9115 49.5765 59.3995 49.8426 59.0279 50.2599C58.6563 50.6772 58.4509 51.2166 58.4509 51.7755C58.4509 52.3344 58.6563 52.8738 59.0279 53.2911C59.3995 53.7084 59.9115 53.9744 60.4664 54.0386Z" fill="#C0C0C0"/>
<path opacity="0.9" d="M500.549 50.1611C500.828 50.1289 501.086 49.995 501.273 49.785C501.46 49.5749 501.564 49.3034 501.564 49.022C501.564 48.7407 501.46 48.4691 501.273 48.2591C501.086 48.049 500.828 47.9152 500.549 47.8829C500.269 47.9152 500.012 48.049 499.824 48.2591C499.637 48.4691 499.534 48.7407 499.534 49.022C499.534 49.3034 499.637 49.5749 499.824 49.785C500.012 49.995 500.269 50.1289 500.549 50.1611Z" fill="#C0C0C0"/>
<path opacity="0.9" d="M443.154 7.77976C443.434 7.74753 443.691 7.61367 443.879 7.40363C444.066 7.19359 444.169 6.92202 444.169 6.64065C444.169 6.35928 444.066 6.08776 443.879 5.87771C443.691 5.66767 443.434 5.53381 443.154 5.50159C442.875 5.53381 442.617 5.66767 442.43 5.87771C442.243 6.08776 442.139 6.35928 442.139 6.64065C442.139 6.92202 442.243 7.19359 442.43 7.40363C442.617 7.61367 442.875 7.74753 443.154 7.77976Z" fill="#C0C0C0"/>
<path opacity="0.9" d="M20.7904 5.04891C21.0943 5.04891 21.3858 4.9281 21.6008 4.71306C21.8157 4.49801 21.9365 4.20633 21.9365 3.90221C21.9365 3.59809 21.8157 3.30645 21.6008 3.09141C21.3858 2.87636 21.0943 2.75555 20.7904 2.75555C20.4864 2.75555 20.1949 2.87636 19.98 3.09141C19.765 3.30645 19.6443 3.59809 19.6443 3.90221C19.6443 4.20633 19.765 4.49801 19.98 4.71306C20.1949 4.9281 20.4864 5.04891 20.7904 5.04891Z" fill="#C0C0C0"/>
<path opacity="0.9" d="M48.161 19.8499C48.7159 19.7857 49.2279 19.5196 49.5995 19.1024C49.9711 18.6851 50.1764 18.1457 50.1764 17.5868C50.1764 17.0279 49.9711 16.4885 49.5995 16.0712C49.2279 15.6539 48.7159 15.3879 48.161 15.3237C47.6061 15.3879 47.0941 15.6539 46.7225 16.0712C46.3509 16.4885 46.1455 17.0279 46.1455 17.5868C46.1455 18.1457 46.3509 18.6851 46.7225 19.1024C47.0941 19.5196 47.6061 19.7857 48.161 19.8499Z" fill="#C0C0C0"/>
</g>
</g>
</g>
</g>
</svg>
