<svg width="174" height="67" viewBox="0 0 174 67" fill="none" xmlns="http://www.w3.org/2000/svg">
<path d="M9.93542 26.0501C9.38542 25.4121 7.91142 24.9281 6.39342 24.9281C4.94142 24.9281 3.73142 25.3461 2.74142 26.1821C1.75142 27.0181 1.26742 28.0521 1.26742 29.2841C1.26742 30.2521 1.57542 31.0661 2.21342 31.7261C3.18142 32.7161 4.87542 33.2441 6.54742 33.7501C7.38342 33.9921 8.02142 34.2781 8.46142 34.5861C9.25342 35.1361 9.64942 35.9281 9.64942 36.9181C9.64942 37.8421 9.31942 38.6121 8.63742 39.2281C7.95542 39.8441 7.09742 40.1521 6.04142 40.1521C4.56742 40.1521 3.31342 39.3821 2.25742 37.8421C2.01542 37.4901 1.61942 36.6761 1.46542 36.5001C1.35542 36.3461 1.22342 36.2801 1.06942 36.2801C0.761422 36.2801 0.607422 36.4561 0.607422 36.8301C0.607422 36.9841 0.629422 37.2261 0.651422 37.5561C0.717422 38.4141 0.849422 39.0301 1.04742 39.4041C1.64142 40.4821 3.44542 41.1421 5.46942 41.1421C6.98742 41.1421 8.28542 40.7021 9.34142 39.8001C10.5294 38.7881 11.1234 37.5781 11.1234 36.1701C11.1234 34.7401 10.5074 33.6621 9.27542 32.8921C8.65942 32.5181 7.66942 32.1221 6.32742 31.7041C4.98542 31.2861 4.12742 30.8901 3.70942 30.5381C3.07142 29.9881 2.74142 29.3281 2.74142 28.5361C2.74142 27.1061 3.95142 25.8521 5.71142 25.8301C6.61342 25.8301 7.40542 26.1821 8.13142 26.8641C8.50542 27.2381 8.79142 27.6341 9.16542 28.3381L9.47342 28.8661C9.62742 29.1521 9.82542 29.2841 10.0454 29.2841C10.3754 29.2841 10.5294 28.9101 10.5294 28.1401C10.5294 27.1941 10.3314 26.5121 9.93542 26.0501Z" fill="#FDC637"/>
<path d="M15.4576 33.6621C15.4576 32.8921 15.8316 31.7481 16.9536 30.7801C17.5036 30.2961 18.1636 30.0541 18.9116 30.0541C19.7256 30.0541 20.3856 30.2961 20.8696 30.8021C21.3756 31.3081 21.6176 31.8581 21.6176 32.4521C21.6176 33.5301 21.0236 33.8601 19.5936 33.8601H15.6556C15.5236 33.8601 15.4576 33.7941 15.4576 33.6621ZM23.2236 38.5241C23.2236 38.1501 22.8276 37.8861 22.4316 38.2821C22.1676 38.5461 21.6836 39.0521 21.1556 39.3821C20.5396 39.7561 19.8576 39.9321 19.1316 39.9321C17.9216 39.9321 16.9316 39.3601 16.1616 38.2381C15.5896 37.4241 15.3036 36.3241 15.3036 34.9601C15.3036 34.8061 15.3916 34.7401 15.5456 34.7401H21.7716C23.0256 34.7401 23.4656 34.3001 23.4656 33.1561C23.4656 32.1221 23.0476 31.1981 22.2336 30.3841C21.3976 29.5701 20.3416 29.1741 19.0876 29.1741C17.4596 29.1741 16.1176 29.8121 15.0836 31.0661C14.0496 32.3201 13.5216 33.7721 13.5216 35.4661C13.5216 37.1601 14.0056 38.5241 14.9956 39.5801C15.9856 40.6141 17.2396 41.1421 18.7356 41.1421C19.8356 41.1421 20.8256 40.8561 21.6836 40.2841C22.7176 39.6021 23.2236 39.0081 23.2236 38.5241Z" fill="#FDC637"/>
<path d="M34.4874 39.0521C34.6194 38.8541 34.6854 38.6781 34.6854 38.5461C34.6854 38.2821 34.5534 38.1501 34.3114 38.1501C34.1574 38.1501 33.9594 38.2821 33.7174 38.5461C32.9474 39.4041 32.0014 39.8441 30.9234 39.8441C29.6034 39.8441 28.6134 39.2941 27.9314 38.1721C27.4474 37.3801 27.2054 36.3901 27.2054 35.2241C27.2054 33.5521 27.6014 32.2541 28.3714 31.3301C28.9874 30.5821 29.7354 30.2081 30.6154 30.2081C31.5394 30.2081 32.2874 30.6041 32.8374 31.4181C33.2114 31.9241 33.4094 32.8481 33.8494 32.7161C34.2014 32.7161 34.3774 32.2981 34.3774 31.4621C34.3774 30.7361 34.2454 30.2301 33.9814 29.9661C33.4754 29.4381 32.3094 29.1741 31.3634 29.1741C30.0654 29.1741 28.9434 29.5481 27.9974 30.2741C26.3254 31.5281 25.4674 33.6841 25.4674 35.7961C25.4674 37.1821 25.7974 38.3261 26.4574 39.2281C27.4034 40.5261 28.7014 41.1641 30.3514 41.1641C32.1114 41.1641 33.7174 40.2841 34.4874 39.0521Z" fill="#FDC637"/>
<path d="M42.6688 29.1741C42.0528 29.1741 41.4588 29.4381 40.8868 29.9441C40.3368 30.4501 39.9188 30.9561 39.6548 31.4841C39.6328 31.5501 39.6108 31.5721 39.5888 31.5721C39.5668 31.5721 39.5448 31.5501 39.5448 31.5061V29.7241C39.5448 29.3721 39.3908 29.1961 39.1048 29.1961C38.9508 29.1961 38.7968 29.2401 38.5988 29.3281C38.1148 29.5261 37.6308 29.6801 37.1468 29.7901C36.7068 29.9001 36.5968 30.0101 36.5968 30.2741C36.5968 30.4501 36.7508 30.5821 37.0808 30.6921C37.4108 30.8021 37.6528 30.9341 37.7628 31.0661C37.9608 31.2861 38.0708 31.9021 38.0708 32.9361C38.0708 32.9141 38.0928 35.9281 38.0928 37.2921C38.0928 38.4141 37.9828 39.1621 37.7848 39.5361C37.6748 39.7781 37.4328 39.9761 37.1028 40.1301C36.8828 40.2401 36.7728 40.3941 36.7728 40.5481C36.7728 40.7901 36.9488 40.9001 37.2788 40.9001H40.5348C40.8648 40.9001 41.0408 40.7901 41.0408 40.5481C41.0408 40.3721 40.9308 40.2401 40.7108 40.1301C40.3808 39.9321 40.1608 39.7781 40.0728 39.6241C39.8528 39.2501 39.7428 38.4581 39.7428 37.2921C39.7428 35.6201 39.7868 34.4321 39.8748 33.7061C39.9848 32.9801 40.1828 32.3641 40.4688 31.8581C40.8868 31.1981 41.3708 30.8681 41.9428 30.8681C42.4048 30.8681 42.9548 31.3301 43.3068 31.3301C43.7248 31.3301 43.9228 31.0441 43.9228 30.4501C43.9228 29.7681 43.5488 29.1741 42.6688 29.1741Z" fill="#FDC637"/>
<path d="M46.6959 33.6621C46.6959 32.8921 47.0699 31.7481 48.1919 30.7801C48.7419 30.2961 49.4019 30.0541 50.1499 30.0541C50.9639 30.0541 51.6239 30.2961 52.1079 30.8021C52.6139 31.3081 52.8559 31.8581 52.8559 32.4521C52.8559 33.5301 52.2619 33.8601 50.8319 33.8601H46.8939C46.7619 33.8601 46.6959 33.7941 46.6959 33.6621ZM54.4619 38.5241C54.4619 38.1501 54.0659 37.8861 53.6699 38.2821C53.4059 38.5461 52.9219 39.0521 52.3939 39.3821C51.7779 39.7561 51.0959 39.9321 50.3699 39.9321C49.1599 39.9321 48.1699 39.3601 47.3999 38.2381C46.8279 37.4241 46.5419 36.3241 46.5419 34.9601C46.5419 34.8061 46.6299 34.7401 46.7839 34.7401H53.0099C54.2639 34.7401 54.7039 34.3001 54.7039 33.1561C54.7039 32.1221 54.2859 31.1981 53.4719 30.3841C52.6359 29.5701 51.5799 29.1741 50.3259 29.1741C48.6979 29.1741 47.3559 29.8121 46.3219 31.0661C45.2879 32.3201 44.7599 33.7721 44.7599 35.4661C44.7599 37.1601 45.2439 38.5241 46.2339 39.5801C47.2239 40.6141 48.4779 41.1421 49.9739 41.1421C51.0739 41.1421 52.0639 40.8561 52.9219 40.2841C53.9559 39.6021 54.4619 39.0081 54.4619 38.5241Z" fill="#FDC637"/>
<path d="M63.6577 38.7001C63.4157 38.7001 62.5797 39.6681 61.5237 39.6681C60.7977 39.6681 60.2917 39.3161 60.0497 38.6341C59.8517 38.0841 59.7417 36.8741 59.7417 35.0041C59.7417 32.9361 59.7637 31.6601 59.7857 31.1541C59.7857 30.9561 59.8737 30.8681 60.0497 30.8681C60.5337 30.8681 60.9297 30.8681 61.2597 30.8901C61.6117 30.8901 62.4917 30.9781 62.7777 30.9781C63.3937 30.9781 63.5917 30.8681 63.7017 30.3401C63.7017 30.2741 63.7677 30.0981 63.7677 30.0101C63.7677 29.7681 63.5697 29.6581 63.1517 29.6581C62.9977 29.6581 62.7117 29.6801 62.2937 29.7241C61.8757 29.7461 61.5897 29.7681 61.4357 29.7681C61.0617 29.7901 60.6877 29.7901 60.2697 29.7901C59.8957 29.7901 59.7857 29.6801 59.7857 29.3501V26.9961C59.7857 26.8421 59.7197 26.7761 59.5657 26.7761H58.8397C58.7077 26.7761 58.6197 26.8421 58.5977 26.9961C58.5757 27.1721 58.4657 27.7661 58.3997 27.9201L58.3117 28.2281C58.2457 28.6021 58.1577 28.7781 57.9597 29.0201C57.6957 29.3281 57.2117 29.5921 56.5297 29.8121C56.4197 29.8561 56.3537 29.9221 56.3537 30.0321V30.6481C56.3537 30.8021 56.4417 30.8681 56.5957 30.8681H57.9597C58.1137 30.8681 58.1797 30.9561 58.1797 31.1101C58.1797 31.9241 58.1577 33.0461 58.1137 34.4541C58.0697 35.8401 58.0477 36.8301 58.0477 37.4021C58.0477 38.5241 58.2017 39.3821 58.5317 39.9321C59.0157 40.7461 59.7857 41.1421 60.8197 41.1421C62.2057 41.1421 63.2837 40.3721 63.8337 39.4921C63.9437 39.2941 64.0097 39.1181 64.0097 39.0081C64.0097 38.8101 63.8997 38.7001 63.6577 38.7001Z" fill="#FDC637"/>
<path d="M66.2326 37.1161C65.9026 37.1161 65.7486 37.4021 65.7486 37.9521C65.7486 38.8981 65.9466 39.5801 66.3206 40.0421C66.8706 40.6361 68.3006 41.1421 69.7746 41.1421C70.7646 41.1421 71.6666 40.9221 72.4586 40.4601C73.5806 39.8221 74.1746 38.6781 74.1746 37.5561C74.1746 36.5661 73.8006 35.8181 73.0746 35.3121C72.3486 34.7841 71.7766 34.5421 70.7206 34.2121L70.1486 34.0581L69.5546 33.8601C69.3126 33.7721 68.7186 33.5521 68.5206 33.3761C68.1686 33.0681 67.7286 32.6281 67.7946 31.9681C67.7946 30.9121 68.6526 30.1421 69.7746 30.1421C70.6766 30.1421 71.2266 30.4941 71.6446 31.0001C71.9966 31.3741 72.0406 31.5061 72.2826 31.9461L72.5026 32.3201C72.6566 32.5621 72.8106 32.6941 73.0086 32.6941C73.4046 32.6941 73.6026 32.2981 73.6026 31.5061C73.6026 30.7141 73.4046 30.1421 72.9866 29.8121C72.4586 29.3941 71.6446 29.1741 70.5446 29.1741C69.3566 29.1741 68.3446 29.4821 67.4866 30.0981C66.6506 30.6921 66.2326 31.5061 66.2326 32.5401C66.2326 34.2341 67.5086 35.0921 69.4226 35.6421C70.4786 35.9281 70.8746 36.0601 71.6006 36.4781C72.3266 36.8521 72.6566 37.4241 72.6566 38.1501C72.6566 39.4041 71.5786 40.2181 70.2586 40.2181C69.0926 40.2181 68.1246 39.6461 67.3986 38.4801C66.7606 37.4461 66.6506 37.1161 66.2326 37.1161Z" fill="#FDC637"/>
<path d="M98.7974 39.8441C98.4234 39.6461 98.1814 39.3821 98.0714 39.0521C97.8954 38.6341 97.8074 37.8861 97.8074 36.7861V28.6241C97.8074 27.8541 97.8294 27.3041 97.8954 27.0181C97.9614 26.7321 98.1154 26.4901 98.4014 26.3141C98.8194 26.0721 99.1494 26.0281 99.1494 25.6321C99.1494 25.3461 98.9294 25.1921 98.4894 25.1921H94.6614C94.3534 25.1921 94.1334 25.3461 93.9794 25.6541L90.2834 34.1681C90.2614 34.2121 90.2394 34.2341 90.1734 34.2341C90.1294 34.2341 90.0854 34.2121 90.0634 34.1461L86.3234 25.6321C86.2134 25.3461 85.9274 25.1921 85.4874 25.1921H81.8354C81.3294 25.1921 81.0654 25.3461 81.0654 25.6761C81.0654 26.1161 81.5494 26.2041 81.9014 26.3801C82.1434 26.4901 82.3194 26.6001 82.4074 26.7541C82.4734 26.8641 82.4954 27.0621 82.4954 27.3481C82.4954 31.5941 82.4954 34.3441 82.4734 35.5981C82.4514 37.6001 82.2094 38.8981 81.7474 39.4701C81.6814 39.5581 81.5054 39.6901 81.2634 39.8881C81.0214 40.0861 80.8894 40.2621 80.8894 40.4161C80.8894 40.7461 81.1754 40.9001 81.7254 40.9001H85.4874C86.0154 40.9001 86.2794 40.7241 86.2794 40.3941C86.2794 40.0201 85.8614 39.8881 85.4874 39.7121C84.8934 39.4261 84.6294 39.2721 84.3434 38.4801C84.1894 38.0841 84.1234 37.5781 84.1014 36.9401C84.0574 35.4881 84.0354 32.4961 84.0354 27.9421C84.0354 27.8761 84.0794 27.8321 84.1454 27.8321C84.1674 27.8321 84.2114 27.8541 84.2334 27.8981L88.5454 37.9521C88.6554 38.2821 88.7874 38.3481 89.0734 38.3481H89.8434C90.1074 38.3481 90.1954 38.3041 90.3494 37.9521L94.6834 27.9201C94.7054 27.8101 94.8814 27.7881 94.8814 27.9421V36.1261C94.8814 37.6661 94.7934 38.6341 94.6174 39.0521C94.5074 39.3821 94.2654 39.6461 93.8914 39.8441C93.5614 40.0421 93.4074 40.2181 93.4074 40.4161C93.4074 40.7461 93.6494 40.9001 94.1554 40.9001H98.5334C99.0394 40.9001 99.2814 40.7461 99.2814 40.4161C99.2814 40.2181 99.1274 40.0421 98.7974 39.8441Z" fill="#FDC637"/>
<path d="M107.578 35.3561C107.578 36.6981 107.446 37.6221 107.204 38.1501C106.786 39.0081 105.972 39.4701 105.158 39.4701C104.278 39.4701 103.618 38.8981 103.618 37.9961C103.618 37.3361 103.948 36.7861 104.586 36.3461C104.916 36.1261 105.4 35.8621 106.082 35.5761C106.764 35.2901 107.204 35.0481 107.446 34.8721L107.512 34.8501C107.556 34.8501 107.578 34.8721 107.578 34.9161V35.3561ZM111.362 39.3381C111.274 39.3381 111.054 39.3601 110.988 39.3601C110.57 39.3601 110.372 38.7661 110.372 37.6001C110.372 37.1601 110.394 36.4121 110.416 35.3561C110.438 34.2781 110.46 33.4861 110.46 32.9361C110.46 31.8141 110.042 30.8901 109.184 30.2081C108.326 29.5261 107.226 29.1741 105.884 29.1741C105.092 29.1741 104.366 29.2621 103.684 29.4161C102.826 29.6141 102.232 29.9001 101.946 30.2741C101.682 30.6041 101.55 31.1541 101.55 31.9241C101.55 32.7381 101.792 33.1561 102.276 33.1561C102.562 33.1561 102.804 33.0461 102.958 32.8481L103.42 32.1881C103.706 31.7701 103.992 31.4401 104.278 31.1981C104.762 30.8021 105.29 30.6041 105.884 30.6041C106.082 30.6041 106.258 30.6261 106.434 30.6701C107.204 30.8681 107.578 31.4621 107.578 32.1441C107.578 32.9581 106.984 33.6401 105.818 34.1901C105.598 34.3001 105.026 34.4981 104.124 34.8281C103.222 35.1581 102.562 35.4441 102.144 35.7081C101.154 36.3241 100.67 37.1821 100.67 38.2601C100.67 39.1401 101 39.8441 101.682 40.3721C102.364 40.8781 103.178 41.1421 104.124 41.1421C105.532 41.1421 106.94 40.5041 107.732 39.3381L107.82 39.3601C108.018 40.5701 108.81 41.1421 109.756 41.1421C110.548 41.1421 111.296 40.7681 111.648 40.2401C111.758 40.0861 111.802 39.9321 111.802 39.7781C111.802 39.4921 111.648 39.3381 111.362 39.3381Z" fill="#FDC637"/>
<path d="M121.695 29.6361C121.409 29.3281 121.013 29.1741 120.507 29.1741C119.869 29.1741 119.275 29.4161 118.681 29.9221C118.109 30.4281 117.691 30.9781 117.405 31.5721C117.383 31.6161 117.383 31.6381 117.361 31.6381C117.339 31.6381 117.317 31.6161 117.317 31.5501V29.8341C117.317 29.3941 117.119 29.1741 116.745 29.1741C116.591 29.1741 116.415 29.2181 116.217 29.3061C115.623 29.5701 114.853 29.8121 113.885 30.0321C113.445 30.1421 113.225 30.3181 113.225 30.6041C113.225 30.8021 113.423 30.9781 113.841 31.1321C114.215 31.2861 114.457 31.4841 114.589 31.7261C114.743 32.0121 114.809 32.5401 114.809 33.3321V36.7421C114.809 37.9081 114.721 38.7001 114.545 39.0741C114.413 39.3601 114.171 39.6241 113.797 39.8441C113.489 40.0201 113.335 40.2181 113.335 40.4161C113.335 40.7461 113.577 40.9001 114.061 40.9001H118.263C118.747 40.9001 118.989 40.7461 118.989 40.4161C118.989 40.2181 118.835 40.0421 118.527 39.8441C118.153 39.6241 117.911 39.3601 117.779 39.0741C117.603 38.7001 117.515 37.9081 117.515 36.7421C117.515 34.3661 117.889 32.8041 118.637 32.0561C118.945 31.7481 119.275 31.5941 119.605 31.5941C119.847 31.5941 120.111 31.6821 120.419 31.8581C120.749 32.0561 121.035 32.1441 121.255 32.1441C121.805 32.1441 122.135 31.6821 122.135 30.9781C122.135 30.3841 121.981 29.9441 121.695 29.6361Z" fill="#FDC637"/>
<path d="M126.436 35.3341C126.458 32.6061 127.58 31.1541 129.186 31.1541C130.044 31.1541 130.748 31.5721 131.254 32.3861C131.782 33.2001 132.046 34.2121 132.046 35.4661C132.046 38.0181 131.012 39.7561 129.34 39.7561C127.558 39.7561 126.436 38.1501 126.436 35.3341ZM134.048 38.0181C134.576 36.9621 134.84 35.8181 134.84 34.5641C134.84 33.0901 134.444 31.8141 133.63 30.7581C132.816 29.7021 131.716 29.1741 130.33 29.1741C128.922 29.1741 127.734 29.7681 126.766 30.9561C126.7 31.0221 126.656 31.0661 126.59 31.0661C126.502 31.0661 126.458 31.0001 126.458 30.8681V25.1261C126.458 24.6861 126.282 24.4661 125.93 24.4661C125.798 24.4661 125.644 24.5101 125.446 24.5761C124.72 24.8621 123.862 25.1041 122.872 25.3461C122.366 25.4561 122.212 25.6101 122.212 25.8961C122.212 26.0941 122.41 26.2701 122.828 26.4241C123.202 26.5781 123.466 26.7761 123.576 27.0181C123.708 27.3261 123.774 27.8761 123.774 28.6461V40.3061C123.774 40.8561 123.95 41.1421 124.324 41.1421C124.566 41.1421 124.764 40.9441 124.962 40.5481C125.116 40.2401 125.292 40.0861 125.512 40.0861C125.666 40.0861 125.908 40.1961 126.238 40.3941C127.052 40.9001 128.02 41.1421 129.098 41.1421C131.056 41.1421 132.904 40.1961 134.048 38.0181Z" fill="#FDC637"/>
<path d="M139.373 33.3981C139.373 32.8921 140.033 30.5161 142.079 30.5381C143.421 30.5381 144.279 31.5061 144.279 32.5401C144.279 33.3321 143.795 33.6181 142.651 33.6181H139.593C139.439 33.6181 139.373 33.5521 139.373 33.3981ZM146.347 38.0181C145.973 38.0181 144.807 39.1401 142.981 39.1401C141.749 39.1401 140.803 38.6781 140.121 37.7321C139.615 37.0061 139.351 36.1701 139.351 35.2241C139.351 35.0701 139.439 34.9821 139.615 34.9821H145.225C146.655 34.9821 147.029 34.5421 147.029 33.4641C147.029 32.4081 146.501 31.1321 145.423 30.2301C144.565 29.5261 143.531 29.1741 142.321 29.1741C141.375 29.1741 140.517 29.3941 139.725 29.8341C137.679 30.9781 136.535 33.2001 136.535 35.4881C136.535 36.2581 136.667 37.0281 136.953 37.7981C137.811 40.0201 139.769 41.1201 141.991 41.1201C143.267 41.1201 144.411 40.7901 145.401 40.1521C146.171 39.6461 146.809 38.9201 146.809 38.4801C146.809 38.2381 146.633 38.0181 146.347 38.0181Z" fill="#FDC637"/>
<path d="M153.542 39.8441C153.19 39.6021 152.948 39.3381 152.794 39.0521C152.618 38.7001 152.53 37.9301 152.53 36.7421V25.1261C152.53 24.6861 152.354 24.4661 152.002 24.4661C151.892 24.4661 151.606 24.5541 151.122 24.7301C150.484 24.9721 149.758 25.1921 148.944 25.3461C148.504 25.4561 148.284 25.6321 148.284 25.8961C148.284 26.0941 148.482 26.2701 148.878 26.4241C149.252 26.5781 149.494 26.7761 149.648 27.0401C149.758 27.2601 149.824 27.7881 149.824 28.6461V36.7421C149.824 37.9081 149.736 38.7001 149.56 39.0741C149.428 39.3601 149.164 39.6241 148.79 39.8441C148.482 40.0201 148.328 40.2181 148.328 40.4161C148.328 40.7461 148.57 40.9001 149.054 40.9001H153.278C153.762 40.9001 154.004 40.7461 154.004 40.4161C154.004 40.2401 153.85 40.0421 153.542 39.8441Z" fill="#FDC637"/>
<path d="M160.783 39.8441C160.431 39.6021 160.189 39.3381 160.035 39.0521C159.859 38.7001 159.771 37.9301 159.771 36.7421V25.1261C159.771 24.6861 159.595 24.4661 159.243 24.4661C159.133 24.4661 158.847 24.5541 158.363 24.7301C157.725 24.9721 156.999 25.1921 156.185 25.3461C155.745 25.4561 155.525 25.6321 155.525 25.8961C155.525 26.0941 155.723 26.2701 156.119 26.4241C156.493 26.5781 156.735 26.7761 156.889 27.0401C156.999 27.2601 157.065 27.7881 157.065 28.6461V36.7421C157.065 37.9081 156.977 38.7001 156.801 39.0741C156.669 39.3601 156.405 39.6241 156.031 39.8441C155.723 40.0201 155.569 40.2181 155.569 40.4161C155.569 40.7461 155.811 40.9001 156.295 40.9001H160.519C161.003 40.9001 161.245 40.7461 161.245 40.4161C161.245 40.2401 161.091 40.0421 160.783 39.8441Z" fill="#FDC637"/>
<path d="M169.324 35.3561C169.324 36.6981 169.192 37.6221 168.95 38.1501C168.532 39.0081 167.718 39.4701 166.904 39.4701C166.024 39.4701 165.364 38.8981 165.364 37.9961C165.364 37.3361 165.694 36.7861 166.332 36.3461C166.662 36.1261 167.146 35.8621 167.828 35.5761C168.51 35.2901 168.95 35.0481 169.192 34.8721L169.258 34.8501C169.302 34.8501 169.324 34.8721 169.324 34.9161V35.3561ZM173.108 39.3381C173.02 39.3381 172.8 39.3601 172.734 39.3601C172.316 39.3601 172.118 38.7661 172.118 37.6001C172.118 37.1601 172.14 36.4121 172.162 35.3561C172.184 34.2781 172.206 33.4861 172.206 32.9361C172.206 31.8141 171.788 30.8901 170.93 30.2081C170.072 29.5261 168.972 29.1741 167.63 29.1741C166.838 29.1741 166.112 29.2621 165.43 29.4161C164.572 29.6141 163.978 29.9001 163.692 30.2741C163.428 30.6041 163.296 31.1541 163.296 31.9241C163.296 32.7381 163.538 33.1561 164.022 33.1561C164.308 33.1561 164.55 33.0461 164.704 32.8481L165.166 32.1881C165.452 31.7701 165.738 31.4401 166.024 31.1981C166.508 30.8021 167.036 30.6041 167.63 30.6041C167.828 30.6041 168.004 30.6261 168.18 30.6701C168.95 30.8681 169.324 31.4621 169.324 32.1441C169.324 32.9581 168.73 33.6401 167.564 34.1901C167.344 34.3001 166.772 34.4981 165.87 34.8281C164.968 35.1581 164.308 35.4441 163.89 35.7081C162.9 36.3241 162.416 37.1821 162.416 38.2601C162.416 39.1401 162.746 39.8441 163.428 40.3721C164.11 40.8781 164.924 41.1421 165.87 41.1421C167.278 41.1421 168.686 40.5041 169.478 39.3381L169.566 39.3601C169.764 40.5701 170.556 41.1421 171.502 41.1421C172.294 41.1421 173.042 40.7681 173.394 40.2401C173.504 40.0861 173.548 39.9321 173.548 39.7781C173.548 39.4921 173.394 39.3381 173.108 39.3381Z" fill="#FDC637"/>
<path d="M132.231 52.4008C132.231 52.3767 132.223 52.3606 132.223 52.3364C132.247 52.1431 132.231 51.9336 132.166 51.7242C132.102 51.5147 131.989 51.3214 131.86 51.1683C131.788 51.0878 131.707 51.0153 131.627 50.9508C131.619 50.9428 131.611 50.9347 131.611 50.9267C131.401 50.7172 131.159 50.6044 130.966 50.5642C130.805 50.5319 130.676 50.5481 130.579 50.5642C130.418 50.4997 130.193 50.4433 129.919 50.4514C129.879 50.4514 129.838 50.4514 129.79 50.4594C129.75 50.4675 129.701 50.4675 129.661 50.4756C129.572 50.4917 129.476 50.5158 129.395 50.5319C129.234 50.5722 129.057 50.6205 128.888 50.6608C128.638 50.7172 128.421 50.7494 128.259 50.7172C128.098 50.685 127.945 50.5642 127.832 50.4353C127.72 50.3064 127.631 50.1856 127.567 50.105C127.502 50.0244 127.47 49.9761 127.47 49.9761C127.47 49.9761 127.47 49.9922 127.47 50.0164C127.47 50.0406 127.478 50.0889 127.486 50.1372C127.502 50.2419 127.526 50.395 127.599 50.5803C127.639 50.6689 127.687 50.7736 127.768 50.8783C127.8 50.9186 127.937 51.2731 127.961 51.4261C127.986 51.5711 128.018 51.7483 128.09 51.9336C128.139 52.0625 128.203 52.1914 128.308 52.3042C128.404 52.4169 128.638 52.6506 128.936 52.6828C129.371 52.7231 129.653 52.5297 129.758 52.4733C129.967 52.3525 130.169 52.0947 130.306 51.8772C130.402 51.7161 130.483 51.5711 130.547 51.4503C130.612 51.3214 130.676 51.2247 130.749 51.1522C130.821 51.0797 130.845 51.0475 130.966 51.0556C130.99 51.0394 131.329 51.1925 131.385 51.2489C131.57 51.4422 131.699 51.555 131.788 51.8531C131.86 52.0706 131.917 52.4653 131.723 52.9808C131.594 53.3192 131.474 53.3997 131.425 53.4883C131.377 53.5769 131.353 53.6333 131.353 53.6333C131.353 53.6333 131.401 53.6011 131.49 53.5447C131.578 53.4883 131.699 53.3917 131.828 53.2386C131.884 53.1742 131.941 53.0936 131.997 53.005C131.997 53.013 131.997 53.0131 131.997 53.0211C131.941 53.2306 131.86 53.44 131.739 53.6414C131.619 53.8428 131.457 54.028 131.272 54.1972C130.894 54.5355 130.41 54.8014 129.871 55.0028C129.83 55.0189 129.782 55.035 129.742 55.043C129.782 55.0108 129.814 54.9786 129.846 54.9464C129.887 54.9142 129.911 54.8819 129.935 54.8658C130.12 54.7692 130.289 54.6806 130.442 54.6081C130.918 54.3744 131.184 54.2456 131.184 54.2456C131.184 54.2456 130.902 54.3422 130.402 54.5194C130.152 54.6161 129.846 54.7289 129.5 54.8658C129.154 55.0028 128.751 55.1639 128.308 55.333C128.203 55.3733 128.098 55.4136 127.986 55.4539C126.729 55.6311 125.343 55.6231 123.885 55.4619C123.136 55.3653 122.363 55.2364 121.581 55.0672C120.8 54.898 119.994 54.6967 119.181 54.463C117.554 54.0039 115.878 53.4319 114.138 52.8681C113.268 52.5861 112.39 52.3122 111.496 52.0142C110.61 51.7242 109.707 51.4261 108.797 51.1361C107.887 50.8381 106.961 50.5561 106.034 50.2822C105.1 50.0164 104.157 49.7506 103.207 49.525C102.731 49.4042 102.248 49.3075 101.765 49.2028C101.523 49.1464 101.281 49.1061 101.04 49.0578C100.798 49.0175 100.556 48.9611 100.315 48.9289C99.8233 48.8564 99.34 48.7678 98.8486 48.7194C98.6069 48.6953 98.3572 48.655 98.1155 48.6308C97.8658 48.6067 97.6241 48.5906 97.3744 48.5744C97.2536 48.5664 97.1328 48.5503 97.0039 48.5503L96.6333 48.5342C96.3836 48.5261 96.1419 48.5181 95.8922 48.5019C95.6505 48.5019 95.4089 48.4939 95.1672 48.4939C94.9255 48.4939 94.6839 48.4858 94.4422 48.4939C94.2005 48.4939 93.9589 48.4939 93.7172 48.5019C93.4755 48.51 93.2339 48.5181 92.9922 48.5181L92.6297 48.5261L92.2672 48.5422C92.0255 48.5583 91.7839 48.5664 91.5503 48.5825C90.5917 48.655 89.6411 48.7758 88.7066 48.9692C88.5939 48.9933 88.473 49.0175 88.3603 49.0497C88.2475 49.0739 88.1266 49.0981 88.0139 49.1303C87.7883 49.1947 87.5547 49.2592 87.3291 49.3155C87.1036 49.388 86.878 49.4686 86.6605 49.5411C86.5478 49.5733 86.443 49.6217 86.3303 49.6619C86.2255 49.7022 86.1128 49.7505 86.008 49.7908C85.9033 49.8392 85.7905 49.8714 85.6858 49.9278C85.5811 49.9761 85.4764 50.0244 85.3717 50.0728C85.1622 50.1694 84.9528 50.2661 84.7514 50.3789C84.55 50.4917 84.3486 50.5964 84.1553 50.7092C83.9619 50.83 83.7686 50.9428 83.5833 51.0636C83.4866 51.12 83.398 51.1844 83.3014 51.2489C83.2128 51.3133 83.1161 51.3778 83.0275 51.4342C82.9389 51.4986 82.8422 51.555 82.7536 51.6194C82.665 51.6839 82.5764 51.7483 82.4878 51.8128C82.3186 51.9417 82.1414 52.0706 81.9722 52.1994C81.8836 52.2639 81.803 52.3364 81.7144 52.4089C81.6258 52.4814 81.5453 52.5458 81.4647 52.6264C81.3841 52.6989 81.3036 52.7714 81.223 52.8519C81.1425 52.9244 81.07 53.005 80.9894 53.0856L80.9814 53.0936L80.9733 53.0856C80.8928 53.005 80.8203 52.9325 80.7397 52.8519C80.6592 52.7794 80.5786 52.7069 80.498 52.6264C80.4175 52.5539 80.3369 52.4814 80.2483 52.4089C80.1597 52.3364 80.0792 52.2639 79.9905 52.1994C79.8214 52.0706 79.6441 51.9417 79.475 51.8128C79.3864 51.7483 79.3058 51.6839 79.2092 51.6194C79.1205 51.555 79.0319 51.4986 78.9353 51.4342C78.8466 51.3697 78.75 51.3133 78.6614 51.2489C78.5728 51.1844 78.4761 51.12 78.3794 51.0636C78.1861 50.9428 78.0008 50.83 77.8075 50.7092C77.6142 50.5964 77.4128 50.4917 77.2114 50.3789C77.01 50.2661 76.8005 50.1694 76.5911 50.0728C76.4864 50.0244 76.3816 49.9761 76.2769 49.9278C76.1722 49.8794 76.0594 49.8392 75.9547 49.7908C75.85 49.7505 75.7372 49.7022 75.6325 49.6619C75.5278 49.6217 75.415 49.5733 75.3022 49.5411C75.0767 49.4686 74.8592 49.388 74.6336 49.3155C74.408 49.2511 74.1744 49.1867 73.9489 49.1303C73.8361 49.0981 73.7153 49.0739 73.6025 49.0497C73.4897 49.0255 73.3689 49.0014 73.2561 48.9692C72.3216 48.7758 71.3711 48.6469 70.4125 48.5825C70.1708 48.5583 69.9292 48.5503 69.6955 48.5422L69.333 48.5261L68.9705 48.5181C68.7289 48.51 68.4872 48.5019 68.2455 48.5019C68.0039 48.5019 67.7622 48.5019 67.5205 48.4939C67.2789 48.4939 67.0372 48.4939 66.7955 48.4939C66.5539 48.4939 66.3122 48.5019 66.0705 48.5019C65.8289 48.51 65.5792 48.518 65.3294 48.5342L64.9589 48.5503C64.838 48.5583 64.7092 48.5664 64.5883 48.5744C64.3386 48.5906 64.0969 48.6147 63.8472 48.6308C63.5975 48.655 63.3558 48.6872 63.1142 48.7194C62.6228 48.7678 62.1394 48.8564 61.648 48.9289C61.4064 48.9692 61.1647 49.0175 60.923 49.0578C60.6814 49.1061 60.4397 49.1464 60.198 49.2028C59.7147 49.3075 59.2314 49.4042 58.7561 49.525C57.7975 49.7506 56.863 50.0164 55.9286 50.2822C54.9942 50.5561 54.0758 50.8381 53.1655 51.1361C52.2553 51.4261 51.353 51.7242 50.4669 52.0142C49.5728 52.3042 48.7028 52.5861 47.8247 52.8681C46.0847 53.4319 44.4092 53.9958 42.7819 54.463C41.9683 54.6967 41.1708 54.898 40.3814 55.0672C39.6 55.2364 38.8267 55.3653 38.0775 55.4619C36.6194 55.6311 35.2339 55.6311 33.9772 55.4539C33.8644 55.4136 33.7597 55.3733 33.655 55.333C33.2119 55.1558 32.8172 55.0028 32.4628 54.8658C32.1083 54.7289 31.8103 54.6161 31.5605 54.5194C31.0611 54.3422 30.7792 54.2456 30.7792 54.2456C30.7792 54.2456 31.045 54.3744 31.5203 54.6081C31.6653 54.6806 31.8344 54.7692 32.0278 54.8658C32.0519 54.89 32.0761 54.9142 32.1164 54.9464C32.1486 54.9706 32.1808 55.0028 32.2211 55.043C32.1808 55.0269 32.1325 55.0189 32.0922 55.0028C31.5444 54.8014 31.0611 54.5355 30.6905 54.1972C30.5053 54.028 30.3441 53.8428 30.2233 53.6414C30.1025 53.44 30.0219 53.2306 29.9655 53.0211C29.9655 53.0131 29.9655 53.013 29.9655 53.005C30.0219 53.0936 30.0783 53.1742 30.1347 53.2386C30.2636 53.3836 30.3925 53.4803 30.473 53.5447C30.5617 53.6011 30.61 53.6333 30.61 53.6333C30.61 53.6333 30.5858 53.5769 30.5375 53.4883C30.4891 53.3997 30.3683 53.3192 30.2394 52.9808C30.0461 52.4733 30.1105 52.0706 30.175 51.8531C30.2636 51.555 30.3844 51.4422 30.5778 51.2489C30.6342 51.1925 30.9725 51.0475 30.9967 51.0556C31.1094 51.0475 31.1417 51.0797 31.2142 51.1522C31.2867 51.2247 31.343 51.3294 31.4155 51.4503C31.48 51.5711 31.5525 51.7242 31.6572 51.8772C31.7941 52.0867 31.9955 52.3525 32.205 52.4733C32.3097 52.5297 32.5917 52.7231 33.0267 52.6828C33.3247 52.6506 33.5583 52.4169 33.655 52.3042C33.7517 52.1914 33.8161 52.0625 33.8725 51.9336C33.945 51.7403 33.9772 51.5711 34.0014 51.4261C34.0255 51.2811 34.1705 50.9186 34.1947 50.8783C34.2753 50.7736 34.3236 50.6769 34.3639 50.5803C34.4364 50.395 34.4605 50.2419 34.4767 50.1372C34.4847 50.0889 34.4847 50.0406 34.4928 50.0164C34.4928 49.9922 34.4928 49.9761 34.4928 49.9761C34.4928 49.9761 34.4605 50.0244 34.3961 50.105C34.3317 50.1856 34.243 50.3064 34.1303 50.4353C34.0094 50.5642 33.8644 50.685 33.7033 50.7172C33.5422 50.7575 33.3247 50.7253 33.075 50.6608C32.9058 50.6205 32.7367 50.5722 32.5675 50.5319C32.4869 50.5078 32.3903 50.4917 32.3017 50.4756C32.2533 50.4675 32.213 50.4675 32.1728 50.4594C32.1325 50.4514 32.0842 50.4514 32.0439 50.4514C31.77 50.4433 31.5444 50.4997 31.3833 50.5642C31.2867 50.5481 31.1578 50.5319 30.9967 50.5642C30.7953 50.5964 30.5536 50.7172 30.3522 50.9267C30.3442 50.9347 30.3361 50.9428 30.3361 50.9508C30.2555 51.0153 30.175 51.0878 30.1025 51.1683C29.9736 51.3214 29.8608 51.5067 29.7964 51.7242C29.7319 51.9256 29.7158 52.1431 29.74 52.3364C29.74 52.3606 29.7319 52.3767 29.7319 52.4008C29.7239 52.5056 29.7239 52.6183 29.74 52.7311C29.748 52.7875 29.748 52.8439 29.7561 52.9003C29.7641 52.9567 29.7803 53.0131 29.7883 53.0694C29.8447 53.295 29.9253 53.5286 30.0542 53.7542C30.183 53.9797 30.3442 54.1811 30.5455 54.3744C30.9403 54.753 31.4478 55.043 32.0117 55.2686C32.2775 55.3733 32.5514 55.4619 32.8333 55.5425C33.22 55.8486 33.7355 56.2111 34.388 56.5897C34.4928 56.6461 34.5894 56.7105 34.6942 56.7669C34.7989 56.8233 34.9117 56.8797 35.0244 56.9442C35.25 57.065 35.4836 57.1778 35.7333 57.2986C36.2328 57.5242 36.7725 57.7578 37.3525 57.9592C37.9325 58.1606 38.5608 58.3458 39.2294 58.4747C39.5597 58.5392 39.9061 58.5955 40.2525 58.6278C40.4297 58.6439 40.5989 58.66 40.7761 58.668C40.9533 58.6842 41.1305 58.6842 41.3078 58.6922C43.2572 58.7486 45.0455 58.4586 46.5439 58.1364C48.0422 57.798 49.2586 57.4194 50.0803 57.1455C50.5072 57.0489 51.0308 56.9442 51.6269 56.775C52.223 56.6139 52.8997 56.4205 53.6328 56.2111C54.3578 55.9694 55.1472 55.6956 55.9689 55.3975C56.7825 55.0672 57.6444 54.7369 58.5225 54.3503C59.1669 54.0603 59.7872 53.7783 60.3914 53.4964C61.0036 53.2064 61.5594 52.8842 62.083 52.5619C62.5986 52.2397 63.09 51.9417 63.5492 51.6597C64.0083 51.3778 64.4433 51.1281 64.838 50.9106C65.6436 50.4836 66.3283 50.2097 66.8197 50.0728C66.9405 50.0406 67.0533 50.0083 67.15 49.9842C67.2467 49.9681 67.3272 49.9519 67.3916 49.9358C67.5286 49.9117 67.593 49.8955 67.593 49.8955C67.593 49.8955 67.5205 49.9036 67.3836 49.9117C67.3192 49.9197 67.2305 49.9197 67.1339 49.9278C67.0372 49.9358 66.9244 49.96 66.7955 49.9761C66.28 50.0567 65.5469 50.25 64.693 50.6206C64.2661 50.8058 63.8069 51.0233 63.3236 51.2731C62.8403 51.5228 62.3328 51.7967 61.8011 52.0867C61.2694 52.3767 60.7136 52.6667 60.1175 52.9244C59.5133 53.1822 58.885 53.4561 58.2486 53.7461C57.3786 54.1247 56.5328 54.4872 55.7353 54.8336C54.9297 55.1558 54.1644 55.47 53.4636 55.7519C52.7467 56.0097 52.1022 56.2514 51.5222 56.4689C50.9503 56.6864 50.4428 56.8475 50.0319 56.9925C49.1861 57.1778 47.9455 57.4275 46.4472 57.6611C44.9489 57.8786 43.1847 58.0881 41.3158 58.0317C41.1467 58.0236 40.9694 58.0236 40.8003 58.0156C40.6311 57.9994 40.4619 57.9914 40.2928 57.9753C39.9625 57.943 39.6403 57.9028 39.318 57.8464C38.6817 57.7336 38.0775 57.5886 37.4975 57.4194C36.9255 57.2583 36.3858 57.065 35.8864 56.8797C35.6366 56.783 35.395 56.6944 35.1694 56.5897C35.0566 56.5414 34.9439 56.4931 34.8311 56.4447C34.7264 56.3964 34.6136 56.348 34.5169 56.2997C34.0417 56.0822 33.6308 55.8647 33.2844 55.6633C33.4536 55.7036 33.6308 55.7358 33.808 55.7681C34.6136 56.1467 35.5722 56.5494 36.6919 56.7911C36.845 56.8314 37.0061 56.8556 37.1672 56.8878C37.3283 56.9119 37.4894 56.9522 37.6586 56.9764C37.9889 57.0167 38.3272 57.0731 38.6736 57.0892C39.3664 57.1536 40.0833 57.1536 40.8164 57.1294C42.8142 57.0408 44.6428 56.6461 46.1733 56.2755C46.9386 56.0822 47.6314 55.8889 48.2436 55.7197C48.5497 55.6311 48.8317 55.5505 49.0975 55.47C49.3553 55.3894 49.5969 55.3089 49.8144 55.2444C50.0319 55.1961 50.2817 55.1478 50.5475 55.0914C50.8133 55.0189 51.1033 54.9464 51.4094 54.8658C52.0297 54.7128 52.7144 54.4953 53.4716 54.2536C54.97 53.7622 56.6939 53.1017 58.5144 52.3686C59.8517 51.8208 61.1244 51.3053 62.2925 50.8864C63.4686 50.5078 64.548 50.2097 65.4744 50.0406C65.9417 49.96 66.3525 49.8553 66.7231 49.8231C67.0936 49.7747 67.4319 49.7264 67.6816 49.6378C67.7703 49.6056 67.8428 49.5733 67.9072 49.5411C68.0119 49.5411 68.1166 49.5492 68.2133 49.5492C68.4469 49.5572 68.6886 49.5653 68.9222 49.5814L69.2767 49.5975L69.623 49.6217C69.8567 49.6378 70.0903 49.6539 70.3158 49.678C71.2422 49.7586 72.1364 49.8956 73.0144 50.0889C73.1192 50.1131 73.2319 50.1372 73.3367 50.1614C73.4414 50.1856 73.5541 50.2097 73.6589 50.2419C73.8683 50.3064 74.0778 50.3628 74.2953 50.4272C74.5047 50.4997 74.7061 50.5722 74.9075 50.6447C75.0122 50.6769 75.1089 50.7172 75.2056 50.7656C75.3022 50.8058 75.4069 50.8461 75.5036 50.8864C75.6003 50.9267 75.705 50.9669 75.8017 51.0153C75.8983 51.0636 75.995 51.1119 76.0917 51.1522C76.285 51.2489 76.4783 51.3375 76.6555 51.4422C76.8408 51.5469 77.0261 51.6436 77.2033 51.7564C77.3805 51.8692 77.5578 51.9819 77.735 52.0947C77.8236 52.1511 77.9122 52.2075 77.9928 52.2719C78.0814 52.3283 78.1619 52.3928 78.2505 52.4492C78.3311 52.5055 78.4197 52.57 78.5003 52.6264C78.5808 52.6828 78.6614 52.7553 78.7419 52.8117C78.903 52.9405 79.0642 53.0614 79.2253 53.1903C79.3058 53.2547 79.3783 53.3192 79.4508 53.3756C79.5233 53.44 79.5958 53.4964 79.6683 53.5689C79.7408 53.6333 79.8053 53.6978 79.8778 53.7703C79.9503 53.8347 80.0147 53.9072 80.0791 53.9717C80.1114 54.0039 80.1355 54.0361 80.1678 54.0683C80.0308 54.2456 79.9019 54.4228 79.7811 54.6081C79.5475 54.9544 79.3542 55.3169 79.1689 55.6794C78.9997 56.05 78.8386 56.4125 78.7178 56.7911C78.2022 58.2814 78.1458 59.82 78.46 61.1411C78.613 61.8017 78.8547 62.4058 79.1528 62.9375C79.4186 63.4128 79.7166 63.8236 80.0308 64.1861C79.9825 64.2264 79.9342 64.2667 79.8858 64.3069C79.7972 64.3714 79.7086 64.4358 79.62 64.5003C79.5797 64.5325 79.5314 64.5647 79.4911 64.5889L79.3622 64.6694C79.2736 64.7258 79.185 64.7742 79.0883 64.8225L78.9514 64.895L78.8064 64.9594C78.4278 65.1367 78.025 65.2736 77.6142 65.3783C77.2033 65.475 76.7844 65.5555 76.3655 65.5878C75.5278 65.6683 74.6819 65.628 73.8764 65.4992C73.4736 65.4347 73.0708 65.3542 72.6922 65.2414C72.4989 65.1931 72.3136 65.1286 72.1203 65.0642C72.0236 65.0319 71.935 64.9917 71.8464 64.9594C71.7578 64.9272 71.6611 64.895 71.5725 64.8547C70.1305 64.2667 68.9303 63.3242 68.2133 62.1883C68.173 62.1158 68.1328 62.0433 68.0844 61.9708L68.02 61.8661L67.9636 61.7533C67.9314 61.6808 67.8911 61.6083 67.8589 61.5358C67.8266 61.4633 67.8025 61.3828 67.7703 61.3103L67.73 61.1975C67.7139 61.1572 67.7058 61.125 67.6978 61.0847C67.6736 61.0122 67.6494 60.9317 67.6333 60.8592C67.6172 60.7867 67.6011 60.7061 67.585 60.6336L67.5608 60.5208C67.5528 60.4806 67.5528 60.4483 67.5447 60.4081C67.5367 60.3356 67.5286 60.255 67.5125 60.1825C67.5125 60.11 67.5044 60.0294 67.5044 59.9569L67.4964 59.8442V59.7314C67.4964 59.6589 67.5044 59.5864 67.5044 59.5139C67.5125 59.4414 67.5205 59.3689 67.5286 59.2964C67.5367 59.2642 67.5367 59.2239 67.5447 59.1917L67.5689 59.0869C67.585 59.0144 67.593 58.9419 67.6091 58.8775C67.6253 58.805 67.6494 58.7406 67.6655 58.6761C67.6736 58.6439 67.6817 58.6117 67.6897 58.5714L67.7219 58.4747C67.7461 58.4103 67.7703 58.3458 67.7944 58.2814C67.8186 58.2169 67.8508 58.1525 67.875 58.0961L67.9153 57.9994C67.9314 57.9672 67.9475 57.943 67.9636 57.9108C67.9958 57.8544 68.028 57.79 68.0603 57.7336C68.0925 57.6772 68.1328 57.6208 68.165 57.5644C68.2294 57.4517 68.318 57.3469 68.3905 57.2422C68.7047 56.8314 69.0833 56.5172 69.47 56.2836C69.8567 56.05 70.2594 55.8969 70.6461 55.8083C71.0328 55.7278 71.3953 55.6955 71.7255 55.7197C71.7658 55.7197 71.8061 55.7197 71.8464 55.7278C71.8867 55.7358 71.9269 55.7358 71.9672 55.7439C72.0478 55.7519 72.1203 55.76 72.1928 55.7681C72.233 55.7761 72.2733 55.7842 72.3217 55.7922C71.6611 56.0339 71.1939 56.6622 71.1939 57.4033C71.1939 58.3458 71.9592 59.1192 72.9097 59.1192C73.8603 59.1192 74.6255 58.3539 74.6255 57.4033C74.6255 56.5575 74.0133 55.8567 73.2078 55.7197C73.1755 55.6955 73.1353 55.6794 73.095 55.6553C72.9822 55.6069 72.8694 55.5506 72.7405 55.4861C72.6117 55.4297 72.4666 55.3814 72.3136 55.333C72.233 55.3089 72.1525 55.2928 72.0639 55.2686C72.0236 55.2605 71.9753 55.2444 71.935 55.2364C71.8947 55.2283 71.8464 55.2203 71.798 55.2122C71.4275 55.1397 71.0086 55.1317 70.5494 55.1881C70.0903 55.2444 69.5989 55.3894 69.1236 55.6392C68.6403 55.8889 68.165 56.2433 67.7622 56.7025C67.6655 56.8233 67.5608 56.9361 67.4722 57.0731C67.4239 57.1375 67.3755 57.2019 67.3353 57.2664C67.295 57.3389 67.2547 57.4033 67.2064 57.4758C67.1822 57.5081 67.1661 57.5483 67.1419 57.5806L67.0855 57.6933C67.0453 57.7658 67.013 57.8383 66.9728 57.9189C66.9405 57.9994 66.9083 58.0719 66.8761 58.1525L66.8278 58.2733C66.8116 58.3136 66.8036 58.3539 66.7875 58.3942C66.7633 58.4747 66.7311 58.5633 66.7069 58.6439C66.6828 58.7325 66.6667 58.8131 66.6425 58.9017L66.6103 59.0305C66.6022 59.0708 66.5941 59.1192 66.5861 59.1594C66.57 59.248 66.5619 59.3367 66.5458 59.4253C66.5378 59.5139 66.5297 59.6105 66.5217 59.6992L66.5136 59.8361V59.9731C66.5136 60.0697 66.5136 60.1583 66.5136 60.255C66.5217 60.3517 66.5297 60.4403 66.5378 60.5369C66.5458 60.5853 66.5458 60.6336 66.5539 60.6819L66.578 60.8269C66.5942 60.9236 66.6103 61.0203 66.6264 61.1089C66.6505 61.2055 66.6747 61.2942 66.6989 61.3908C66.715 61.4392 66.723 61.4875 66.7392 61.5358L66.7875 61.6728C66.8197 61.7694 66.8519 61.858 66.8842 61.9547C66.9244 62.0433 66.9647 62.14 67.005 62.2286L67.0694 62.3655L67.1419 62.4944C67.1903 62.583 67.2386 62.6717 67.2869 62.7603C67.4964 63.1067 67.7219 63.445 68.0039 63.7592C68.1328 63.9203 68.2858 64.0653 68.4308 64.2183C68.5033 64.2908 68.5839 64.3633 68.6644 64.4358C68.745 64.5083 68.8175 64.5808 68.9061 64.6453C68.9867 64.7097 69.0672 64.7822 69.1558 64.8467C69.2444 64.9111 69.325 64.9756 69.4136 65.0319L69.5425 65.1286L69.6794 65.2172C69.768 65.2736 69.8567 65.33 69.9533 65.3944C70.05 65.4508 70.1386 65.4992 70.2353 65.5555L70.3803 65.6361L70.5253 65.7086C70.6219 65.7569 70.7186 65.8053 70.8153 65.8536C70.9119 65.9019 71.0167 65.9422 71.1133 65.9905C71.21 66.0389 71.3147 66.0792 71.4194 66.1194C71.5241 66.1597 71.6208 66.2 71.7336 66.2403C71.943 66.3128 72.1525 66.3933 72.37 66.4497C72.7969 66.5786 73.24 66.6833 73.6992 66.7639C74.6014 66.925 75.5519 66.9733 76.5105 66.8928C76.9939 66.8525 77.4772 66.7719 77.9605 66.6592C78.4439 66.5464 78.9191 66.3853 79.3864 66.1678L79.5636 66.0872L79.7328 65.9986C79.8455 65.9342 79.9664 65.8778 80.0711 65.8053L80.2403 65.7005C80.2967 65.6683 80.353 65.6281 80.4014 65.5958C80.5061 65.5233 80.6108 65.4508 80.7155 65.3703C80.8203 65.2897 80.925 65.2092 81.0297 65.1206C81.1344 65.2011 81.2392 65.2897 81.3439 65.3703C81.4486 65.4428 81.5533 65.5153 81.658 65.5958C81.7064 65.6361 81.7628 65.6683 81.8192 65.7005L81.9883 65.8053C82.1011 65.8778 82.2139 65.9342 82.3267 65.9986L82.4958 66.0872L82.673 66.1678C83.1403 66.3853 83.6155 66.5464 84.0989 66.6592C84.5822 66.7719 85.0655 66.8525 85.5489 66.8928C86.5075 66.9733 87.458 66.9169 88.3603 66.7639C88.8114 66.6833 89.2544 66.5867 89.6894 66.4497C89.9069 66.3853 90.1164 66.3128 90.3258 66.2403C90.4305 66.2 90.5353 66.1597 90.64 66.1194C90.7447 66.0792 90.8494 66.0389 90.9461 65.9905C91.0428 65.9422 91.1475 65.9019 91.2442 65.8536C91.3408 65.8053 91.4375 65.7569 91.5341 65.7086L91.6791 65.6361L91.8242 65.5555C91.9208 65.4992 92.0094 65.4508 92.1061 65.3944C92.1947 65.3381 92.2914 65.2736 92.38 65.2172L92.5169 65.1286L92.6458 65.0319C92.7344 64.9675 92.815 64.903 92.9036 64.8467C92.9841 64.7822 93.0728 64.7097 93.1533 64.6453C93.2339 64.5808 93.3144 64.5083 93.395 64.4358C93.4755 64.3633 93.548 64.2989 93.6286 64.2183C93.7736 64.0653 93.9267 63.9203 94.0555 63.7592C94.3294 63.4531 94.563 63.1067 94.7725 62.7603C94.8208 62.6717 94.8692 62.583 94.9175 62.4944L94.99 62.3655L95.0544 62.2286C95.0947 62.14 95.135 62.0433 95.1753 61.9547C95.2075 61.858 95.2397 61.7694 95.2719 61.6728L95.3203 61.5358C95.3364 61.4875 95.3444 61.4392 95.3605 61.3908C95.3847 61.2942 95.4089 61.2055 95.433 61.1089C95.4491 61.0122 95.4652 60.9156 95.4814 60.8269L95.5055 60.6819C95.5136 60.6336 95.5136 60.5853 95.5217 60.5369C95.5297 60.4403 95.5378 60.3517 95.5458 60.255C95.5458 60.1583 95.5458 60.0697 95.5458 59.9731V59.8361L95.5378 59.6992C95.5297 59.6105 95.5216 59.5139 95.5136 59.4253C95.4975 59.3367 95.4894 59.248 95.4733 59.1594C95.4653 59.1192 95.4572 59.0708 95.4492 59.0305L95.4169 58.9017C95.3928 58.8131 95.3766 58.7325 95.3525 58.6439C95.3283 58.5633 95.2961 58.4747 95.2719 58.3942C95.2558 58.3539 95.2477 58.3136 95.2316 58.2733L95.1833 58.1525C95.1511 58.0719 95.1189 57.9994 95.0866 57.9189C95.0464 57.8464 95.0142 57.7658 94.9739 57.6933L94.9175 57.5806C94.8933 57.5483 94.8772 57.5081 94.853 57.4758C94.8128 57.4033 94.7644 57.3389 94.7241 57.2664C94.6839 57.2019 94.6275 57.1375 94.5872 57.0731C94.4986 56.9442 94.3939 56.8233 94.2972 56.7025C93.8944 56.2353 93.4111 55.8889 92.9358 55.6392C92.4525 55.3894 91.9611 55.2444 91.51 55.1881C91.0508 55.1317 90.6319 55.1397 90.2614 55.2122C90.213 55.2203 90.1728 55.2283 90.1244 55.2364C90.0841 55.2444 90.0358 55.2605 89.9955 55.2686C89.915 55.2928 89.8264 55.3089 89.7458 55.333C89.5928 55.3894 89.4478 55.4378 89.3189 55.4861C89.19 55.5425 89.0772 55.5989 88.9644 55.6553C88.9241 55.6794 88.8919 55.7036 88.8516 55.7197C88.0461 55.8567 87.4339 56.5575 87.4339 57.4033C87.4339 58.3458 88.1992 59.1192 89.1497 59.1192C90.0922 59.1192 90.8655 58.3539 90.8655 57.4033C90.8655 56.6622 90.3903 56.0339 89.7378 55.7922C89.778 55.7842 89.8183 55.7761 89.8666 55.7681C89.9391 55.76 90.0197 55.7519 90.0922 55.7439C90.1325 55.7358 90.1728 55.7358 90.213 55.7278C90.2533 55.7278 90.2936 55.7278 90.3339 55.7197C90.6642 55.6955 91.0266 55.7197 91.4133 55.8083C91.8 55.8889 92.2028 56.0419 92.5894 56.2836C92.9761 56.5253 93.3547 56.8394 93.6689 57.2422C93.7414 57.3469 93.83 57.4436 93.8944 57.5644C93.9266 57.6208 93.9669 57.6772 93.9991 57.7336C94.0314 57.79 94.0636 57.8544 94.0958 57.9108C94.1119 57.943 94.128 57.9672 94.1441 57.9994L94.1844 58.0961C94.2086 58.1606 94.2408 58.225 94.265 58.2814C94.2892 58.3458 94.3133 58.4103 94.3375 58.4747L94.3697 58.5714C94.3778 58.6036 94.3858 58.6358 94.3939 58.6761C94.41 58.7406 94.4341 58.8131 94.4502 58.8775C94.4664 58.95 94.4744 59.0144 94.4905 59.0869L94.5147 59.1917C94.5228 59.2239 94.5228 59.2642 94.5308 59.2964C94.5389 59.3689 94.5469 59.4414 94.555 59.5139C94.555 59.5864 94.563 59.6589 94.563 59.7314V59.8442L94.555 59.9569C94.555 60.0294 94.5469 60.11 94.5469 60.1825C94.5389 60.255 94.5308 60.3356 94.5147 60.4081C94.5067 60.4483 94.5066 60.4806 94.4986 60.5208L94.4744 60.6336C94.4583 60.7061 94.4422 60.7867 94.4261 60.8592C94.4019 60.9317 94.3778 61.0122 94.3617 61.0847C94.3536 61.125 94.3375 61.1572 94.3294 61.1975L94.2892 61.3103C94.2569 61.3828 94.2328 61.4553 94.2005 61.5358C94.1683 61.6083 94.128 61.6808 94.0958 61.7533L94.0394 61.8661L93.975 61.9708C93.9347 62.0433 93.8944 62.1158 93.8461 62.1883C93.1291 63.3242 91.9369 64.2667 90.4869 64.8547C90.3983 64.895 90.3097 64.9272 90.213 64.9594C90.1244 64.9917 90.0278 65.0319 89.9392 65.0642C89.7539 65.1286 89.5605 65.1931 89.3672 65.2414C88.9805 65.3542 88.5858 65.4347 88.183 65.4992C87.3775 65.628 86.5316 65.6603 85.6939 65.5878C85.275 65.5475 84.8561 65.475 84.4453 65.3783C84.0344 65.2817 83.6316 65.1367 83.253 64.9594L83.108 64.895L82.9711 64.8225C82.8825 64.7742 82.7858 64.7258 82.6972 64.6694L82.5683 64.5889C82.52 64.5647 82.4797 64.5325 82.4394 64.5003C82.3508 64.4358 82.2622 64.3714 82.1736 64.3069C82.1253 64.2667 82.0769 64.2264 82.0286 64.1861C82.3428 63.8236 82.6408 63.4128 82.9066 62.9375C83.2047 62.4058 83.4464 61.8017 83.5994 61.1411C83.9055 59.82 83.8491 58.2814 83.3416 56.7911C83.2208 56.4125 83.0597 56.05 82.8905 55.6794C82.7053 55.3169 82.5119 54.9544 82.2783 54.6081C82.1575 54.4228 82.0286 54.2456 81.8916 54.0683C81.9239 54.0361 81.948 54.0039 81.9803 53.9717C82.0447 53.9072 82.1091 53.8347 82.1816 53.7703C82.2541 53.7058 82.3186 53.6414 82.3911 53.5689C82.4636 53.5044 82.5361 53.44 82.6086 53.3756C82.6811 53.3111 82.7536 53.2467 82.8342 53.1903C82.9953 53.0694 83.1564 52.9405 83.3175 52.8117C83.398 52.7472 83.4786 52.6828 83.5592 52.6264C83.6397 52.57 83.7283 52.5055 83.8089 52.4492C83.8894 52.3928 83.978 52.3283 84.0667 52.2719C84.1553 52.2155 84.2358 52.1511 84.3244 52.0947C84.5016 51.9819 84.6789 51.8692 84.8561 51.7564C85.0333 51.6436 85.2186 51.5469 85.4039 51.4422C85.5891 51.3375 85.7744 51.2408 85.9678 51.1522C86.0644 51.1039 86.1611 51.0555 86.2578 51.0153C86.3544 50.9669 86.4511 50.9347 86.5558 50.8864C86.6525 50.8461 86.7572 50.8058 86.8539 50.7656C86.9505 50.7253 87.0553 50.685 87.1519 50.6447C87.3533 50.5722 87.5628 50.4997 87.7642 50.4272C87.9736 50.3628 88.183 50.3064 88.4005 50.2419C88.5053 50.2097 88.618 50.1856 88.7228 50.1614C88.8275 50.1372 88.9403 50.1131 89.045 50.0889C89.915 49.8956 90.8172 49.7586 91.7436 49.678C91.9772 49.6539 92.2028 49.6458 92.4364 49.6217L92.7828 49.5975L93.1372 49.5814C93.3708 49.5733 93.6044 49.5653 93.8461 49.5492C93.9508 49.5492 94.0555 49.5411 94.1522 49.5411C94.2166 49.5733 94.2891 49.6136 94.3778 49.6378C94.6355 49.7344 94.9658 49.7828 95.3364 49.8231C95.7069 49.8633 96.1258 49.96 96.585 50.0406C97.5114 50.2097 98.5908 50.5078 99.7669 50.8864C100.927 51.3053 102.2 51.8208 103.545 52.3686C105.366 53.1097 107.089 53.7622 108.588 54.2536C109.345 54.4872 110.03 54.7128 110.65 54.8658C110.956 54.9464 111.246 55.0189 111.512 55.0914C111.778 55.1478 112.027 55.1961 112.245 55.2444C112.462 55.3169 112.696 55.3894 112.962 55.47C113.22 55.5505 113.51 55.6311 113.816 55.7197C114.428 55.8889 115.121 56.0903 115.886 56.2755C117.417 56.6542 119.245 57.0489 121.243 57.1294C121.976 57.1536 122.693 57.1536 123.386 57.0892C123.732 57.0731 124.071 57.0167 124.401 56.9764C124.57 56.9522 124.731 56.92 124.892 56.8878C125.053 56.8556 125.214 56.8394 125.367 56.7911C126.487 56.5414 127.454 56.1467 128.251 55.7681C128.429 55.7358 128.598 55.7036 128.775 55.6633C128.429 55.8647 128.018 56.0742 127.542 56.2997C127.438 56.348 127.333 56.3964 127.228 56.4447C127.116 56.4931 127.003 56.5414 126.89 56.5897C126.664 56.6944 126.423 56.783 126.173 56.8797C125.674 57.065 125.134 57.2583 124.562 57.4194C123.99 57.5805 123.378 57.7336 122.741 57.8464C122.419 57.9028 122.105 57.943 121.767 57.9753C121.597 57.9833 121.428 57.9994 121.259 58.0156C121.09 58.0236 120.921 58.0317 120.744 58.0317C118.875 58.08 117.111 57.8786 115.612 57.6611C114.114 57.4275 112.873 57.1778 112.027 56.9925C111.617 56.8475 111.109 56.6864 110.537 56.4689C109.965 56.2514 109.313 56.0097 108.596 55.7519C107.895 55.4619 107.13 55.1478 106.324 54.8336C105.527 54.4872 104.681 54.1247 103.811 53.7461C103.174 53.4642 102.546 53.1822 101.942 52.9244C101.346 52.6667 100.79 52.3686 100.258 52.0867C99.7267 51.7967 99.2191 51.5228 98.7358 51.2731C98.2525 51.0233 97.7933 50.8058 97.3664 50.6206C96.5125 50.2581 95.7794 50.0567 95.2639 49.9761C95.135 49.96 95.0222 49.9358 94.9255 49.9278C94.8289 49.9197 94.7402 49.9117 94.6758 49.9117C94.5389 49.9036 94.4664 49.8955 94.4664 49.8955C94.4664 49.8955 94.5389 49.9117 94.6678 49.9358C94.7322 49.9519 94.8128 49.9681 94.9094 49.9842C95.0061 50.0083 95.1108 50.0406 95.2397 50.0728C95.7311 50.2097 96.4158 50.4836 97.2214 50.9106C97.6241 51.1281 98.0511 51.3778 98.5103 51.6597C98.9694 51.9417 99.4608 52.2478 99.9764 52.5619C100.5 52.8761 101.056 53.2064 101.668 53.4964C102.272 53.7783 102.892 54.0603 103.537 54.3503C104.415 54.7369 105.277 55.0672 106.091 55.3975C106.92 55.6956 107.702 55.9614 108.427 56.2111C109.16 56.4205 109.836 56.6139 110.432 56.775C111.029 56.9442 111.552 57.0489 111.979 57.1455C112.809 57.4194 114.017 57.798 115.516 58.1364C117.014 58.4586 118.81 58.7486 120.752 58.6922C120.929 58.6842 121.106 58.6842 121.283 58.668C121.461 58.6519 121.638 58.6358 121.807 58.6278C122.153 58.5955 122.5 58.5392 122.83 58.4747C123.499 58.3378 124.119 58.1606 124.707 57.9592C125.295 57.7578 125.827 57.5322 126.326 57.2986C126.576 57.1778 126.809 57.065 127.035 56.9442C127.148 56.8878 127.261 56.8233 127.365 56.7669C127.47 56.7025 127.575 56.6461 127.671 56.5897C128.324 56.2111 128.847 55.8406 129.226 55.5425C129.508 55.4619 129.79 55.3733 130.048 55.2686C130.612 55.043 131.119 54.753 131.514 54.3744C131.707 54.1892 131.876 53.9797 132.005 53.7542C132.134 53.5286 132.215 53.295 132.271 53.0694C132.279 53.0131 132.295 52.9567 132.303 52.9003C132.311 52.8439 132.311 52.7875 132.319 52.7311C132.231 52.6183 132.239 52.5056 132.231 52.4008ZM131.006 50.6528C130.942 50.6367 130.877 50.6286 130.821 50.6206C130.765 50.6206 130.716 50.6125 130.668 50.6125C130.66 50.6125 130.652 50.6044 130.644 50.6044C130.724 50.6044 130.829 50.6044 130.942 50.6367C130.974 50.6447 130.998 50.6528 131.031 50.6608C131.022 50.6608 131.014 50.6528 131.006 50.6528ZM30.9725 50.6367C31.0853 50.6044 31.1819 50.6044 31.2705 50.6044C31.2625 50.6044 31.2544 50.6125 31.2464 50.6125C31.198 50.6125 31.1497 50.6206 31.0933 50.6206C31.0369 50.6286 30.9805 50.6367 30.908 50.6528C30.9 50.6528 30.8919 50.6608 30.8839 50.6608C30.9161 50.6528 30.9483 50.6367 30.9725 50.6367ZM32.35 55.0914C32.2533 55.0269 32.1728 54.9706 32.1083 54.9222C32.1003 54.9142 32.0842 54.9061 32.0761 54.8981C32.1647 54.9464 32.2533 54.9947 32.358 55.043C32.4305 55.0833 32.5111 55.1236 32.5836 55.1639C32.5111 55.1397 32.4305 55.1155 32.35 55.0914ZM67.6414 49.525C67.3917 49.5814 67.0694 49.5975 66.6908 49.6055C66.3122 49.6055 65.8772 49.6619 65.4019 49.7022C64.4514 49.7908 63.3236 50.0164 62.0992 50.3386C60.8828 50.7092 59.5858 51.1925 58.2405 51.7403C56.4119 52.4814 54.7283 53.2064 53.2783 53.7864C52.5453 54.0683 51.8847 54.3422 51.2886 54.5436C50.9905 54.6483 50.7167 54.7531 50.4589 54.8497C50.2011 54.9303 49.9594 55.0108 49.75 55.0753C49.5325 55.1236 49.2908 55.1719 49.025 55.2283C48.7592 55.2847 48.4692 55.3331 48.155 55.3975C47.5347 55.5183 46.8258 55.6553 46.0525 55.7922C44.5139 56.0661 42.7094 56.3803 40.768 56.4608C40.0592 56.485 39.3583 56.493 38.6978 56.4528C38.3594 56.4447 38.0372 56.3964 37.715 56.3722C37.5539 56.3561 37.4008 56.3319 37.2397 56.3078C37.0867 56.2836 36.9255 56.2755 36.7805 56.2353C36.3294 56.1628 35.9025 56.0581 35.4997 55.9453C36.3294 55.9856 37.2075 55.9694 38.1097 55.8889C38.875 55.8083 39.6644 55.6956 40.47 55.5425C41.2675 55.3814 42.0891 55.2042 42.9108 54.9867C44.5622 54.5597 46.2619 54.02 48.01 53.4964C48.88 53.2386 49.7742 52.9728 50.6683 52.6989C51.5625 52.425 52.4728 52.1431 53.383 51.8772C54.2933 51.6033 55.2197 51.3375 56.1461 51.0797C57.0725 50.83 58.0069 50.5883 58.9494 50.3869C59.4167 50.2742 59.8919 50.1856 60.3672 50.0969C60.6008 50.0486 60.8425 50.0164 61.0761 49.968C61.3097 49.9278 61.5514 49.8794 61.785 49.8553C62.2603 49.7908 62.7355 49.7183 63.2108 49.678C63.4525 49.6539 63.6861 49.6217 63.9278 49.6055C64.1694 49.5894 64.403 49.5733 64.6447 49.5572C64.7655 49.5492 64.8783 49.5411 64.9991 49.5331L65.3536 49.525C65.5872 49.5169 65.8289 49.5169 66.0625 49.5089C66.3042 49.5089 66.5378 49.5089 66.7794 49.5089C67.0211 49.5089 67.2547 49.5089 67.4964 49.5169C67.5528 49.5169 67.6092 49.5169 67.6655 49.5169C67.6494 49.5169 67.6494 49.525 67.6414 49.525ZM82.0125 57.1617C82.1253 57.4839 82.1978 57.8061 82.2622 58.1203C82.2864 58.2814 82.3186 58.4344 82.3347 58.5956C82.3508 58.7567 82.3669 58.9097 82.375 59.0628C82.4072 59.6831 82.3428 60.2711 82.2139 60.8108C82.085 61.3506 81.8836 61.8419 81.6419 62.2689C81.4405 62.6314 81.2069 62.9536 80.9572 63.2355C80.7155 62.9536 80.4819 62.6314 80.2725 62.2689C80.0308 61.8339 79.8294 61.3506 79.7005 60.8108C79.5716 60.2711 79.5153 59.6831 79.5394 59.0628C79.5394 58.9097 79.5636 58.7567 79.5797 58.5956C79.5958 58.4344 79.628 58.2814 79.6522 58.1203C79.7167 57.8061 79.7891 57.4758 79.9019 57.1617C79.9986 56.8394 80.1355 56.5172 80.2805 56.2031C80.4416 55.8889 80.6028 55.5667 80.8042 55.2686C80.8525 55.1961 80.9008 55.1236 80.9492 55.0511C80.9975 55.1236 81.0458 55.1961 81.0942 55.2686C81.2955 55.5747 81.4647 55.8889 81.6178 56.2031C81.7708 56.5172 81.9078 56.8394 82.0125 57.1617ZM125.142 56.2433C124.997 56.2756 124.836 56.2917 124.683 56.3158C124.53 56.3319 124.369 56.3642 124.207 56.3803C123.885 56.4044 123.563 56.4528 123.225 56.4608C122.556 56.5092 121.863 56.4931 121.154 56.4689C119.221 56.3883 117.417 56.0742 115.87 55.8003C115.097 55.6633 114.396 55.5183 113.767 55.4055C113.453 55.3411 113.163 55.2928 112.897 55.2364C112.632 55.18 112.39 55.1317 112.172 55.0833C111.963 55.0108 111.721 54.9383 111.464 54.8578C111.206 54.7611 110.932 54.6644 110.634 54.5517C110.038 54.3503 109.369 54.0764 108.644 53.7944C107.186 53.2144 105.502 52.4894 103.682 51.7483C102.345 51.2006 101.048 50.7172 99.8233 50.3467C98.5989 50.0164 97.4711 49.7908 96.5205 49.7103C96.0453 49.67 95.6183 49.6056 95.2316 49.6136C94.853 49.6056 94.5389 49.5975 94.2811 49.5331C94.273 49.5331 94.273 49.5331 94.265 49.525C94.3214 49.525 94.3778 49.525 94.4342 49.525C94.6678 49.5169 94.9094 49.5169 95.1511 49.5169C95.3927 49.5169 95.6264 49.5169 95.868 49.5169C96.1016 49.525 96.3433 49.525 96.5769 49.5331L96.9314 49.5411C97.0522 49.5411 97.165 49.5572 97.2858 49.5653C97.5275 49.5814 97.7611 49.5975 98.0028 49.6136C98.2444 49.6297 98.478 49.6619 98.7197 49.6861C99.195 49.7264 99.6703 49.8069 100.146 49.8633C100.387 49.8956 100.621 49.9439 100.854 49.9761C101.088 50.0164 101.33 50.0486 101.563 50.105C102.039 50.2017 102.506 50.2903 102.981 50.395C103.924 50.5964 104.858 50.8461 105.784 51.0878C106.711 51.3455 107.629 51.6114 108.547 51.8853C109.458 52.1592 110.368 52.4411 111.262 52.7069C112.156 52.9808 113.051 53.2467 113.921 53.5044C115.669 54.028 117.36 54.5678 119.02 54.9947C119.849 55.2122 120.663 55.3975 121.461 55.5506C122.258 55.7036 123.047 55.8164 123.821 55.8969C124.723 55.9775 125.593 56.0017 126.431 55.9533C126.02 56.0661 125.585 56.1628 125.142 56.2433ZM129.331 55.1639C129.411 55.1236 129.484 55.0833 129.556 55.043C129.653 54.9947 129.742 54.9464 129.838 54.8981C129.83 54.9061 129.822 54.9142 129.806 54.9222C129.742 54.9706 129.661 55.0269 129.564 55.0914C129.492 55.1155 129.411 55.1397 129.331 55.1639Z" fill="url(#paint0_linear_5_5)"/>
<path d="M30.6664 15.3372C30.6664 15.3614 30.6744 15.3775 30.6744 15.4017C30.6503 15.595 30.6664 15.8044 30.7308 16.0139C30.7953 16.2233 30.908 16.4167 31.0369 16.5697C31.1094 16.6503 31.19 16.7228 31.2705 16.7872C31.2786 16.7953 31.2867 16.8033 31.2867 16.8114C31.4961 17.0208 31.7378 17.1336 31.9311 17.1739C32.0922 17.2061 32.2211 17.19 32.3178 17.1739C32.4789 17.2383 32.7044 17.2947 32.9783 17.2867C33.0186 17.2867 33.0589 17.2867 33.1072 17.2786C33.1475 17.2706 33.1958 17.2706 33.2361 17.2625C33.3247 17.2464 33.4214 17.2222 33.5019 17.2061C33.663 17.1658 33.8403 17.1175 34.0094 17.0772C34.2592 17.0208 34.4767 16.9886 34.6378 17.0208C34.7989 17.0531 34.9519 17.1739 35.0647 17.3028C35.1775 17.4317 35.2661 17.5525 35.3305 17.6331C35.395 17.7136 35.4272 17.7619 35.4272 17.7619C35.4272 17.7619 35.4272 17.7458 35.4272 17.7217C35.4272 17.6975 35.4191 17.6492 35.4111 17.6008C35.395 17.4961 35.3708 17.3431 35.2983 17.1578C35.258 17.0692 35.2097 16.9644 35.1292 16.8597C35.0969 16.8194 34.96 16.465 34.9358 16.3119C34.9117 16.1669 34.8794 15.9897 34.8069 15.8044C34.7586 15.6756 34.6941 15.5467 34.5894 15.4339C34.4928 15.3211 34.2591 15.0875 33.9611 15.0553C33.5261 15.015 33.2442 15.2083 33.1394 15.2647C32.93 15.3856 32.7286 15.6433 32.5916 15.8608C32.495 16.0219 32.4144 16.1669 32.35 16.2878C32.2855 16.4167 32.2211 16.5133 32.1486 16.5858C32.0761 16.6583 32.0519 16.6906 31.9311 16.6825C31.9069 16.6986 31.5686 16.5455 31.5122 16.4892C31.3269 16.2958 31.198 16.183 31.1094 15.885C31.0369 15.6675 30.9805 15.2728 31.1739 14.7572C31.3028 14.4189 31.4236 14.3383 31.4719 14.2497C31.5203 14.1611 31.5444 14.1047 31.5444 14.1047C31.5444 14.1047 31.4961 14.1369 31.4075 14.1933C31.3189 14.2497 31.198 14.3464 31.0691 14.4994C31.0128 14.5639 30.9564 14.6444 30.9 14.7331C30.9 14.725 30.9 14.725 30.9 14.7169C30.9564 14.5075 31.0369 14.2981 31.1578 14.0967C31.2786 13.8953 31.4397 13.71 31.625 13.5408C32.0036 13.2025 32.4869 12.9367 33.0267 12.7353C33.0669 12.7192 33.1153 12.7031 33.1555 12.695C33.1153 12.7272 33.083 12.7594 33.0508 12.7917C33.0105 12.8239 32.9864 12.8561 32.9622 12.8722C32.7769 12.9689 32.6078 13.0575 32.4547 13.13C31.9794 13.3636 31.7136 13.4925 31.7136 13.4925C31.7136 13.4925 31.9955 13.3958 32.495 13.2186C32.7447 13.1219 33.0508 13.0092 33.3972 12.8722C33.7436 12.7353 34.1464 12.5742 34.5894 12.405C34.6941 12.3647 34.7989 12.3244 34.9117 12.2842C36.1683 12.1069 37.5539 12.115 39.0119 12.2761C39.7611 12.3728 40.5344 12.5017 41.3158 12.6708C42.0972 12.84 42.9028 13.0414 43.7164 13.275C45.3436 13.7342 47.0192 14.3061 48.7592 14.87C49.6292 15.1519 50.5072 15.4258 51.4014 15.7239C52.2875 16.0139 53.1897 16.3119 54.1 16.6019C55.0103 16.9 55.9367 17.1819 56.863 17.4558C57.7975 17.7217 58.74 17.9875 59.6905 18.2131C60.1658 18.3339 60.6492 18.4305 61.1325 18.5353C61.3742 18.5917 61.6158 18.6319 61.8575 18.6803C62.0991 18.7206 62.3408 18.7769 62.5825 18.8092C63.0739 18.8817 63.5572 18.9703 64.0486 19.0186C64.2903 19.0428 64.54 19.083 64.7817 19.1072C65.0314 19.1314 65.273 19.1475 65.5228 19.1717C65.6436 19.1797 65.7644 19.1958 65.8933 19.1958L66.2639 19.2119C66.5136 19.22 66.7553 19.2281 67.005 19.2442C67.2467 19.2442 67.4883 19.2522 67.73 19.2522C67.9717 19.2522 68.2133 19.2603 68.455 19.2522C68.6967 19.2522 68.9383 19.2522 69.18 19.2442C69.4217 19.2361 69.6633 19.2281 69.905 19.2281L70.2675 19.22L70.63 19.2039C70.8717 19.1878 71.1133 19.1797 71.3469 19.1636C72.3055 19.0911 73.2561 18.9703 74.1905 18.7769C74.3033 18.7528 74.4242 18.7286 74.5369 18.6964C74.6497 18.6722 74.7705 18.6481 74.8833 18.6158C75.1089 18.5514 75.3425 18.4869 75.568 18.4306C75.7936 18.3581 76.0192 18.2775 76.2367 18.205C76.3494 18.1728 76.4541 18.1244 76.5669 18.0842C76.6716 18.0439 76.7844 17.9956 76.8892 17.9553C76.9939 17.9069 77.1066 17.8747 77.2114 17.8183C77.3161 17.77 77.4208 17.7217 77.5255 17.6733C77.735 17.5767 77.9444 17.48 78.1458 17.3672C78.3472 17.2544 78.5486 17.1497 78.7419 17.0369C78.9353 16.9161 79.1286 16.8033 79.3139 16.6825C79.4105 16.6261 79.4992 16.5617 79.5958 16.4972C79.6844 16.4328 79.7811 16.3683 79.8697 16.3119C79.9583 16.2475 80.055 16.1911 80.1436 16.1267C80.2322 16.0622 80.3208 15.9978 80.4094 15.9333C80.5786 15.8044 80.7558 15.6756 80.925 15.5467C81.0136 15.4822 81.0942 15.4097 81.1828 15.3372C81.2714 15.2647 81.3519 15.2003 81.4325 15.1197C81.513 15.0472 81.5936 14.9747 81.6742 14.8942C81.7547 14.8217 81.8272 14.7411 81.9078 14.6606L81.9158 14.6525L81.9239 14.6606C82.0044 14.7411 82.0769 14.8136 82.1575 14.8942C82.238 14.9667 82.3186 15.0392 82.3992 15.1197C82.4797 15.1922 82.5603 15.2647 82.6489 15.3372C82.7375 15.4097 82.818 15.4822 82.9067 15.5467C83.0758 15.6756 83.253 15.8044 83.4222 15.9333C83.5108 15.9978 83.5914 16.0622 83.688 16.1267C83.7767 16.1911 83.8653 16.2475 83.9619 16.3119C84.0505 16.3764 84.1472 16.4328 84.2358 16.4972C84.3244 16.5617 84.4211 16.6261 84.5178 16.6825C84.7111 16.8033 84.8964 16.9161 85.0897 17.0369C85.283 17.1497 85.4844 17.2544 85.6858 17.3672C85.8872 17.48 86.0967 17.5767 86.3061 17.6733C86.4108 17.7217 86.5155 17.77 86.6203 17.8183C86.725 17.8667 86.8378 17.9069 86.9425 17.9553C87.0472 17.9956 87.16 18.0439 87.2647 18.0842C87.3694 18.1244 87.4822 18.1728 87.595 18.205C87.8205 18.2775 88.038 18.3581 88.2636 18.4306C88.4892 18.495 88.7228 18.5594 88.9483 18.6158C89.0611 18.6481 89.1819 18.6722 89.2947 18.6964C89.4075 18.7206 89.5283 18.7447 89.6411 18.7769C90.5755 18.9703 91.5261 19.0992 92.4847 19.1636C92.7264 19.1878 92.968 19.1958 93.2017 19.2039L93.5642 19.22L93.9267 19.2281C94.1683 19.2361 94.41 19.2442 94.6516 19.2442C94.8933 19.2442 95.135 19.2442 95.3767 19.2522C95.6183 19.2522 95.86 19.2522 96.1017 19.2522C96.3433 19.2522 96.585 19.2442 96.8267 19.2442C97.0683 19.2361 97.318 19.2281 97.5678 19.2119L97.9383 19.1958C98.0592 19.1878 98.188 19.1797 98.3089 19.1717C98.5586 19.1556 98.8003 19.1314 99.05 19.1072C99.2997 19.083 99.5414 19.0508 99.783 19.0186C100.274 18.9703 100.758 18.8817 101.249 18.8092C101.491 18.7689 101.732 18.7206 101.974 18.6803C102.216 18.6319 102.457 18.5917 102.699 18.5353C103.182 18.4305 103.666 18.3339 104.141 18.2131C105.1 17.9875 106.034 17.7217 106.969 17.4558C107.903 17.1819 108.821 16.9 109.732 16.6019C110.642 16.3119 111.544 16.0139 112.43 15.7239C113.324 15.4339 114.194 15.1519 115.072 14.87C116.812 14.3061 118.488 13.7422 120.115 13.275C120.929 13.0414 121.726 12.84 122.516 12.6708C123.297 12.5017 124.071 12.3728 124.82 12.2761C126.278 12.1069 127.663 12.1069 128.92 12.2842C129.033 12.3244 129.137 12.3647 129.242 12.405C129.685 12.5822 130.08 12.7353 130.434 12.8722C130.789 13.0092 131.087 13.1219 131.337 13.2186C131.836 13.3958 132.118 13.4925 132.118 13.4925C132.118 13.4925 131.852 13.3636 131.377 13.13C131.232 13.0575 131.063 12.9689 130.869 12.8722C130.845 12.8481 130.821 12.8239 130.781 12.7917C130.749 12.7675 130.716 12.7353 130.676 12.695C130.716 12.7111 130.765 12.7192 130.805 12.7353C131.353 12.9367 131.836 13.2025 132.207 13.5408C132.392 13.71 132.553 13.8953 132.674 14.0967C132.795 14.2981 132.875 14.5075 132.932 14.7169C132.932 14.725 132.932 14.725 132.932 14.7331C132.875 14.6444 132.819 14.5639 132.762 14.4994C132.634 14.3544 132.505 14.2578 132.424 14.1933C132.336 14.1369 132.287 14.1047 132.287 14.1047C132.287 14.1047 132.311 14.1611 132.36 14.2497C132.408 14.3383 132.529 14.4189 132.658 14.7572C132.851 15.2647 132.787 15.6675 132.722 15.885C132.634 16.183 132.513 16.2958 132.319 16.4892C132.263 16.5455 131.925 16.6906 131.901 16.6825C131.788 16.6906 131.756 16.6583 131.683 16.5858C131.611 16.5133 131.554 16.4086 131.482 16.2878C131.417 16.1669 131.345 16.0139 131.24 15.8608C131.103 15.6514 130.902 15.3856 130.692 15.2647C130.587 15.2083 130.306 15.015 129.871 15.0553C129.572 15.0875 129.339 15.3211 129.242 15.4339C129.146 15.5467 129.081 15.6756 129.025 15.8044C128.952 15.9978 128.92 16.1669 128.896 16.3119C128.872 16.4569 128.727 16.8194 128.702 16.8597C128.622 16.9644 128.574 17.0611 128.533 17.1578C128.461 17.3431 128.437 17.4961 128.421 17.6008C128.412 17.6492 128.413 17.6975 128.404 17.7217C128.404 17.7458 128.404 17.7619 128.404 17.7619C128.404 17.7619 128.437 17.7136 128.501 17.6331C128.566 17.5525 128.654 17.4317 128.767 17.3028C128.888 17.1739 129.033 17.0531 129.194 17.0208C129.355 16.9806 129.572 17.0128 129.822 17.0772C129.991 17.1175 130.161 17.1658 130.33 17.2061C130.41 17.2303 130.507 17.2464 130.596 17.2625C130.644 17.2706 130.684 17.2706 130.724 17.2786C130.765 17.2867 130.813 17.2867 130.853 17.2867C131.127 17.2947 131.353 17.2383 131.514 17.1739C131.611 17.19 131.739 17.2061 131.901 17.1739C132.102 17.1417 132.344 17.0208 132.545 16.8114C132.553 16.8033 132.561 16.7953 132.561 16.7872C132.642 16.7228 132.722 16.6503 132.795 16.5697C132.924 16.4167 133.036 16.2314 133.101 16.0139C133.165 15.8125 133.181 15.595 133.157 15.4017C133.157 15.3775 133.165 15.3614 133.165 15.3372C133.173 15.2325 133.173 15.1197 133.157 15.0069C133.149 14.9506 133.149 14.8942 133.141 14.8378C133.133 14.7814 133.117 14.725 133.109 14.6686C133.052 14.4431 132.972 14.2094 132.843 13.9839C132.714 13.7583 132.553 13.5569 132.352 13.3636C131.957 12.985 131.449 12.695 130.886 12.4694C130.62 12.3647 130.346 12.2761 130.064 12.1956C129.677 11.8894 129.162 11.5269 128.509 11.1483C128.404 11.0919 128.308 11.0275 128.203 10.9711C128.098 10.9147 127.986 10.8583 127.873 10.7939C127.647 10.673 127.414 10.5603 127.164 10.4394C126.664 10.2139 126.125 9.98028 125.545 9.77889C124.965 9.5775 124.336 9.39222 123.668 9.26333C123.337 9.19889 122.991 9.1425 122.645 9.11028C122.467 9.09416 122.298 9.07805 122.121 9.06999C121.944 9.05388 121.767 9.05389 121.589 9.04583C119.64 8.98944 117.852 9.27944 116.353 9.60166C114.855 9.94 113.639 10.3186 112.817 10.5925C112.39 10.6892 111.866 10.7939 111.27 10.9631C110.674 11.1242 109.997 11.3175 109.264 11.5269C108.539 11.7686 107.75 12.0425 106.928 12.3406C106.115 12.6708 105.253 13.0011 104.375 13.3878C103.73 13.6778 103.11 13.9597 102.506 14.2417C101.894 14.5317 101.338 14.8539 100.814 15.1761C100.299 15.4983 99.8072 15.7964 99.3481 16.0783C98.8889 16.3603 98.4539 16.61 98.0592 16.8275C97.2536 17.2544 96.5689 17.5283 96.0775 17.6653C95.9567 17.6975 95.8439 17.7297 95.7472 17.7539C95.6506 17.77 95.57 17.7861 95.5055 17.8022C95.3686 17.8264 95.3041 17.8425 95.3041 17.8425C95.3041 17.8425 95.3767 17.8344 95.5136 17.8264C95.578 17.8183 95.6666 17.8183 95.7633 17.8103C95.86 17.8022 95.9728 17.7781 96.1017 17.7619C96.6172 17.6814 97.3503 17.4881 98.2041 17.1175C98.6311 16.9322 99.0903 16.7147 99.5736 16.465C100.057 16.2153 100.564 15.9414 101.096 15.6514C101.628 15.3614 102.184 15.0714 102.78 14.8136C103.384 14.5558 104.012 14.2819 104.649 13.9919C105.519 13.6133 106.364 13.2508 107.162 12.9044C107.967 12.5822 108.733 12.2681 109.434 11.9861C110.151 11.7283 110.795 11.4867 111.375 11.2692C111.947 11.0517 112.454 10.8906 112.865 10.7456C113.711 10.5603 114.952 10.3106 116.45 10.0769C117.948 9.85944 119.713 9.65 121.581 9.70638C121.751 9.71444 121.928 9.71444 122.097 9.7225C122.266 9.73861 122.435 9.74666 122.604 9.76277C122.935 9.795 123.257 9.83528 123.579 9.89167C124.216 10.0044 124.82 10.1494 125.4 10.3186C125.972 10.4797 126.511 10.6731 127.011 10.8583C127.261 10.955 127.502 11.0436 127.728 11.1483C127.841 11.1967 127.953 11.245 128.066 11.2933C128.171 11.3417 128.284 11.39 128.38 11.4383C128.856 11.6558 129.266 11.8733 129.613 12.0747C129.444 12.0344 129.266 12.0022 129.089 11.97C128.284 11.5914 127.325 11.1886 126.205 10.9469C126.052 10.9067 125.891 10.8825 125.73 10.8503C125.569 10.8261 125.408 10.7858 125.239 10.7617C124.908 10.7214 124.57 10.665 124.224 10.6489C123.531 10.5844 122.814 10.5844 122.081 10.6086C120.083 10.6972 118.254 11.0919 116.724 11.4625C115.959 11.6558 115.266 11.8492 114.654 12.0183C114.347 12.1069 114.066 12.1875 113.8 12.2681C113.542 12.3486 113.3 12.4292 113.083 12.4936C112.865 12.5419 112.616 12.5903 112.35 12.6467C112.084 12.7192 111.794 12.7917 111.488 12.8722C110.868 13.0253 110.183 13.2428 109.426 13.4844C107.927 13.9758 106.203 14.6364 104.383 15.3694C103.046 15.9172 101.773 16.4328 100.605 16.8517C99.4286 17.2303 98.3492 17.5283 97.4228 17.6975C96.9555 17.778 96.5447 17.8828 96.1742 17.915C95.8036 17.9633 95.4653 18.0117 95.2155 18.1003C95.1269 18.1325 95.0544 18.1647 94.99 18.1969C94.8853 18.1969 94.7805 18.1889 94.6839 18.1889C94.4503 18.1808 94.2086 18.1728 93.975 18.1567L93.6205 18.1406L93.2742 18.1164C93.0405 18.1003 92.8069 18.0842 92.5814 18.06C91.655 17.9794 90.7608 17.8425 89.8828 17.6492C89.778 17.625 89.6653 17.6008 89.5606 17.5767C89.4558 17.5525 89.343 17.5283 89.2383 17.4961C89.0289 17.4317 88.8194 17.3753 88.6019 17.3108C88.3925 17.2383 88.1911 17.1658 87.9897 17.0933C87.885 17.0611 87.7883 17.0208 87.6917 16.9725C87.595 16.9322 87.4903 16.8919 87.3936 16.8517C87.2969 16.8114 87.1922 16.7711 87.0955 16.7228C86.9989 16.6744 86.9022 16.6261 86.8055 16.5858C86.6122 16.4892 86.4189 16.4006 86.2417 16.2958C86.0564 16.1911 85.8711 16.0944 85.6939 15.9817C85.5166 15.8689 85.3394 15.7561 85.1622 15.6433C85.0736 15.5869 84.985 15.5306 84.9044 15.4661C84.8158 15.4097 84.7353 15.3453 84.6467 15.2889C84.5661 15.2325 84.4775 15.168 84.3969 15.1117C84.3164 15.0553 84.2358 14.9828 84.1553 14.9264C83.9942 14.7975 83.833 14.6767 83.6719 14.5478C83.5914 14.4833 83.5189 14.4189 83.4464 14.3625C83.3739 14.298 83.3014 14.2417 83.2289 14.1692C83.1564 14.1047 83.0919 14.0403 83.0194 13.9678C82.9469 13.9033 82.8825 13.8308 82.818 13.7664C82.7858 13.7342 82.7617 13.7019 82.7294 13.6697C82.8664 13.4925 82.9953 13.3153 83.1161 13.13C83.3497 12.7836 83.543 12.4211 83.7283 12.0586C83.8975 11.6881 84.0586 11.3256 84.1794 10.9469C84.695 9.45666 84.7514 7.91805 84.4372 6.59694C84.2842 5.93638 84.0425 5.33222 83.7444 4.80055C83.4786 4.32528 83.1805 3.91444 82.8664 3.55194C82.9147 3.51166 82.963 3.47138 83.0114 3.43111C83.1 3.36666 83.1886 3.30222 83.2772 3.23777C83.3175 3.20555 83.3658 3.17333 83.4061 3.14916L83.535 3.06861C83.6236 3.01222 83.7122 2.96388 83.8089 2.91555L83.9458 2.84305L84.0908 2.77861C84.4694 2.60139 84.8722 2.46444 85.283 2.35972C85.6939 2.26305 86.1128 2.1825 86.5317 2.15028C87.3694 2.06972 88.2153 2.11 89.0208 2.23889C89.4236 2.30333 89.8264 2.38389 90.205 2.49666C90.3983 2.545 90.5836 2.60944 90.7769 2.67389C90.8736 2.70611 90.9622 2.74639 91.0508 2.77861C91.1394 2.81083 91.2361 2.84305 91.3247 2.88333C92.7666 3.47138 93.9669 4.41389 94.6839 5.54972C94.7242 5.62222 94.7644 5.69472 94.8128 5.76722L94.8772 5.87194L94.9336 5.98472C94.9658 6.05722 95.0061 6.12972 95.0383 6.20222C95.0705 6.27472 95.0947 6.35527 95.1269 6.42777L95.1672 6.54055C95.1833 6.58083 95.1914 6.61305 95.1994 6.65333C95.2236 6.72583 95.2478 6.80639 95.2639 6.87889C95.28 6.95139 95.2961 7.03194 95.3122 7.10444L95.3364 7.21722C95.3444 7.2575 95.3444 7.28972 95.3525 7.33C95.3605 7.4025 95.3686 7.48305 95.3847 7.55555C95.3847 7.62805 95.3928 7.70861 95.3928 7.78111L95.4008 7.89388V8.00666C95.4008 8.07916 95.3928 8.15167 95.3928 8.22417C95.3847 8.29667 95.3767 8.36916 95.3686 8.44166C95.3605 8.47389 95.3605 8.51417 95.3525 8.54639L95.3283 8.65111C95.3122 8.72361 95.3042 8.79611 95.288 8.86056C95.2719 8.93305 95.2478 8.9975 95.2317 9.06194C95.2236 9.09417 95.2155 9.12639 95.2075 9.16666L95.1753 9.26333C95.1511 9.32778 95.1269 9.39222 95.1028 9.45667C95.0786 9.52111 95.0464 9.58555 95.0222 9.64194L94.9819 9.73861C94.9658 9.77083 94.9497 9.795 94.9336 9.82722C94.9014 9.88361 94.8692 9.94805 94.8369 10.0044C94.8047 10.0608 94.7644 10.1172 94.7322 10.1736C94.6678 10.2864 94.5792 10.3911 94.5067 10.4958C94.1925 10.9067 93.8139 11.2208 93.4272 11.4544C93.0405 11.6881 92.6378 11.8411 92.2511 11.9297C91.8644 12.0103 91.5019 12.0425 91.1717 12.0183C91.1314 12.0183 91.0911 12.0183 91.0508 12.0103C91.0105 12.0022 90.9703 12.0022 90.93 11.9942C90.8494 11.9861 90.7769 11.9781 90.7044 11.97C90.6642 11.9619 90.6239 11.9539 90.5755 11.9458C91.2361 11.7042 91.7033 11.0758 91.7033 10.3347C91.7033 9.39222 90.938 8.61889 89.9875 8.61889C89.045 8.61889 88.2717 9.38416 88.2717 10.3347C88.2717 11.1806 88.8839 11.8814 89.6894 12.0183C89.7216 12.0425 89.7619 12.0586 89.8022 12.0828C89.915 12.1311 90.0278 12.1875 90.1567 12.2519C90.2855 12.3083 90.4305 12.3567 90.5836 12.405C90.6642 12.4292 90.7447 12.4453 90.8333 12.4694C90.8736 12.4775 90.9219 12.4936 90.9622 12.5017C91.0025 12.5097 91.0508 12.5178 91.0991 12.5258C91.4697 12.5983 91.8886 12.6064 92.3478 12.55C92.8069 12.4936 93.2983 12.3486 93.7736 12.0989C94.2569 11.8492 94.7322 11.4947 95.135 11.0356C95.2317 10.9147 95.3364 10.8019 95.425 10.665C95.4733 10.6006 95.5217 10.5361 95.5619 10.4717C95.6022 10.3992 95.6425 10.3347 95.6908 10.2622C95.715 10.23 95.7311 10.1897 95.7553 10.1575L95.8116 10.0447C95.8519 9.97222 95.8842 9.89972 95.9244 9.81916C95.9567 9.73861 95.9889 9.66611 96.0211 9.58555L96.0694 9.46472C96.0855 9.42444 96.0936 9.38416 96.1097 9.34389C96.1339 9.26333 96.1661 9.17472 96.1903 9.09417C96.2144 9.00556 96.2306 8.92499 96.2547 8.83638L96.2869 8.7075C96.295 8.66722 96.303 8.61888 96.3111 8.57861C96.3272 8.49 96.3353 8.40139 96.3514 8.31278C96.3594 8.22417 96.3675 8.1275 96.3755 8.03889L96.3836 7.90194V7.765C96.3836 7.66833 96.3836 7.57972 96.3836 7.48306C96.3756 7.38639 96.3675 7.29777 96.3594 7.20111C96.3514 7.15277 96.3514 7.10444 96.3433 7.05611L96.3192 6.91111C96.303 6.81444 96.2869 6.71777 96.2708 6.62916C96.2467 6.5325 96.2225 6.44389 96.1983 6.34722C96.1822 6.29889 96.1741 6.25055 96.158 6.20222L96.1097 6.06528C96.0775 5.96861 96.0453 5.88 96.013 5.78333C95.9728 5.69472 95.9325 5.59805 95.8922 5.50944L95.8278 5.3725L95.7553 5.24361C95.7069 5.15499 95.6586 5.06639 95.6103 4.97778C95.4008 4.63139 95.1753 4.29305 94.8933 3.97888C94.7644 3.81777 94.6114 3.67277 94.4664 3.51972C94.3939 3.44722 94.3133 3.37472 94.2328 3.30222C94.1522 3.22972 94.0797 3.15722 93.9911 3.09277C93.9106 3.02833 93.83 2.95583 93.7414 2.89139C93.6528 2.82694 93.5722 2.7625 93.4836 2.70611L93.3547 2.60944L93.2178 2.52083C93.1291 2.46444 93.0405 2.40805 92.9439 2.34361C92.8472 2.28722 92.7586 2.23889 92.6619 2.1825L92.5169 2.10194L92.3719 2.02944C92.2753 1.98111 92.1786 1.93277 92.0819 1.88444C91.9853 1.83611 91.8805 1.79583 91.7839 1.7475C91.6872 1.69916 91.5825 1.65888 91.4778 1.61861C91.373 1.57833 91.2764 1.53806 91.1636 1.49778C90.9542 1.42528 90.7447 1.34472 90.5272 1.28833C90.1003 1.15944 89.6572 1.05472 89.198 0.974165C88.2958 0.813054 87.3453 0.764718 86.3867 0.845273C85.9033 0.885551 85.42 0.966107 84.9366 1.07889C84.4533 1.19166 83.978 1.35277 83.5108 1.57027L83.3336 1.65083L83.1644 1.73944C83.0517 1.80388 82.9308 1.86027 82.8261 1.93277L82.6569 2.0375C82.6005 2.06972 82.5442 2.11 82.4958 2.14222C82.3911 2.21472 82.2864 2.28722 82.1816 2.36777C82.0769 2.44833 81.9722 2.52889 81.8675 2.6175C81.7628 2.53694 81.658 2.44833 81.5533 2.36777C81.4486 2.29527 81.3439 2.22277 81.2392 2.14222C81.1908 2.10194 81.1344 2.06972 81.078 2.0375L80.9089 1.93277C80.7961 1.86027 80.6833 1.80388 80.5705 1.73944L80.4014 1.65083L80.2242 1.57027C79.7569 1.35277 79.2817 1.19166 78.7983 1.07889C78.315 0.966107 77.8316 0.885551 77.3483 0.845273C76.3897 0.764718 75.4392 0.821109 74.5369 0.974165C74.0858 1.05472 73.6428 1.15139 73.2078 1.28833C72.9903 1.35278 72.7808 1.42528 72.5714 1.49778C72.4667 1.53806 72.3619 1.57833 72.2572 1.61861C72.1525 1.65888 72.0478 1.69916 71.9511 1.7475C71.8544 1.79583 71.7497 1.83611 71.653 1.88444C71.5564 1.93277 71.4597 1.98111 71.363 2.02944L71.218 2.10194L71.073 2.1825C70.9764 2.23889 70.8878 2.28722 70.7911 2.34361C70.7025 2.4 70.6058 2.46444 70.5172 2.52083L70.3803 2.60944L70.2514 2.70611C70.1628 2.77056 70.0822 2.835 69.9936 2.89139C69.913 2.95583 69.8244 3.02833 69.7439 3.09277C69.6633 3.15722 69.5828 3.22972 69.5022 3.30222C69.4217 3.37472 69.3491 3.43916 69.2686 3.51972C69.1236 3.67277 68.9705 3.81777 68.8417 3.97888C68.5678 4.285 68.3342 4.63139 68.1247 4.97778C68.0764 5.06639 68.028 5.15499 67.9797 5.24361L67.9072 5.3725L67.8428 5.50944C67.8025 5.59805 67.7622 5.69472 67.7219 5.78333C67.6897 5.88 67.6575 5.96861 67.6253 6.06528L67.5769 6.20222C67.5608 6.25055 67.5528 6.29889 67.5367 6.34722C67.5125 6.44389 67.4883 6.5325 67.4642 6.62916C67.448 6.72583 67.4319 6.82249 67.4158 6.91111L67.3916 7.05611C67.3836 7.10444 67.3836 7.15277 67.3755 7.20111C67.3675 7.29777 67.3594 7.38639 67.3514 7.48306C67.3514 7.57972 67.3514 7.66833 67.3514 7.765V7.90194L67.3594 8.03889C67.3675 8.1275 67.3755 8.22417 67.3836 8.31278C67.3997 8.40139 67.4078 8.49 67.4239 8.57861C67.4319 8.61888 67.44 8.66722 67.448 8.7075L67.4803 8.83638C67.5044 8.92499 67.5205 9.00556 67.5447 9.09417C67.5689 9.17472 67.6011 9.26333 67.6253 9.34389C67.6414 9.38416 67.6494 9.42444 67.6656 9.46472L67.7139 9.58555C67.7461 9.66611 67.7783 9.73861 67.8105 9.81916C67.8508 9.89166 67.883 9.97222 67.9233 10.0447L67.9797 10.1575C68.0039 10.1897 68.02 10.23 68.0442 10.2622C68.0844 10.3347 68.1328 10.3992 68.173 10.4717C68.2133 10.5361 68.2697 10.6006 68.31 10.665C68.3986 10.7939 68.5033 10.9147 68.6 11.0356C69.0028 11.5028 69.4861 11.8492 69.9614 12.0989C70.4447 12.3486 70.9361 12.4936 71.3872 12.55C71.8464 12.6064 72.2653 12.5983 72.6358 12.5258C72.6842 12.5178 72.7244 12.5097 72.7728 12.5017C72.813 12.4936 72.8614 12.4775 72.9017 12.4694C72.9822 12.4453 73.0708 12.4292 73.1514 12.405C73.3044 12.3486 73.4494 12.3003 73.5783 12.2519C73.7072 12.1956 73.82 12.1392 73.9328 12.0828C73.973 12.0586 74.0053 12.0344 74.0455 12.0183C74.8511 11.8814 75.4633 11.1806 75.4633 10.3347C75.4633 9.39222 74.698 8.61889 73.7475 8.61889C72.805 8.61889 72.0317 9.38416 72.0317 10.3347C72.0317 11.0758 72.5069 11.7042 73.1594 11.9458C73.1192 11.9539 73.0789 11.9619 73.0305 11.97C72.958 11.9781 72.8775 11.9861 72.805 11.9942C72.7647 12.0022 72.7244 12.0022 72.6842 12.0103C72.6439 12.0103 72.6036 12.0103 72.5633 12.0183C72.233 12.0425 71.8705 12.0183 71.4839 11.9297C71.0972 11.8492 70.6944 11.6961 70.3078 11.4544C69.9211 11.2128 69.5425 10.8986 69.2283 10.4958C69.1558 10.3911 69.0672 10.2944 69.0028 10.1736C68.9705 10.1172 68.9303 10.0608 68.898 10.0044C68.8658 9.94805 68.8336 9.88361 68.8014 9.82722C68.7853 9.795 68.7691 9.77083 68.753 9.73861L68.7128 9.64194C68.6886 9.57749 68.6564 9.51305 68.6322 9.45667C68.608 9.39222 68.5839 9.32778 68.5597 9.26333L68.5275 9.16666C68.5194 9.13444 68.5114 9.10222 68.5033 9.06194C68.4872 8.9975 68.4631 8.925 68.4469 8.86056C68.4308 8.78806 68.4228 8.72361 68.4067 8.65111L68.3825 8.54639C68.3744 8.51417 68.3744 8.47389 68.3664 8.44166C68.3583 8.36916 68.3503 8.29667 68.3422 8.22417C68.3422 8.15167 68.3342 8.07916 68.3342 8.00666V7.89388L68.3422 7.78111C68.3422 7.70861 68.3503 7.62805 68.3503 7.55555C68.3583 7.48305 68.3664 7.4025 68.3825 7.33C68.3905 7.28972 68.3905 7.2575 68.3986 7.21722L68.4228 7.10444C68.4389 7.03194 68.455 6.95139 68.4711 6.87889C68.4953 6.80639 68.5194 6.72583 68.5355 6.65333C68.5436 6.61305 68.5597 6.58083 68.5678 6.54055L68.608 6.42777C68.6403 6.35527 68.6644 6.28277 68.6967 6.20222C68.7289 6.12972 68.7691 6.05722 68.8014 5.98472L68.8578 5.87194L68.9222 5.76722C68.9625 5.69472 69.0028 5.62222 69.0511 5.54972C69.768 4.41389 70.9603 3.47138 72.4103 2.88333C72.4989 2.84305 72.5875 2.81083 72.6842 2.77861C72.7728 2.74639 72.8694 2.70611 72.958 2.67389C73.1433 2.60944 73.3367 2.545 73.53 2.49666C73.9167 2.38389 74.3114 2.30333 74.7142 2.23889C75.5197 2.11 76.3655 2.07778 77.2033 2.15028C77.6222 2.19055 78.0411 2.26305 78.4519 2.35972C78.8628 2.45639 79.2655 2.60139 79.6442 2.77861L79.7891 2.84305L79.9261 2.91555C80.0147 2.96388 80.1114 3.01222 80.2 3.06861L80.3289 3.14916C80.3772 3.17333 80.4175 3.20555 80.4578 3.23777C80.5464 3.30222 80.635 3.36666 80.7236 3.43111C80.7719 3.47138 80.8203 3.51166 80.8686 3.55194C80.5544 3.91444 80.2564 4.32528 79.9905 4.80055C79.6925 5.33222 79.4508 5.93638 79.2978 6.59694C78.9916 7.91805 79.048 9.45666 79.5555 10.9469C79.6764 11.3256 79.8375 11.6881 80.0067 12.0586C80.1919 12.4211 80.3853 12.7836 80.6189 13.13C80.7397 13.3153 80.8686 13.4925 81.0055 13.6697C80.9733 13.7019 80.9492 13.7342 80.9169 13.7664C80.8525 13.8308 80.788 13.9033 80.7155 13.9678C80.643 14.0322 80.5786 14.0967 80.5061 14.1692C80.4336 14.2336 80.3611 14.298 80.2886 14.3625C80.2161 14.4269 80.1436 14.4914 80.063 14.5478C79.9019 14.6686 79.7408 14.7975 79.5797 14.9264C79.4992 14.9908 79.4186 15.0553 79.338 15.1117C79.2575 15.168 79.1689 15.2325 79.0883 15.2889C79.0078 15.3453 78.9192 15.4097 78.8306 15.4661C78.7419 15.5225 78.6614 15.5869 78.5728 15.6433C78.3955 15.7561 78.2183 15.8689 78.0411 15.9817C77.8639 16.0944 77.6786 16.1911 77.4933 16.2958C77.308 16.4006 77.1228 16.4972 76.9294 16.5858C76.8328 16.6342 76.7361 16.6825 76.6394 16.7228C76.5428 16.7711 76.4461 16.8033 76.3414 16.8517C76.2447 16.8919 76.14 16.9322 76.0433 16.9725C75.9467 17.0128 75.8419 17.053 75.7453 17.0933C75.5439 17.1658 75.3344 17.2383 75.133 17.3108C74.9236 17.3753 74.7142 17.4317 74.4967 17.4961C74.3919 17.5283 74.2792 17.5525 74.1744 17.5767C74.0697 17.6008 73.9569 17.625 73.8522 17.6492C72.9822 17.8425 72.08 17.9794 71.1536 18.06C70.92 18.0842 70.6944 18.0922 70.4608 18.1164L70.1144 18.1406L69.76 18.1567C69.5264 18.1647 69.2928 18.1728 69.0511 18.1889C68.9464 18.1889 68.8417 18.1969 68.745 18.1969C68.6805 18.1647 68.608 18.1244 68.5194 18.1003C68.2617 18.0036 67.9314 17.9553 67.5608 17.915C67.1903 17.8747 66.7714 17.778 66.3122 17.6975C65.3858 17.5283 64.3064 17.2303 63.1303 16.8517C61.9703 16.4328 60.6975 15.9172 59.3522 15.3694C57.5317 14.6283 55.8078 13.9758 54.3094 13.4844C53.5522 13.2508 52.8675 13.0253 52.2472 12.8722C51.9411 12.7917 51.6511 12.7192 51.3853 12.6467C51.1194 12.5903 50.8697 12.5419 50.6522 12.4936C50.4347 12.4211 50.2011 12.3486 49.9353 12.2681C49.6775 12.1875 49.3875 12.1069 49.0814 12.0183C48.4692 11.8492 47.7764 11.6478 47.0111 11.4625C45.4805 11.0839 43.6519 10.6892 41.6541 10.6086C40.9211 10.5844 40.2041 10.5844 39.5114 10.6489C39.165 10.665 38.8266 10.7214 38.4964 10.7617C38.3272 10.7858 38.1661 10.8181 38.005 10.8503C37.8439 10.8825 37.6828 10.8986 37.5297 10.9469C36.41 11.1967 35.4433 11.5914 34.6458 11.97C34.4686 12.0022 34.2994 12.0344 34.1222 12.0747C34.4686 11.8733 34.8794 11.6639 35.3547 11.4383C35.4594 11.39 35.5642 11.3417 35.6689 11.2933C35.7817 11.245 35.8944 11.1967 36.0072 11.1483C36.2328 11.0436 36.4744 10.955 36.7242 10.8583C37.2236 10.6731 37.7633 10.4797 38.3353 10.3186C38.9072 10.1575 39.5194 10.0044 40.1558 9.89167C40.478 9.83528 40.7922 9.795 41.1305 9.76277C41.2997 9.75472 41.4689 9.73861 41.638 9.7225C41.8072 9.71444 41.9764 9.70638 42.1536 9.70638C44.0225 9.65805 45.7867 9.85944 47.285 10.0769C48.7833 10.3106 50.0239 10.5603 50.8697 10.7456C51.2805 10.8906 51.788 11.0517 52.36 11.2692C52.9319 11.4867 53.5844 11.7283 54.3014 11.9861C55.0022 12.2761 55.7675 12.5903 56.573 12.9044C57.3705 13.2508 58.2164 13.6133 59.0864 13.9919C59.7228 14.2739 60.3511 14.5558 60.9553 14.8136C61.5514 15.0714 62.1072 15.3694 62.6389 15.6514C63.1705 15.9414 63.678 16.2153 64.1614 16.465C64.6447 16.7147 65.1039 16.9322 65.5308 17.1175C66.3847 17.48 67.1178 17.6814 67.6333 17.7619C67.7622 17.7781 67.875 17.8022 67.9716 17.8103C68.0683 17.8183 68.1569 17.8264 68.2214 17.8264C68.3583 17.8344 68.4308 17.8425 68.4308 17.8425C68.4308 17.8425 68.3583 17.8264 68.2294 17.8022C68.165 17.7861 68.0844 17.77 67.9878 17.7539C67.8911 17.7297 67.7864 17.6975 67.6575 17.6653C67.1661 17.5283 66.4814 17.2544 65.6758 16.8275C65.273 16.61 64.8461 16.3603 64.3869 16.0783C63.9278 15.7964 63.4364 15.4903 62.9208 15.1761C62.3972 14.8619 61.8414 14.5317 61.2292 14.2417C60.625 13.9597 60.0047 13.6778 59.3603 13.3878C58.4822 13.0011 57.6203 12.6708 56.8066 12.3406C55.9769 12.0425 55.1955 11.7767 54.4705 11.5269C53.7375 11.3175 53.0608 11.1242 52.4647 10.9631C51.8686 10.7939 51.345 10.6892 50.918 10.5925C50.0883 10.3186 48.88 9.94 47.3816 9.60166C45.8833 9.27944 44.0869 8.98944 42.1455 9.04583C41.9683 9.05389 41.7911 9.05388 41.6139 9.06999C41.4366 9.08611 41.2594 9.10222 41.0903 9.11028C40.7439 9.1425 40.3975 9.19889 40.0672 9.26333C39.3986 9.40028 38.7783 9.5775 38.1903 9.77889C37.6022 9.98028 37.0705 10.2058 36.5711 10.4394C36.3214 10.5603 36.0878 10.673 35.8622 10.7939C35.7494 10.8503 35.6367 10.9147 35.5319 10.9711C35.4272 11.0356 35.3225 11.0919 35.2258 11.1483C34.5733 11.5269 34.0497 11.8975 33.6711 12.1956C33.3891 12.2761 33.1072 12.3647 32.8494 12.4694C32.2855 12.695 31.778 12.985 31.3833 13.3636C31.19 13.5489 31.0208 13.7583 30.8919 13.9839C30.763 14.2094 30.6825 14.4431 30.6261 14.6686C30.618 14.725 30.6019 14.7814 30.5939 14.8378C30.5858 14.8942 30.5858 14.9506 30.5778 15.0069C30.6664 15.1197 30.6664 15.2325 30.6664 15.3372ZM31.8908 17.0853C31.9553 17.1014 32.0197 17.1094 32.0761 17.1175C32.1325 17.1175 32.1808 17.1256 32.2292 17.1256C32.2372 17.1256 32.2453 17.1336 32.2533 17.1336C32.1728 17.1336 32.068 17.1336 31.9553 17.1014C31.923 17.0933 31.8989 17.0853 31.8667 17.0772C31.8747 17.0772 31.8828 17.0772 31.8908 17.0853ZM131.925 17.1014C131.812 17.1336 131.715 17.1336 131.627 17.1336C131.635 17.1336 131.643 17.1256 131.651 17.1256C131.699 17.1256 131.747 17.1175 131.804 17.1175C131.86 17.1094 131.917 17.1014 131.989 17.0853C131.997 17.0853 132.005 17.0772 132.013 17.0772C131.981 17.0853 131.957 17.0933 131.925 17.1014ZM130.547 12.6386C130.644 12.7031 130.724 12.7594 130.789 12.8078C130.797 12.8158 130.813 12.8239 130.821 12.8319C130.733 12.7836 130.644 12.7353 130.539 12.6869C130.467 12.6467 130.386 12.6064 130.314 12.5661C130.386 12.5903 130.467 12.6144 130.547 12.6386ZM95.2558 18.2131C95.5055 18.1567 95.8278 18.1406 96.2064 18.1325C96.585 18.1325 97.02 18.0761 97.4953 18.0358C98.4458 17.9472 99.5736 17.7217 100.798 17.3994C102.014 17.0289 103.311 16.5456 104.657 15.9978C106.485 15.2567 108.169 14.5317 109.619 13.9517C110.352 13.6697 111.012 13.3958 111.609 13.1944C111.907 13.0897 112.181 12.985 112.438 12.8883C112.696 12.8078 112.938 12.7272 113.147 12.6628C113.365 12.6144 113.606 12.5661 113.872 12.5097C114.138 12.4533 114.428 12.405 114.742 12.3406C115.362 12.2197 116.071 12.0828 116.845 11.9458C118.383 11.6719 120.188 11.3578 122.129 11.2772C122.838 11.2531 123.539 11.245 124.199 11.2853C124.538 11.2933 124.86 11.3417 125.182 11.3658C125.343 11.3819 125.496 11.4061 125.657 11.4303C125.811 11.4544 125.972 11.4625 126.117 11.5028C126.568 11.5753 126.995 11.68 127.398 11.7928C126.568 11.7525 125.69 11.7686 124.787 11.8492C124.022 11.9297 123.233 12.0425 122.427 12.1956C121.63 12.3567 120.808 12.5339 119.986 12.7514C118.335 13.1783 116.635 13.7181 114.887 14.2417C114.017 14.4994 113.123 14.7653 112.229 15.0392C111.335 15.3131 110.424 15.595 109.514 15.8608C108.604 16.1347 107.677 16.4006 106.751 16.6583C105.825 16.9081 104.89 17.1497 103.948 17.3511C103.481 17.4639 103.005 17.5525 102.53 17.6411C102.296 17.6894 102.055 17.7217 101.821 17.77C101.588 17.8103 101.346 17.8586 101.112 17.8828C100.637 17.9472 100.162 18.0197 99.6864 18.06C99.4447 18.0842 99.2111 18.1164 98.9694 18.1325C98.7278 18.1486 98.4941 18.1647 98.2525 18.1808C98.1316 18.1889 98.0189 18.1969 97.898 18.205L97.5436 18.2131C97.31 18.2211 97.0683 18.2211 96.8347 18.2292C96.5931 18.2292 96.3594 18.2292 96.1178 18.2292C95.8761 18.2292 95.6425 18.2292 95.4008 18.2211C95.3444 18.2211 95.288 18.2211 95.2317 18.2211C95.2478 18.2131 95.2478 18.2131 95.2558 18.2131ZM80.8847 10.5764C80.7719 10.2542 80.6994 9.93194 80.635 9.61777C80.6108 9.45666 80.5786 9.30361 80.5625 9.1425C80.5464 8.98139 80.5303 8.82833 80.5222 8.67527C80.49 8.055 80.5544 7.46694 80.6833 6.92722C80.8122 6.3875 81.0136 5.89611 81.2553 5.46917C81.4567 5.10667 81.6903 4.78444 81.94 4.5025C82.1817 4.78444 82.4153 5.10667 82.6247 5.46917C82.8664 5.90417 83.0678 6.3875 83.1967 6.92722C83.3255 7.46694 83.3819 8.055 83.3578 8.67527C83.3578 8.82833 83.3336 8.98139 83.3175 9.1425C83.3014 9.30361 83.2692 9.45666 83.245 9.61777C83.1805 9.93194 83.108 10.2622 82.9953 10.5764C82.8986 10.8986 82.7617 11.2208 82.6167 11.535C82.4555 11.8492 82.2944 12.1714 82.093 12.4694C82.0447 12.5419 81.9964 12.6144 81.948 12.6869C81.8997 12.6144 81.8514 12.5419 81.803 12.4694C81.6017 12.1633 81.4325 11.8492 81.2794 11.535C81.1264 11.2128 80.9894 10.8986 80.8847 10.5764ZM37.7553 11.4947C37.9003 11.4625 38.0614 11.4464 38.2144 11.4222C38.3675 11.4061 38.5286 11.3739 38.6897 11.3578C39.0119 11.3336 39.3342 11.2853 39.6725 11.2772C40.3411 11.2289 41.0339 11.245 41.7428 11.2692C43.6761 11.3497 45.4805 11.6639 47.0272 11.9378C47.8005 12.0747 48.5014 12.2197 49.1297 12.3325C49.4439 12.3969 49.7339 12.4453 49.9997 12.5017C50.2655 12.5581 50.5072 12.6064 50.7247 12.6547C50.9342 12.7272 51.1758 12.7997 51.4336 12.8803C51.6914 12.9769 51.9653 13.0736 52.2633 13.1864C52.8594 13.3878 53.528 13.6617 54.253 13.9436C55.7111 14.5236 57.3947 15.2486 59.2153 15.9897C60.5525 16.5375 61.8494 17.0208 63.0739 17.3914C64.2983 17.7217 65.4261 17.9472 66.3767 18.0278C66.8519 18.0681 67.2789 18.1325 67.6656 18.1244C68.0442 18.1325 68.3583 18.1406 68.6161 18.205C68.6241 18.205 68.6242 18.205 68.6322 18.2131C68.5758 18.2131 68.5194 18.2131 68.463 18.2131C68.2294 18.2211 67.9878 18.2211 67.7461 18.2211C67.5044 18.2211 67.2708 18.2211 67.0292 18.2211C66.7955 18.2131 66.5539 18.2131 66.3203 18.205L65.9658 18.1969C65.845 18.1969 65.7322 18.1808 65.6114 18.1728C65.3697 18.1567 65.1361 18.1406 64.8944 18.1244C64.6528 18.1083 64.4192 18.0761 64.1775 18.0519C63.7022 18.0117 63.2269 17.9311 62.7517 17.8747C62.51 17.8425 62.2764 17.7942 62.0428 17.7619C61.8091 17.7217 61.5675 17.6894 61.3339 17.6331C60.8586 17.5364 60.3914 17.4478 59.9161 17.3431C58.9736 17.1417 58.0392 16.8919 57.1128 16.6503C56.1864 16.3925 55.268 16.1267 54.3497 15.8528C53.4394 15.5789 52.5292 15.2969 51.635 15.0311C50.7408 14.7572 49.8466 14.4914 48.9766 14.2336C47.2286 13.71 45.5369 13.1703 43.8775 12.7433C43.0478 12.5258 42.2341 12.3406 41.4366 12.1875C40.6391 12.0344 39.8497 11.9217 39.0764 11.8411C38.1742 11.7606 37.3041 11.7364 36.4664 11.7847C36.8853 11.6639 37.3122 11.5672 37.7553 11.4947ZM33.5664 12.5661C33.4858 12.6064 33.4133 12.6467 33.3408 12.6869C33.2442 12.7353 33.1555 12.7836 33.0589 12.8319C33.0669 12.8239 33.075 12.8158 33.0911 12.8078C33.1555 12.7594 33.2361 12.7031 33.3328 12.6386C33.4053 12.6144 33.4858 12.5903 33.5664 12.5661Z" fill="url(#paint1_linear_5_5)"/>
<defs>
<linearGradient id="paint0_linear_5_5" x1="0.540434" y1="33.7577" x2="173.402" y2="33.7577" gradientUnits="userSpaceOnUse">
<stop stop-color="#FFF16C"/>
<stop offset="1" stop-color="#D0811B"/>
</linearGradient>
<linearGradient id="paint1_linear_5_5" x1="133.211" y1="10.0546" x2="30.665" y2="10.0546" gradientUnits="userSpaceOnUse">
<stop stop-color="#FFF16C"/>
<stop offset="1" stop-color="#D0811B"/>
</linearGradient>
</defs>
</svg>
