<svg width="13" height="22" viewBox="0 0 13 22" fill="none" xmlns="http://www.w3.org/2000/svg">
<path d="M10.7456 0.160034H2.25435C1.39599 0.160034 0.699951 0.856076 0.699951 1.71443V19.5088C0.699951 20.3672 1.39599 21.0632 2.25435 21.0632H10.7688C11.6271 21.0632 12.3232 20.3672 12.3232 19.5088V1.71443C12.3 0.856076 11.604 0.160034 10.7456 0.160034H10.7456ZM4.94555 1.50563H8.03115C8.14718 1.50563 8.21677 1.59836 8.21677 1.69126C8.21677 1.80729 8.12404 1.87688 8.03115 1.87688H4.94555C4.82952 1.87688 4.75993 1.78415 4.75993 1.69126C4.75993 1.59836 4.85266 1.50563 4.94555 1.50563ZM6.49995 20.2744C6.08243 20.2744 5.73435 19.9265 5.73435 19.5088C5.73435 19.0913 6.08228 18.7432 6.49995 18.7432C6.91747 18.7432 7.26555 19.0912 7.26555 19.5088C7.26555 19.9265 6.91746 20.2744 6.49995 20.2744ZM11.5344 17.9544H1.46555V3.24563H11.5112V17.9544H11.5344Z" fill="#FDC637"/>
</svg>
