<svg width="19" height="19" viewBox="0 0 19 19" fill="none" xmlns="http://www.w3.org/2000/svg">
<g clip-path="url(#clip0_2_1522)">
<path fill-rule="evenodd" clip-rule="evenodd" d="M16.2315 2.76112C14.4456 0.981541 12.0704 0.00100024 9.53992 0C4.32593 0 0.0823796 4.22326 0.080293 9.41434C0.0795975 11.0737 0.515207 12.6935 1.34297 14.1212L0.000976562 19L5.01566 17.6908C6.3973 18.4408 7.95292 18.8361 9.53614 18.8368H9.54002C14.7535 18.8368 18.9974 14.613 18.9995 9.42185C19.0005 6.90618 18.0175 4.54069 16.2315 2.76112ZM9.54002 17.2466H9.53681C8.12601 17.2461 6.74223 16.8689 5.5351 16.1559L5.24797 15.9863L2.27223 16.7632L3.06652 13.8755L2.87955 13.5795C2.09252 12.3335 1.67682 10.8935 1.67744 9.41493C1.67917 5.10031 5.20626 1.59012 9.54314 1.59012C11.6432 1.59092 13.6173 2.40596 15.1017 3.88508C16.5862 5.3642 17.4032 7.33031 17.4024 9.42124C17.4006 13.7362 13.8736 17.2466 9.54002 17.2466ZM13.8527 11.3859C13.6163 11.2681 12.4543 10.699 12.2376 10.6205C12.021 10.542 11.8634 10.5028 11.7058 10.7383C11.5483 10.9738 11.0953 11.5037 10.9574 11.6606C10.8195 11.8177 10.6817 11.8373 10.4453 11.7195C10.2089 11.6018 9.44734 11.3534 8.54451 10.5519C7.8419 9.92818 7.36749 9.15774 7.22962 8.92225C7.09175 8.68673 7.21496 8.55939 7.33328 8.44213C7.43959 8.33672 7.56963 8.16738 7.68782 8.02998C7.80598 7.89262 7.84537 7.79449 7.92415 7.63751C8.00295 7.48049 7.96356 7.3431 7.90447 7.22536C7.84537 7.10761 7.37269 5.9497 7.1757 5.47869C6.98387 5.01996 6.78899 5.08203 6.6439 5.07485C6.50619 5.06802 6.34846 5.06656 6.19091 5.06656C6.03333 5.06656 5.77727 5.12545 5.5606 5.36094C5.34395 5.59646 4.73338 6.16559 4.73338 7.32348C4.73338 8.48137 5.58031 9.6 5.6985 9.75701C5.81666 9.91402 7.36517 12.2902 9.73622 13.3092C10.3001 13.5516 10.7404 13.6963 11.0837 13.8048C11.6499 13.9838 12.1652 13.9585 12.5724 13.8979C13.0265 13.8304 13.9708 13.3288 14.1678 12.7793C14.3648 12.2298 14.3648 11.7588 14.3057 11.6607C14.2466 11.5625 14.0891 11.5037 13.8527 11.3859Z" fill="#FDC637"/>
</g>
<defs>
<clipPath id="clip0_2_1522">
<rect width="19" height="19" fill="white"/>
</clipPath>
</defs>
</svg>
