<svg width="397" height="440" viewBox="0 0 397 440" fill="none" xmlns="http://www.w3.org/2000/svg">
<path opacity="0.5" fill-rule="evenodd" clip-rule="evenodd" d="M125.645 310.524C74.5909 279.892 40.1395 221.837 40.1395 155.262C40.1395 88.6867 74.5909 30.6324 125.645 0.000427246C54.5128 11.5935 0.0446777 76.6919 0.0446777 155.262C0.0446777 233.832 54.5128 298.931 125.645 310.524Z" fill="url(#paint0_linear_17_6)"/>
<path opacity="0.5" fill-rule="evenodd" clip-rule="evenodd" d="M271.119 439.717C322.173 409.085 356.624 351.031 356.624 284.455C356.624 217.88 322.173 159.826 271.119 129.194C342.251 140.787 396.719 205.885 396.719 284.455C396.719 363.026 342.251 428.124 271.119 439.717Z" fill="url(#paint1_linear_17_6)"/>
<defs>
<linearGradient id="paint0_linear_17_6" x1="0.044692" y1="155.262" x2="118.325" y2="155.262" gradientUnits="userSpaceOnUse">
<stop stop-color="#FDC637"/>
<stop offset="1" stop-color="white" stop-opacity="0"/>
</linearGradient>
<linearGradient id="paint1_linear_17_6" x1="396.719" y1="284.455" x2="278.439" y2="284.455" gradientUnits="userSpaceOnUse">
<stop stop-color="#FDC637"/>
<stop offset="1" stop-color="white" stop-opacity="0"/>
</linearGradient>
</defs>
</svg>
